<svg width="27" height="26" viewBox="0 0 27 26" fill="none" xmlns="http://www.w3.org/2000/svg">
<path d="M20.5408 15.6497C20.8835 15.6767 21.2057 15.7648 21.5074 15.9139C21.8091 16.0631 22.0748 16.2721 22.3044 16.5409L24.6721 19.3135C24.8945 19.574 25.0558 19.8649 25.1559 20.1863C25.2559 20.5076 25.2961 20.8438 25.2763 21.1949C25.2493 21.5376 25.1612 21.8598 25.012 22.1615C24.8629 22.4633 24.6539 22.7289 24.385 22.9585L24.2086 23.1092C23.7549 23.4966 23.3399 23.8401 22.9637 24.1396C22.5874 24.4391 22.1999 24.6829 21.8011 24.8709C21.4023 25.0589 20.9643 25.1968 20.4872 25.2846C20.0101 25.3724 19.4486 25.387 18.8028 25.3283C17.8293 25.2516 16.8404 25.0209 15.8363 24.6362C14.8321 24.2514 13.845 23.7505 12.8748 23.1334C11.9047 22.5162 10.958 21.7991 10.035 20.9819C9.11193 20.1647 8.2525 19.2859 7.4567 18.3455C6.6609 17.4051 5.93169 16.4151 5.26909 15.3755C4.60649 14.3359 4.05416 13.2893 3.61208 12.2357C3.17001 11.1821 2.83728 10.1332 2.6139 9.08898C2.39052 8.04478 2.31983 7.05179 2.40185 6.11001C2.45277 5.46357 2.55084 4.91489 2.69607 4.46396C2.8413 4.01304 3.04188 3.60565 3.2978 3.24181C3.55372 2.87797 3.85484 2.53729 4.20116 2.21975C4.54747 1.90221 4.95168 1.54613 5.41378 1.15151L5.61543 0.979314C5.87588 0.756891 6.16709 0.591748 6.48906 0.483883C6.81102 0.376019 7.14724 0.33589 7.49772 0.363495C7.84041 0.390487 8.1623 0.482454 8.46341 0.639394C8.76452 0.796335 9.03018 1.00534 9.26039 1.26641L11.6281 4.03902C11.8505 4.29947 12.0118 4.59038 12.1119 4.91173C12.2119 5.23308 12.2521 5.5693 12.2322 5.92039C12.2053 6.26308 12.1229 6.56222 11.9852 6.81783C11.8476 7.07343 11.6841 7.30741 11.495 7.51978C11.3059 7.73215 11.1033 7.91603 10.8873 8.07142C10.6713 8.22682 10.4667 8.38703 10.2735 8.55205C10.0802 8.71707 9.92264 8.87707 9.80072 9.03204C9.6788 9.187 9.60536 9.37322 9.58039 9.59068C9.55708 9.88664 9.64229 10.148 9.83601 10.3749L15.7661 17.319C15.9598 17.5459 16.2046 17.6709 16.5006 17.6942C16.7031 17.7102 16.8946 17.6665 17.0752 17.5632C17.2557 17.4598 17.4423 17.3296 17.6349 17.1723C17.8276 17.0151 18.0175 16.842 18.2048 16.653C18.3921 16.464 18.6057 16.2888 18.8457 16.1275C19.0857 15.9661 19.3385 15.841 19.6041 15.7523C19.8697 15.6635 20.1819 15.6293 20.5408 15.6497ZM18.9206 23.8329C19.4813 23.8771 19.9526 23.8633 20.3345 23.7915C20.7163 23.7197 21.0709 23.5948 21.3984 23.4168C21.7259 23.2389 22.0415 23.0129 22.3452 22.7391C22.6489 22.4652 23.0063 22.1564 23.4173 21.8126C23.6442 21.6189 23.7693 21.374 23.7926 21.0781C23.8036 20.9379 23.762 20.77 23.6677 20.5745C23.5733 20.379 23.4413 20.1648 23.2716 19.932C23.1018 19.6992 22.9201 19.4694 22.7264 19.2426C22.5327 19.0157 22.3311 18.7883 22.1218 18.5602C21.9125 18.3321 21.7284 18.1334 21.5693 17.9642C21.4102 17.7949 21.2769 17.6473 21.1692 17.5212C20.9755 17.2944 20.7268 17.169 20.423 17.1451C20.2205 17.1291 20.029 17.1728 19.8485 17.2761C19.6679 17.3795 19.4852 17.5101 19.3004 17.6679C19.1155 17.8258 18.9256 17.9989 18.7305 18.1873C18.5354 18.3757 18.3179 18.5505 18.0779 18.7119C17.8379 18.8732 17.5852 18.9983 17.3195 19.0871C17.0539 19.1759 16.7417 19.21 16.3828 19.1896C16.0401 19.1626 15.7179 19.0746 15.4162 18.9254C15.1145 18.7762 14.8488 18.5672 14.6192 18.2984L8.68916 11.3543C8.46674 11.0938 8.30549 10.8029 8.20541 10.4816C8.10533 10.1602 8.0652 9.82399 8.08502 9.47289C8.11201 9.13021 8.19435 8.83106 8.33204 8.57546C8.46972 8.31985 8.63313 8.08587 8.82226 7.8735C9.0114 7.66114 9.21396 7.47725 9.42995 7.32186C9.64595 7.16647 9.85087 7.00236 10.0447 6.82955C10.2386 6.65674 10.3962 6.49674 10.5175 6.34957C10.6388 6.20239 10.7119 6.02007 10.7369 5.8026C10.7608 5.49886 10.6759 5.23356 10.4822 5.00671C10.3889 4.89749 10.2675 4.74687 10.1181 4.55485C9.96865 4.36284 9.80127 4.14982 9.61595 3.91579C9.43063 3.68177 9.23752 3.44713 9.03662 3.21188C8.83572 2.97663 8.6336 2.75695 8.43025 2.55285C8.22689 2.34876 8.03964 2.18903 7.86848 2.07367C7.69732 1.95831 7.53448 1.88671 7.37993 1.85886C7.08398 1.83555 6.82257 1.92076 6.59572 2.11448L5.52449 3.02928C5.21362 3.29476 4.94108 3.57108 4.70687 3.85827C4.47266 4.14545 4.29021 4.47198 4.15951 4.83784C4.02882 5.20371 3.93749 5.66672 3.88553 6.22687C3.81683 7.09917 3.88616 8.00977 4.09354 8.95867C4.30092 9.90757 4.62124 10.8654 5.05448 11.8321C5.48772 12.7987 6.01176 13.7569 6.62659 14.7066C7.24142 15.6562 7.92193 16.5679 8.66812 17.4417C9.41431 18.3155 10.2089 19.1226 11.0518 19.8629C11.8947 20.6033 12.7599 21.2592 13.6475 21.8306C14.535 22.4021 15.4237 22.86 16.3135 23.2044C17.2032 23.5487 18.0723 23.7583 18.9206 23.8329Z" fill="white"/>
</svg>
