<svg viewBox="0 0 515 256" fill="none" xmlns="http://www.w3.org/2000/svg">
<mask id="path-1-inside-1" fill="white">
<path fill-rule="evenodd" clip-rule="evenodd" d="M29.8204 253.361C12.4345 247.118 0 230.487 0 210.952C0 186.073 20.1683 165.905 45.0472 165.905C45.1305 165.905 45.2137 165.905 45.2969 165.906C48.3642 129.291 79.0541 100.532 116.461 100.532C119.47 100.532 122.435 100.718 125.345 101.079C135.133 43.6879 185.11 0 245.291 0C275.839 0 303.758 11.2568 325.125 29.8487C371.102 32.451 409.738 62.4986 424.909 103.867C450.278 114.466 468.95 137.898 472.808 166.051C495.978 167.912 514.2 187.304 514.2 210.952C514.2 232.095 499.635 249.836 479.991 254.687C477.822 255.535 475.461 256.001 472.992 256.001H39.5499C35.9999 256.001 32.6745 255.039 29.8204 253.361Z"/>
</mask>
<path fill-rule="evenodd" clip-rule="evenodd" d="M29.8204 253.361C12.4345 247.118 0 230.487 0 210.952C0 186.073 20.1683 165.905 45.0472 165.905C45.1305 165.905 45.2137 165.905 45.2969 165.906C48.3642 129.291 79.0541 100.532 116.461 100.532C119.47 100.532 122.435 100.718 125.345 101.079C135.133 43.6879 185.11 0 245.291 0C275.839 0 303.758 11.2568 325.125 29.8487C371.102 32.451 409.738 62.4986 424.909 103.867C450.278 114.466 468.95 137.898 472.808 166.051C495.978 167.912 514.2 187.304 514.2 210.952C514.2 232.095 499.635 249.836 479.991 254.687C477.822 255.535 475.461 256.001 472.992 256.001H39.5499C35.9999 256.001 32.6745 255.039 29.8204 253.361Z" fill="white"/>
<path d="M29.8204 253.361L30.8339 251.637L30.6725 251.542L30.4964 251.479L29.8204 253.361ZM45.2969 165.906L45.2859 167.906L47.1355 167.916L47.2899 166.073L45.2969 165.906ZM125.345 101.079L125.099 103.064L126.995 103.299L127.317 101.415L125.345 101.079ZM325.125 29.8487L323.813 31.3575L324.329 31.8068L325.012 31.8455L325.125 29.8487ZM424.909 103.867L423.031 104.556L423.332 105.376L424.138 105.713L424.909 103.867ZM472.808 166.051L470.827 166.323L471.045 167.916L472.648 168.045L472.808 166.051ZM479.991 254.687L479.511 252.746L479.384 252.777L479.262 252.825L479.991 254.687ZM30.4964 251.479C13.8795 245.512 2 229.617 2 210.952H-2C-2 231.358 10.9895 248.724 29.1445 255.243L30.4964 251.479ZM2 210.952C2 187.178 21.2729 167.905 45.0472 167.905V163.905C19.0637 163.905 -2 184.969 -2 210.952H2ZM45.0472 167.905C45.1271 167.905 45.2066 167.905 45.2859 167.906L45.3079 163.906C45.2208 163.905 45.1339 163.905 45.0472 163.905V167.905ZM47.2899 166.073C50.2712 130.486 80.1027 102.532 116.461 102.532V98.5316C78.0055 98.5316 46.4573 128.097 43.3039 165.739L47.2899 166.073ZM116.461 102.532C119.387 102.532 122.27 102.713 125.099 103.064L125.592 99.094C122.599 98.7227 119.552 98.5316 116.461 98.5316V102.532ZM127.317 101.415C136.944 44.9689 186.101 2 245.291 2V-2C184.119 -2 133.323 42.4069 123.374 100.743L127.317 101.415ZM245.291 2C275.338 2 302.795 13.0703 323.813 31.3575L326.438 28.3399C304.72 9.44337 276.339 -2 245.291 -2V2ZM325.012 31.8455C370.171 34.4015 408.127 63.9158 423.031 104.556L426.787 103.179C411.348 61.0813 372.033 30.5005 325.238 27.8519L325.012 31.8455ZM424.138 105.713C448.869 116.044 467.067 138.888 470.827 166.323L474.79 165.78C470.833 136.909 451.688 112.887 425.68 102.022L424.138 105.713ZM472.648 168.045C494.787 169.822 512.2 188.355 512.2 210.952H516.2C516.2 186.253 497.169 166.001 472.968 164.058L472.648 168.045ZM512.2 210.952C512.2 231.154 498.283 248.109 479.511 252.746L480.47 256.629C500.986 251.562 516.2 233.036 516.2 210.952H512.2ZM479.262 252.825C477.322 253.583 475.208 254.001 472.992 254.001V258.001C475.714 258.001 478.322 257.487 480.719 256.55L479.262 252.825ZM472.992 254.001H39.5499V258.001H472.992V254.001ZM39.5499 254.001C36.3659 254.001 33.3892 253.139 30.8339 251.637L28.8069 255.085C31.9599 256.939 35.6339 258.001 39.5499 258.001V254.001Z" fill="black" mask="url(#path-1-inside-1)"/>
</svg>
