<svg width="510" height="198" viewBox="0 0 510 198" fill="none" xmlns="http://www.w3.org/2000/svg">
<mask id="path-1-inside-1" fill="white">
<path d="M97.0221 56.9968C97.9885 48.8031 92.0631 41.1968 83.8664 42.137C78.8815 42.7088 73.9635 43.8622 69.2149 45.5854C59.7641 49.0149 51.2458 54.6063 44.34 61.9131C37.4343 69.2199 32.3322 78.0399 29.4411 87.6691C26.55 97.2983 25.95 107.47 27.6888 117.372C29.4276 127.275 33.4572 136.633 39.456 144.701C45.4547 152.77 53.2564 159.324 62.2385 163.841C71.2205 168.358 81.134 170.712 91.1879 170.717C96.2395 170.719 101.256 170.128 106.138 168.967C114.164 167.059 117.144 157.889 113.444 150.514C109.744 143.14 100.625 140.543 92.3791 140.82C91.987 140.833 91.5943 140.839 91.2013 140.839C85.8046 140.837 80.4831 139.573 75.6618 137.148C70.8404 134.724 66.6526 131.205 63.4326 126.875C60.2126 122.544 58.0496 117.52 57.1162 112.205C56.1828 106.889 56.5049 101.43 58.0568 96.2608C59.6087 91.092 62.3474 86.3576 66.0543 82.4354C69.7611 78.5133 74.3336 75.5119 79.4066 73.671C79.7761 73.537 80.1475 73.4093 80.5206 73.2881C88.3675 70.7392 96.0557 65.1905 97.0221 56.9968Z"/>
</mask>
<path d="M97.0221 56.9968C97.9885 48.8031 92.0631 41.1968 83.8664 42.137C78.8815 42.7088 73.9635 43.8622 69.2149 45.5854C59.7641 49.0149 51.2458 54.6063 44.34 61.9131C37.4343 69.2199 32.3322 78.0399 29.4411 87.6691C26.55 97.2983 25.95 107.47 27.6888 117.372C29.4276 127.275 33.4572 136.633 39.456 144.701C45.4547 152.77 53.2564 159.324 62.2385 163.841C71.2205 168.358 81.134 170.712 91.1879 170.717C96.2395 170.719 101.256 170.128 106.138 168.967C114.164 167.059 117.144 157.889 113.444 150.514C109.744 143.14 100.625 140.543 92.3791 140.82C91.987 140.833 91.5943 140.839 91.2013 140.839C85.8046 140.837 80.4831 139.573 75.6618 137.148C70.8404 134.724 66.6526 131.205 63.4326 126.875C60.2126 122.544 58.0496 117.52 57.1162 112.205C56.1828 106.889 56.5049 101.43 58.0568 96.2608C59.6087 91.092 62.3474 86.3576 66.0543 82.4354C69.7611 78.5133 74.3336 75.5119 79.4066 73.671C79.7761 73.537 80.1475 73.4093 80.5206 73.2881C88.3675 70.7392 96.0557 65.1905 97.0221 56.9968Z" fill="black" stroke="white" stroke-width="2" mask="url(#path-1-inside-1)"/>
<mask id="path-2-inside-2" fill="white">
<path d="M424.022 41.9968C424.989 33.8031 419.063 26.1968 410.866 27.137C405.882 27.7088 400.964 28.8622 396.215 30.5854C386.764 34.0149 378.246 39.6063 371.34 46.9131C364.434 54.2199 359.332 63.0399 356.441 72.6691C353.55 82.2983 352.95 92.47 354.689 102.372C356.428 112.275 360.457 121.633 366.456 129.701C372.455 137.77 380.256 144.324 389.238 148.841C398.22 153.358 408.134 155.712 418.188 155.717C423.239 155.719 428.256 155.128 433.138 153.967C441.164 152.059 444.144 142.889 440.444 135.514C436.744 128.14 427.625 125.543 419.379 125.82C418.987 125.833 418.594 125.839 418.201 125.839C412.805 125.837 407.483 124.573 402.662 122.148C397.84 119.724 393.653 116.205 390.433 111.875C387.213 107.544 385.05 102.52 384.116 97.2049C383.183 91.8895 383.505 86.4295 385.057 81.2608C386.609 76.092 389.347 71.3576 393.054 67.4354C396.761 63.5133 401.334 60.5119 406.407 58.671C406.776 58.537 407.147 58.4093 407.521 58.2881C415.367 55.7392 423.056 50.1905 424.022 41.9968Z"/>
</mask>
<path d="M424.022 41.9968C424.989 33.8031 419.063 26.1968 410.866 27.137C405.882 27.7088 400.964 28.8622 396.215 30.5854C386.764 34.0149 378.246 39.6063 371.34 46.9131C364.434 54.2199 359.332 63.0399 356.441 72.6691C353.55 82.2983 352.95 92.47 354.689 102.372C356.428 112.275 360.457 121.633 366.456 129.701C372.455 137.77 380.256 144.324 389.238 148.841C398.22 153.358 408.134 155.712 418.188 155.717C423.239 155.719 428.256 155.128 433.138 153.967C441.164 152.059 444.144 142.889 440.444 135.514C436.744 128.14 427.625 125.543 419.379 125.82C418.987 125.833 418.594 125.839 418.201 125.839C412.805 125.837 407.483 124.573 402.662 122.148C397.84 119.724 393.653 116.205 390.433 111.875C387.213 107.544 385.05 102.52 384.116 97.2049C383.183 91.8895 383.505 86.4295 385.057 81.2608C386.609 76.092 389.347 71.3576 393.054 67.4354C396.761 63.5133 401.334 60.5119 406.407 58.671C406.776 58.537 407.147 58.4093 407.521 58.2881C415.367 55.7392 423.056 50.1905 424.022 41.9968Z" fill="black" stroke="white" stroke-width="2" mask="url(#path-2-inside-2)"/>
</svg>
