<svg width="485" height="211" viewBox="0 0 485 211" fill="none" xmlns="http://www.w3.org/2000/svg">
<mask id="path-1-inside-1" fill="white">
<path d="M97.0221 69.9968C97.9885 61.8031 92.0631 54.1968 83.8664 55.137C78.8815 55.7088 73.9635 56.8622 69.2149 58.5854C59.7641 62.0149 51.2458 67.6063 44.34 74.9131C37.4343 82.2199 32.3322 91.0399 29.4411 100.669C26.55 110.298 25.95 120.47 27.6888 130.372C29.4276 140.275 33.4572 149.633 39.456 157.701C45.4547 165.77 53.2564 172.324 62.2385 176.841C71.2205 181.358 81.134 183.712 91.1879 183.717C96.2395 183.719 101.256 183.128 106.138 181.967C114.164 180.059 117.144 170.889 113.444 163.514C109.744 156.14 100.625 153.543 92.3791 153.82C91.987 153.833 91.5943 153.839 91.2013 153.839C85.8046 153.837 80.4831 152.573 75.6618 150.148C70.8404 147.724 66.6526 144.205 63.4326 139.875C60.2126 135.544 58.0496 130.52 57.1162 125.205C56.1828 119.889 56.5049 114.43 58.0568 109.261C59.6087 104.092 62.3474 99.3576 66.0543 95.4354C69.7611 91.5133 74.3336 88.5119 79.4066 86.671C79.7761 86.537 80.1475 86.4093 80.5206 86.2881C88.3675 83.7392 96.0557 78.1905 97.0221 69.9968Z"/>
</mask>
<path d="M97.0221 69.9968C97.9885 61.8031 92.0631 54.1968 83.8664 55.137C78.8815 55.7088 73.9635 56.8622 69.2149 58.5854C59.7641 62.0149 51.2458 67.6063 44.34 74.9131C37.4343 82.2199 32.3322 91.0399 29.4411 100.669C26.55 110.298 25.95 120.47 27.6888 130.372C29.4276 140.275 33.4572 149.633 39.456 157.701C45.4547 165.77 53.2564 172.324 62.2385 176.841C71.2205 181.358 81.134 183.712 91.1879 183.717C96.2395 183.719 101.256 183.128 106.138 181.967C114.164 180.059 117.144 170.889 113.444 163.514C109.744 156.14 100.625 153.543 92.3791 153.82C91.987 153.833 91.5943 153.839 91.2013 153.839C85.8046 153.837 80.4831 152.573 75.6618 150.148C70.8404 147.724 66.6526 144.205 63.4326 139.875C60.2126 135.544 58.0496 130.52 57.1162 125.205C56.1828 119.889 56.5049 114.43 58.0568 109.261C59.6087 104.092 62.3474 99.3576 66.0543 95.4354C69.7611 91.5133 74.3336 88.5119 79.4066 86.671C79.7761 86.537 80.1475 86.4093 80.5206 86.2881C88.3675 83.7392 96.0557 78.1905 97.0221 69.9968Z" fill="black" stroke="white" stroke-width="2" mask="url(#path-1-inside-1)"/>
<mask id="path-2-inside-2" fill="white">
<path d="M399.022 41.9968C399.989 33.8031 394.063 26.1968 385.866 27.137C380.882 27.7088 375.964 28.8622 371.215 30.5854C361.764 34.0149 353.246 39.6063 346.34 46.9131C339.434 54.2199 334.332 63.0399 331.441 72.6691C328.55 82.2983 327.95 92.47 329.689 102.372C331.428 112.275 335.457 121.633 341.456 129.701C347.455 137.77 355.256 144.324 364.238 148.841C373.22 153.358 383.134 155.712 393.188 155.717C398.239 155.719 403.256 155.128 408.138 153.967C416.164 152.059 419.144 142.889 415.444 135.514C411.744 128.14 402.625 125.543 394.379 125.82C393.987 125.833 393.594 125.839 393.201 125.839C387.805 125.837 382.483 124.573 377.662 122.148C372.84 119.724 368.653 116.205 365.433 111.875C362.213 107.544 360.05 102.52 359.116 97.2049C358.183 91.8895 358.505 86.4295 360.057 81.2608C361.609 76.092 364.347 71.3576 368.054 67.4354C371.761 63.5133 376.334 60.5119 381.407 58.671C381.776 58.537 382.147 58.4093 382.521 58.2881C390.367 55.7392 398.056 50.1905 399.022 41.9968Z"/>
</mask>
<path d="M399.022 41.9968C399.989 33.8031 394.063 26.1968 385.866 27.137C380.882 27.7088 375.964 28.8622 371.215 30.5854C361.764 34.0149 353.246 39.6063 346.34 46.9131C339.434 54.2199 334.332 63.0399 331.441 72.6691C328.55 82.2983 327.95 92.47 329.689 102.372C331.428 112.275 335.457 121.633 341.456 129.701C347.455 137.77 355.256 144.324 364.238 148.841C373.22 153.358 383.134 155.712 393.188 155.717C398.239 155.719 403.256 155.128 408.138 153.967C416.164 152.059 419.144 142.889 415.444 135.514C411.744 128.14 402.625 125.543 394.379 125.82C393.987 125.833 393.594 125.839 393.201 125.839C387.805 125.837 382.483 124.573 377.662 122.148C372.84 119.724 368.653 116.205 365.433 111.875C362.213 107.544 360.05 102.52 359.116 97.2049C358.183 91.8895 358.505 86.4295 360.057 81.2608C361.609 76.092 364.347 71.3576 368.054 67.4354C371.761 63.5133 376.334 60.5119 381.407 58.671C381.776 58.537 382.147 58.4093 382.521 58.2881C390.367 55.7392 398.056 50.1905 399.022 41.9968Z" fill="black" stroke="white" stroke-width="2" mask="url(#path-2-inside-2)"/>
</svg>
