<?xml version="1.0" encoding="utf-8"?>
<!-- Generator: Adobe Illustrator 22.0.1, SVG Export Plug-In . SVG Version: 6.00 Build 0)  -->
<svg version="1.1" id="Слой_1" xmlns="http://www.w3.org/2000/svg" xmlns:xlink="http://www.w3.org/1999/xlink" x="0px" y="0px"
	 viewBox="0 0 1621 914.3" style="enable-background:new 0 0 1621 914.3;" xml:space="preserve">
<style type="text/css">
	.st0{fill:#FFFFFF;}
</style>
<path class="st0" d="M352.5,0.7L0,0.2l0,691.5v222.5l495.4-222.5L850,169.2l754-103.5V28.2L352.5,0.7z M1024.6,102.3
	c-5.5,9.5-17.6,12.7-27.1,7.3c-9.5-5.5-12.7-17.6-7.3-27.1c5.5-9.5,17.6-12.7,27.1-7.3C1026.9,80.7,1030.1,92.8,1024.6,102.3z
	 M1354.4,87.1c-5.5,9.5-17.6,12.7-27.1,7.3c-9.5-5.5-12.7-17.6-7.3-27.1c5.5-9.5,17.6-12.7,27.1-7.3
	C1356.6,65.5,1359.9,77.7,1354.4,87.1z"/>
</svg>
