<?xml version="1.0" encoding="utf-8"?>
<!-- Generator: Adobe Illustrator 22.0.1, SVG Export Plug-In . SVG Version: 6.00 Build 0)  -->
<svg version="1.1" id="Слой_1" xmlns="http://www.w3.org/2000/svg" xmlns:xlink="http://www.w3.org/1999/xlink" x="0px" y="0px"
	 viewBox="0 0 414.4 184" style="enable-background:new 0 0 414.4 184;" xml:space="preserve">
<style type="text/css">
	.st0{fill:#FFFFFF;}
	.st1{fill:#FFFFFF;filter:url(#Adobe_OpacityMaskFilter);}
	.st2{mask:url(#path-4-inside-1_1_);stroke:#FFFFFF;stroke-width:2;}
	.st3{fill:#FFFFFF;filter:url(#Adobe_OpacityMaskFilter_1_);}
	.st4{mask:url(#path-6-inside-2_1_);stroke:#FFFFFF;stroke-width:2;}
</style>
<circle class="st0" cx="342.1" cy="20.1" r="19.8"/>
<circle class="st0" cx="343.6" cy="128.5" r="19.8"/>
<circle class="st0" cx="19.6" cy="159.5" r="19.8"/>
<defs>
	<filter id="Adobe_OpacityMaskFilter" filterUnits="userSpaceOnUse" x="323.5" y="10.1" >
		<feColorMatrix  type="matrix" values="1 0 0 0 0  0 1 0 0 0  0 0 1 0 0  0 0 0 1 0"/>
	</filter>
</defs>
<mask maskUnits="userSpaceOnUse" x="323.5" y="10.1" width="91.6" height="131" id="path-4-inside-1_1_">
	<path class="st1" d="M326.4,31.8c-3.9-7.3-1.1-16.5,6.9-18.6c5.9-1.5,12-2.2,18.1-2.1c11.1,0.3,22,3.5,31.5,9.2
		c9.5,5.7,17.4,13.9,22.9,23.6c5.5,9.7,8.3,20.6,8.3,31.8c0,11.1-2.9,22.1-8.4,31.8c-5.5,9.7-13.4,17.8-23,23.5
		c-9.6,5.7-20.4,8.9-31.6,9.1c-6.1,0.1-12.2-0.6-18.1-2.1c-8-2.1-10.7-11.4-6.8-18.6c3.9-7.3,13.1-9.6,21.3-9.2
		c1,0.1,1.9,0.1,2.9,0.1c6-0.1,11.8-1.8,16.9-4.9c5.1-3.1,9.4-7.4,12.3-12.6c3-5.2,4.5-11.1,4.5-17c0-6-1.5-11.9-4.5-17.1
		c-2.9-5.2-7.2-9.6-12.3-12.6c-5.1-3.1-10.9-4.8-16.9-5c-1,0-1.9,0-2.9,0C339.5,41.5,330.3,39.1,326.4,31.8z"/>
</mask>
<path class="st2" d="M326.4,31.8c-3.9-7.3-1.1-16.5,6.9-18.6c5.9-1.5,12-2.2,18.1-2.1c11.1,0.3,22,3.5,31.5,9.2
	c9.5,5.7,17.4,13.9,22.9,23.6c5.5,9.7,8.3,20.6,8.3,31.8c0,11.1-2.9,22.1-8.4,31.8c-5.5,9.7-13.4,17.8-23,23.5
	c-9.6,5.7-20.4,8.9-31.6,9.1c-6.1,0.1-12.2-0.6-18.1-2.1c-8-2.1-10.7-11.4-6.8-18.6c3.9-7.3,13.1-9.6,21.3-9.2
	c1,0.1,1.9,0.1,2.9,0.1c6-0.1,11.8-1.8,16.9-4.9c5.1-3.1,9.4-7.4,12.3-12.6c3-5.2,4.5-11.1,4.5-17c0-6-1.5-11.9-4.5-17.1
	c-2.9-5.2-7.2-9.6-12.3-12.6c-5.1-3.1-10.9-4.8-16.9-5c-1,0-1.9,0-2.9,0C339.5,41.5,330.3,39.1,326.4,31.8z"/>
<circle class="st0" cx="43.1" cy="64.1" r="19.8"/>
<defs>
	<filter id="Adobe_OpacityMaskFilter_1_" filterUnits="userSpaceOnUse" x="0.2" y="54.1" width="115.9" height="131">
		<feColorMatrix  type="matrix" values="1 0 0 0 0  0 1 0 0 0  0 0 1 0 0  0 0 0 1 0"/>
	</filter>
</defs>
<mask maskUnits="userSpaceOnUse" x="0.2" y="54.1" width="115.9" height="131" id="path-6-inside-2_1_">
	<path class="st3" d="M29.2,74.9c-3.6-7.4-0.4-16.6,7.6-18.3c7.2-1.6,14.7-1.9,22.2-0.9c12.4,1.6,24,6.8,33.5,14.9
		c9.5,8.1,16.4,18.8,19.9,30.8c3.5,12,3.5,24.7-0.1,36.7c-3.6,12-10.6,22.6-20.1,30.7c-9.5,8.1-21.2,13.2-33.6,14.8
		c-12.4,1.6-25-0.5-36.2-6c-6.7-3.3-12.8-7.7-18-13c-5.8-5.9-3.4-15.2,3.7-19.5c7.1-4.3,16.2-1.6,23,3.1c1.4,0.9,2.8,1.8,4.4,2.5
		c6,2.9,12.8,4,19.4,3.2c6.7-0.8,12.9-3.6,18-7.9c5.1-4.3,8.9-10.1,10.8-16.5c1.9-6.4,1.9-13.3,0.1-19.7
		c-1.9-6.4-5.6-12.2-10.7-16.5c-5.1-4.4-11.3-7.1-18-8c-1.7-0.2-3.4-0.3-5-0.3C41.9,85.1,32.8,82.3,29.2,74.9z"/>
</mask>
<path class="st4" d="M29.2,74.9c-3.6-7.4-0.4-16.6,7.6-18.3c7.2-1.6,14.7-1.9,22.2-0.9c12.4,1.6,24,6.8,33.5,14.9
	c9.5,8.1,16.4,18.8,19.9,30.8c3.5,12,3.5,24.7-0.1,36.7c-3.6,12-10.6,22.6-20.1,30.7c-9.5,8.1-21.2,13.2-33.6,14.8
	c-12.4,1.6-25-0.5-36.2-6c-6.7-3.3-12.8-7.7-18-13c-5.8-5.9-3.4-15.2,3.7-19.5c7.1-4.3,16.2-1.6,23,3.1c1.4,0.9,2.8,1.8,4.4,2.5
	c6,2.9,12.8,4,19.4,3.2c6.7-0.8,12.9-3.6,18-7.9c5.1-4.3,8.9-10.1,10.8-16.5c1.9-6.4,1.9-13.3,0.1-19.7c-1.9-6.4-5.6-12.2-10.7-16.5
	c-5.1-4.4-11.3-7.1-18-8c-1.7-0.2-3.4-0.3-5-0.3C41.9,85.1,32.8,82.3,29.2,74.9z"/>
</svg>
