<svg width="508" height="194" viewBox="0 0 508 194" fill="none" xmlns="http://www.w3.org/2000/svg">
<circle cx="109.42" cy="157.631" r="19.8118" transform="rotate(30 109.42 157.631)" fill="white"/>
<circle cx="440.33" cy="139.979" r="19.8118" transform="rotate(30 440.33 139.979)" fill="white"/>
<mask id="path-3-inside-1" fill="white">
<path d="M425.115 137.305C426.115 145.494 433.671 151.483 441.413 148.63C446.242 146.851 450.857 144.493 455.155 141.598C463.601 135.906 470.579 128.295 475.518 119.388C480.457 110.481 483.217 100.531 483.571 90.3527C483.926 80.1741 481.865 70.0563 477.557 60.8274C473.249 51.5985 466.817 43.5209 458.787 37.2558C450.757 30.9907 441.358 26.7162 431.358 24.7822C421.359 22.8482 411.044 23.3097 401.257 26.1288C396.277 27.5632 391.506 29.5873 387.041 32.146C379.883 36.2481 379.62 45.8865 385.256 51.9121C390.892 57.9378 400.373 57.8484 408.203 55.2493C408.641 55.1039 409.083 54.9671 409.527 54.8391C414.78 53.3258 420.317 53.0781 425.685 54.1162C431.052 55.1544 436.098 57.4488 440.408 60.8118C444.718 64.1748 448.171 68.5107 450.483 73.4646C452.796 78.4185 453.902 83.8495 453.712 89.3132C453.522 94.7769 452.04 100.118 449.389 104.899C446.738 109.68 442.992 113.765 438.458 116.82C438.075 117.079 437.686 117.329 437.294 117.572C430.273 121.905 424.115 129.115 425.115 137.305Z"/>
</mask>
<path d="M425.115 137.305C426.115 145.494 433.671 151.483 441.413 148.63C446.242 146.851 450.857 144.493 455.155 141.598C463.601 135.906 470.579 128.295 475.518 119.388C480.457 110.481 483.217 100.531 483.571 90.3527C483.926 80.1741 481.865 70.0563 477.557 60.8274C473.249 51.5985 466.817 43.5209 458.787 37.2558C450.757 30.9907 441.358 26.7162 431.358 24.7822C421.359 22.8482 411.044 23.3097 401.257 26.1288C396.277 27.5632 391.506 29.5873 387.041 32.146C379.883 36.2481 379.62 45.8865 385.256 51.9121C390.892 57.9378 400.373 57.8484 408.203 55.2493C408.641 55.1039 409.083 54.9671 409.527 54.8391C414.78 53.3258 420.317 53.0781 425.685 54.1162C431.052 55.1544 436.098 57.4488 440.408 60.8118C444.718 64.1748 448.171 68.5107 450.483 73.4646C452.796 78.4185 453.902 83.8495 453.712 89.3132C453.522 94.7769 452.04 100.118 449.389 104.899C446.738 109.68 442.992 113.765 438.458 116.82C438.075 117.079 437.686 117.329 437.294 117.572C430.273 121.905 424.115 129.115 425.115 137.305Z" fill="black" stroke="white" stroke-width="2" mask="url(#path-3-inside-1)"/>
<path d="M401.83 55.945C397.445 61.9748 385.3 55.6705 381.281 52.7469C377.261 49.8234 377.557 42.5653 381.942 36.5355C386.327 30.5056 398.766 29.6049 402.785 32.5284C406.805 35.4519 406.215 49.9152 401.83 55.945Z" fill="black"/>
<mask id="path-5-inside-2" fill="white">
<path d="M95.3317 154.806C96.5189 162.971 104.211 168.784 111.885 165.754C116.547 163.914 120.994 161.53 125.131 158.641C133.369 152.888 140.149 145.289 144.93 136.452C149.712 127.614 152.362 117.781 152.67 107.738C152.978 97.6945 150.935 87.718 146.705 78.6039C142.474 69.4898 136.173 61.4901 128.303 55.2427C120.433 48.9954 111.212 44.6731 101.376 42.6205C91.5395 40.568 81.3597 40.8419 71.6481 43.4205C66.7711 44.7154 62.0799 46.5735 57.6651 48.9462C50.3978 52.8521 49.8731 62.4797 55.3429 68.6565C60.8127 74.8332 70.2926 75.0018 78.1907 72.6166C78.5634 72.504 78.9384 72.3977 79.3153 72.2976C84.5284 70.9134 89.9927 70.7664 95.2726 71.8682C100.553 72.97 105.502 75.2901 109.726 78.6435C113.951 81.997 117.333 86.2911 119.604 91.1834C121.875 96.0756 122.972 101.431 122.806 106.822C122.641 112.213 121.218 117.491 118.652 122.235C116.085 126.979 112.446 131.057 108.024 134.146C107.704 134.369 107.381 134.587 107.054 134.799C100.135 139.292 94.1445 146.641 95.3317 154.806Z"/>
</mask>
<path d="M95.3317 154.806C96.5189 162.971 104.211 168.784 111.885 165.754C116.547 163.914 120.994 161.53 125.131 158.641C133.369 152.888 140.149 145.289 144.93 136.452C149.712 127.614 152.362 117.781 152.67 107.738C152.978 97.6945 150.935 87.718 146.705 78.6039C142.474 69.4898 136.173 61.4901 128.303 55.2427C120.433 48.9954 111.212 44.6731 101.376 42.6205C91.5395 40.568 81.3597 40.8419 71.6481 43.4205C66.7711 44.7154 62.0799 46.5735 57.6651 48.9462C50.3978 52.8521 49.8731 62.4797 55.3429 68.6565C60.8127 74.8332 70.2926 75.0018 78.1907 72.6166C78.5634 72.504 78.9384 72.3977 79.3153 72.2976C84.5284 70.9134 89.9927 70.7664 95.2726 71.8682C100.553 72.97 105.502 75.2901 109.726 78.6435C113.951 81.997 117.333 86.2911 119.604 91.1834C121.875 96.0756 122.972 101.431 122.806 106.822C122.641 112.213 121.218 117.491 118.652 122.235C116.085 126.979 112.446 131.057 108.024 134.146C107.704 134.369 107.381 134.587 107.054 134.799C100.135 139.292 94.1445 146.641 95.3317 154.806Z" fill="black" stroke="white" stroke-width="2" mask="url(#path-5-inside-2)"/>
<path d="M75.5 67.5C75.5 74.9558 63.9706 75 59 75C54.0294 75 50 68.9558 50 61.5C50 54.0442 54.0294 48 59 48C63.9706 48 75.5 60.0442 75.5 67.5Z" fill="black"/>
</svg>
