<svg width="17" height="620" viewBox="0 0 17 620" fill="none" xmlns="http://www.w3.org/2000/svg">
<circle cx="8.5" cy="8.5" r="8.5" transform="rotate(90 8.5 8.5)" fill="white"/>
<circle cx="8.5" cy="75.5" r="8.5" transform="rotate(90 8.5 75.5)" fill="#C10000"/>
<circle cx="8.5" cy="142.5" r="8.5" transform="rotate(90 8.5 142.5)" fill="white"/>
<circle cx="8.5" cy="209.5" r="8.5" transform="rotate(90 8.5 209.5)" fill="#C10000"/>
<circle cx="8.5" cy="276.5" r="8.5" transform="rotate(90 8.5 276.5)" fill="#C10000"/>
<circle cx="8.5" cy="343.5" r="8.5" transform="rotate(90 8.5 343.5)" fill="white"/>
<circle cx="8.5" cy="410.5" r="8.5" transform="rotate(90 8.5 410.5)" fill="white"/>
<circle cx="8.5" cy="477.5" r="8.5" transform="rotate(90 8.5 477.5)" fill="white"/>
<circle cx="8.5" cy="544.5" r="8.5" transform="rotate(90 8.5 544.5)" fill="white"/>
<circle cx="8.5" cy="611.5" r="8.5" transform="rotate(90 8.5 611.5)" fill="white"/>
</svg>
