<svg width="58" height="36" viewBox="0 0 58 36" fill="none" xmlns="http://www.w3.org/2000/svg">
<path d="M6.44446 35.4445C2.89034 35.4445 0 32.5541 0 29C0 25.4459 2.89034 22.5555 6.44446 22.5555C9.99858 22.5555 12.8889 25.4459 12.8889 29C12.8889 32.5541 9.99858 35.4445 6.44446 35.4445ZM6.44446 25.7778C4.66901 25.7778 3.22223 27.2213 3.22223 29C3.22223 30.7787 4.66901 32.2222 6.44446 32.2222C8.21991 32.2222 9.66669 30.7787 9.66669 29C9.66669 27.2213 8.21991 25.7778 6.44446 25.7778Z" fill="black"/>
<path d="M22.5548 22.5557C19.0007 22.5557 16.1104 19.6653 16.1104 16.1112C16.1104 12.5571 19.0007 9.66675 22.5548 9.66675C26.1089 9.66675 28.9993 12.5571 28.9993 16.1112C28.9993 19.6653 26.1089 22.5557 22.5548 22.5557ZM22.5548 12.889C20.7794 12.889 19.3326 14.3325 19.3326 16.1112C19.3326 17.8899 20.7794 19.3334 22.5548 19.3334C24.3303 19.3334 25.777 17.8899 25.777 16.1112C25.777 14.3325 24.3303 12.889 22.5548 12.889Z" fill="black"/>
<path d="M41.8881 35.4445C38.3339 35.4445 35.4436 32.5541 35.4436 29C35.4436 25.4459 38.3339 22.5555 41.8881 22.5555C45.4422 22.5555 48.3325 25.4459 48.3325 29C48.3325 32.5541 45.4422 35.4445 41.8881 35.4445ZM41.8881 25.7778C40.1126 25.7778 38.6658 27.2213 38.6658 29C38.6658 30.7787 40.1126 32.2222 41.8881 32.2222C43.6635 32.2222 45.1103 30.7787 45.1103 29C45.1103 27.2213 43.6635 25.7778 41.8881 25.7778Z" fill="black"/>
<path d="M51.5548 12.8889C48.0007 12.8889 45.1104 9.99858 45.1104 6.44446C45.1104 2.89034 48.0007 0 51.5548 0C55.1089 0 57.9993 2.89034 57.9993 6.44446C57.9993 9.99858 55.1089 12.8889 51.5548 12.8889ZM51.5548 3.22223C49.7794 3.22223 48.3326 4.66579 48.3326 6.44446C48.3326 8.22313 49.7794 9.66669 51.5548 9.66669C53.3303 9.66669 54.777 8.22313 54.777 6.44446C54.777 4.66579 53.3303 3.22223 51.5548 3.22223Z" fill="black"/>
<path d="M10.1858 27.6147C9.71208 27.6147 9.24486 27.4085 8.92586 27.0089C8.37164 26.3129 8.48441 25.2979 9.18042 24.7437L17.816 17.8449C18.5088 17.2939 19.5238 17.4067 20.0748 18.0994C20.629 18.7954 20.5162 19.8104 19.8202 20.3647L11.1846 27.2635C10.8914 27.4987 10.537 27.6147 10.1858 27.6147Z" fill="black"/>
<path d="M43.7889 26.1966C43.5762 26.1966 43.3603 26.1547 43.1541 26.0677C42.3357 25.7165 41.9554 24.7692 42.3067 23.9507L48.1711 10.2562C48.5223 9.4378 49.4729 9.0608 50.2849 9.4088C51.1033 9.76003 51.4836 10.7074 51.1323 11.5258L45.2679 25.2203C45.0069 25.8325 44.414 26.1966 43.7889 26.1966Z" fill="black"/>
<path d="M37.8601 27.9367C37.5508 27.9367 37.2415 27.8497 36.9676 27.6661L25.6898 20.126C24.9519 19.6298 24.7489 18.6309 25.2451 17.8898C25.7381 17.1519 26.7402 16.9554 27.4781 17.4452L38.7559 24.9852C39.4938 25.4814 39.6968 26.4803 39.2006 27.2214C38.888 27.6854 38.3789 27.9367 37.8601 27.9367Z" fill="black"/>
</svg>
