<?xml version="1.0" encoding="utf-8"?>
<!-- Generator: Adobe Illustrator 22.0.1, SVG Export Plug-In . SVG Version: 6.00 Build 0)  -->
<svg version="1.1" id="Слой_1" xmlns="http://www.w3.org/2000/svg" xmlns:xlink="http://www.w3.org/1999/xlink" x="0px" y="0px"
	 viewBox="0 0 1330.7 1511" style="enable-background:new 0 0 1330.7 1511;" xml:space="preserve">
<style type="text/css">
	.st0{fill:#FFFFFF;}
	.st1{fill:none;stroke:#FFFFFF;}
	.st2{stroke:#FFFFFF;}
	.st3{fill:none;stroke:#000000;}
	.st4{fill:none;}
	.st5{fill:#9C0A0C;}
	.st6{fill:#FFFFFF;stroke:#000000;}
</style>
<path class="st0" d="M633,679.5l4,3l1.7,2.5c0,0,8.4,7.5,13.3,12c5.6,5.1,17,8,17,8l17,21.1c0,0,2.4,6.3,0,8.7
	c-2.4,2.4-7.2,1.5-7.2,1.5l-4.2-3.5c0,0,2,2.1,2.8,3.5c1.6,3,0.3,7.7-1.4,8.7c-3.3,1.9-8.7,0.5-8.7,0.5s0.7,4.8-1.4,6.8
	c-2.5,2.3-7.2-1.5-7.2-1.5l-4-4.4c0,0,0.9,5.3-0.9,7.3c-1.9,2.2-8.2,0-8.2,0l-10.7-12.2c0,0,6.1-9.2,3-14c-1.7-2.6-6-4.5-6-4.5
	s1.7-5.7-1.5-9c-4.9-5-15.9,4-15.9,4s-0.5-5-3.7-7.5c-7.2-2-24.6,4.5-24.6,4.5s-4.6-12.2-12.6-11.5c-4.3,0.4-5.4,1.2-7.5,4.5
	c-0.9,1.5-1.2,2.1-1.2,2.4l0.2,0.1c0,0-0.2,0.1-0.2-0.1l-25.3-17.9v-11l8-37c0,0,23.5-1.3,38.5,0c8.6,0.7,13.5,1.1,22,3
	c11.1,2.5,27.5,9.5,27.5,9.5l-13,3l-6.1,0.6l-3.6,0.4l-8.5,5.5l-6.8,4.2l-0.7,3.3l0.7,4l5.8,3.5l7.5,1.5l8.5-1.5l6-4.5L633,679.5z"
	/>
<path class="st1" d="M603.1,743.8c0.6,2.8-0.7,5.3,1.5,7.3c1.7,1.6,3.5,1.2,5.8,1.5c7.8,0.9,18.9-6.6,18.9-6.6 M603.1,743.8
	c0,0-6.7,3.4-10.2,1.5c-3.3-1.8-4.4-8.7-4.4-8.7 M603.1,743.8l21.8-11.6c1.5-1.9,4.7-6.4,5.8-8.7 M588.5,736.5c0,0-8.5-0.6-11.6-4.4
	c-2.3-2.8-1.8-5.3-2.9-8.7 M588.5,736.5l10.2-2.9l10.2-7.3l4.4-7.3 M574,723.4c-3.3-0.5-5.3-1.7-7.3-4.4c-3-4.1-3.6-9.5,0-13.1
	c3.6-3.6,8.7-2.7,13.1,0c3.5,2.1,5.8,8.7,5.8,8.7 M574,723.4c4-1.1,8.5-1.4,10.2-2.9c1.7-1.6,1.5-5.8,1.5-5.8 M585.6,714.6
	c0,0,11.6-2.9,18.9-4.4c2.8-0.6,5.2-0.6,7.3,1.5c2,2,1.5,7.3,1.5,7.3 M613.3,719c0,0,5.7-5,10.2-5.8c2.2-0.4,3.8-1.1,5.8,0
	c2.2,1.3,2.9,5.3,2.9,5.8c0,0.5-0.3,2-1.5,4.4 M630.7,723.4c0,0,4.2,0.9,5.8,2.9c1.8,2.2,1.6,4.4,1.5,7.3
	c-0.4,5.9-8.7,12.3-8.7,12.3 M629.3,745.9l10.2-9.4l37.8-7.3l34.7-2.7l7.5-49.7h-42.2c0,0-16.9-21.2-32-21.8
	c-7.6-0.3-11.4,3.2-18.9,4.4c-5.1,0.8-13.1,1.5-13.1,1.5l-16,10.2c0,0-1.6,2.8,0,5.8c2.3,4.3,6.6,5.2,11.6,5.8
	c4,0.5,6.5,0.2,10.2-1.5c2.6-1.2,5.8-4.4,5.8-4.4s1.7,1,2.9,1.5c3.2,1.1,5.5,1.1,8.7,0c1.2-0.4,2.9-1.5,2.9-1.5s-3.9,4.9,0,8.7
	c3.9,3.9,14.5,12.5,14.5,12.5s7.1,4,9.5,5c2.4,1,5.4,1.9,9.5,2c4.7,0.2,10.1-2,10.1-2"/>
<path d="M1079,427.1c0,0-123.1,206.7-161.5,216c-38.4,9.3-173.2,27.2-213,33c0,2.7,7.7,49.4,7.6,52l-15.1,0.7l5,34.9
	c0,0,0,1.5,4.4,4.4l154.1-24C876,740.2,971,725.9,971,725.9c39.5-10.9,199-184.3,199-184.3s102.7-69.4,25-114.5
	C1155.8,404.4,1079,427.1,1079,427.1z"/>
<path class="st1" d="M706.4,768.1c2.9-2.9,2.9-4.4,2.9-4.4c0.8-5.8,2.4-20,2.8-35.6 M706.4,768.1c-4.4-2.9-4.4-4.4-4.4-4.4l-5-34.9
	l15.1-0.7 M706.4,768.1l154.1-24C876,740.2,971,725.9,971,725.9c39.5-10.9,199-184.3,199-184.3s102.7-69.4,25-114.5
	c-39.2-22.8-116,0-116,0s-123.1,206.7-161.5,216c-38.4,9.3-173.2,27.2-213,33c0,2.7,7.7,49.4,7.6,52"/>
<path class="st2" d="M1248,344c112,217.5-26.2,344.4,0,562.5c8.1,67.4-67.4,232.8-45.5,313c9,33.2,22.7,64.7,27,108
	c7.1,71.9-18,124.8-27,183H1081v-32c0,0,16.4-162.1,0-215.5c-7.2-23.4-16.6-34.4-26-57c-56.4-135.5-71.9-369-71.9-369l16-267.5
	c0,0-0.7-23.2,0-32c4.4-56.4,63.4-100,81.9-139s-4.7-96.8-28-101.2c-8-1.5-12.5-6.1-16-13.1c-3.5-7,10.2-27.7,10.2-27.7
	s-5.8-4.4-10.2-8.7c-2.3-2.3,4.4-7.3,4.4-7.3s-4.8-3-4.4-5.8c1.5-8.7,13.1-14.1,4.4-20.4c-8.7-6.2-25.6-8.4-20.4-17.5
	c5.8-10.2,23.2-17.7,29.1-37.8c3.9-13.1,5.7-25.6,5.8-39.3c0-4-2.9-22.2,0-22.2c152.9,37.8,212.1-4,216.5-4c4.4,0-1.5,55.3-4.4,78.6
	c-2.9,23.3-6.9,61.1-20,84.4C1234.9,279.8,1227.7,304.6,1248,344z"/>
<ellipse class="st0" cx="1164.5" cy="98.5" rx="110.5" ry="35.5"/>
<path class="st2" d="M1295.7,33c-25.4-17-55.4-29.9-83-32.2c-27.6-2.2-52.8,6.2-68.8,32c-10.2,16.6-17.1,33.6-21.4,46.6
	c-2.2,6.5-3.7,11.9-4.6,15.7c-0.5,1.9-0.8,3.4-1.1,4.4c-0.1,0.5-0.2,0.9-0.3,1.2c0,0.1,0,0.1,0,0.2c0,0,0,0.1,0.1,0.1
	c0.2,0.2,0.4,0.4,0.8,0.8c0.7,0.7,1.9,1.7,3.6,2.8c3.3,2.3,8.7,5.5,16.9,8.6c16.3,6.3,43.8,12.5,88.3,12.2
	c40-0.2,66.1-6.5,82.3-12.6c8.1-3.1,13.6-6.1,17.2-8.4c1.8-1.1,3-2.1,3.9-2.7c0.4-0.3,0.7-0.6,0.9-0.8c0.1-0.1,0.1-0.1,0.2-0.1
	c0-0.1,0-0.2,0-0.3c0-0.3,0.1-0.8,0.1-1.4c0.1-1.2,0.1-2.9,0-5.1c-0.2-4.3-0.8-10.4-2.7-17.2C1324.2,63.2,1315.5,46.2,1295.7,33z"/>
<path class="st0" d="M697,728l14.5-1l0.5,7l-1,10l-1.5,18l-1,3l-2,3l-2.5-2l-2-2.5L697,728z"/>
<path class="st0" d="M997.2,923c5.1-5.8,9.5-7.9,13.5-14.5c2.8-4.5,5.5-12.5,5.5-12.5l30.5,23.5c0,0-4.8,10.4-5,17.5
	c-0.5,21,2.5,41.5,0,54c-0.7,3.6-2.2,5.3-4,8.5c-8.1,14.2-32.5,26.5-32.5,26.5s-14,9.5-23.5,12c-2.3,0.6-6,0-6,0l-7.5-5
	c0,0-1-3,0-4.5c0.8-1.3,2.5-2.5,4-2.5c2,0,8,2.5,8,2.5l5.5-2.5l5.5-6.5l8-7.5l2.5-8.5c0,0,2.8-10.5,2.8-12.5s0.5-5.3,0.7-8
	c0.4-6.1-8.5-11.3-9.5-12.5s-5.1,1.4-8,3c-4.7,2.6-7.6,4.7-10,9.5c-1.4,2.9-0.5,5.2-2,8c-1.1,2-3.5,4.5-3.5,4.5s-7,11-10,13
	c-2.5,1.7-7.5,1.5-7.5,1.5s-3.7-1.1-5-3c-1.6-2.4,0-7.5,0-7.5l5-8.5c0,0,1.7-5.5,3-8c2.5-4.9,9.2-9.3,13.3-16.5
	c3.8-6.9,3.5-11.3,6.7-18.5C982.8,936.7,989.1,932.3,997.2,923z"/>
<path class="st0" d="M979.2,1021.5c1.8,2,5.5,4,5.5,4l6.5-7l7.5-7l-7.5-1.5l-6-3c0,0-2.3-0.7-3.5,0c-1.6,0.9-1.5,4.4-1.5,4.4
	l-0.5-0.4c0,0-1.4-0.1-2.5,0.5c-1.1,0.6-2.2,1.3-2,2.5C975.7,1017.5,977,1019,979.2,1021.5z"/>
<path class="st3" d="M991.2,1018.5l-7.5-4l-3.5-3.1 M991.2,1018.5l-6.5,7c0,0-3.7-2-5.5-4c-2.2-2.5-3.5-4-4-7.5
	c-0.2-1.2,0.9-1.9,2-2.5c1.1-0.6,2.5-0.5,2.5-0.5l0.5,0.4 M991.2,1018.5l7.5-7 M980.2,1011.4c0,0-0.1-3.5,1.5-4.4
	c1.2-0.7,3.5,0,3.5,0l6,3l7.5,1.5 M998.7,1011.5l2.5-9c0,0-3.8,2.3-6.5,2.5c-3,0.2-5.9-2.1-8.5-0.5c-1.4,0.9-1.5,2-1.5,2
	 M1010.7,908.5c-4,6.6-8.4,8.7-13.5,14.5c-8.1,9.3-14.4,13.7-19.5,25c-3.3,7.2-2.9,11.6-6.7,18.5c-4,7.2-10.8,11.6-13.3,16.5
	c-1.3,2.5-3,8-3,8l-5,8.5c0,0-1.6,5.1,0,7.5c1.3,1.9,5,3,5,3s5,0.2,7.5-1.5c3-2,10-13,10-13s2.4-2.5,3.5-4.5c1.5-2.8,0.6-5.1,2-8
	c2.4-4.8,5.3-6.9,10-9.5c2.9-1.6,7-4.2,8-3s9.9,6.4,9.5,12.5c-0.2,2.7-0.7,6-0.7,8s-2.8,12.5-2.8,12.5l-2.5,8.5l-8,7.5l-5.5,6.5
	l-5.5,2.5c0,0-6-2.5-8-2.5c-1.5,0-3.2,1.2-4,2.5c-1,1.5,0,4.5,0,4.5l7.5,5c0,0,3.7,0.6,6,0c9.5-2.5,23.5-12,23.5-12
	s24.4-12.3,32.5-26.5c1.8-3.2,3.3-4.9,4-8.5c2.5-12.5-0.5-33,0-54c0.2-7.1,5-17.5,5-17.5l-30.5-23.5
	C1016.2,896,1013.5,904,1010.7,908.5z"/>
<path class="st4" d="M1120.9,747.7c-20.6,33.8-103.8,142.6-127.8,174.9c6.9,2.7,23.9,11.5,37.1,24.7c4.4,4.4,8.5,8.8,12.3,13.1v19.9
	l11.3,5.1c0,0,1,1,6.2,0c40.2-56.3,64.2-70.3,95.5-122.5c8.2-13.7,42.6-55.1,61.8-94.4c46.5-95.2,10.4-271,10.4-271
	s-1.7-80.5-47.4-82.1c-40.8-1.5-73.3,32.7-73.5,73.5C1106.3,581,1141.5,713.9,1120.9,747.7z"/>
<path class="st5" d="M1120.9,747.7c-20.6,33.8-103.8,142.6-127.8,174.9c6.9,2.7,23.9,11.5,37.1,24.7c4.4,4.4,8.5,8.8,12.3,13.1v19.9
	l11.3,5.1c0,0,1,1,6.2,0c40.2-56.3,64.2-70.3,95.5-122.5c8.2-13.7,42.6-55.1,61.8-94.4c46.5-95.2,10.4-271,10.4-271
	s-1.7-80.5-47.4-82.1c-40.8-1.5-73.3,32.7-73.5,73.5C1106.3,581,1141.5,713.9,1120.9,747.7z"/>
<path class="st3" d="M1060,985.4c0-4.1-1-5.1-1-5.1c-4.1-5.5-15.6-19.8-28.8-32.9c-13.2-13.2-30.2-22-37.1-24.7
	c24-32.3,107.2-141.1,127.8-174.9c20.6-33.8-14.6-166.7-14.2-258.9c0.2-40.8,32.8-75,73.5-73.5c45.7,1.7,47.4,82.1,47.4,82.1
	s36.1,175.9-10.4,271c-19.2,39.3-53.6,80.7-61.8,94.4C1124.2,915.1,1100.2,929.1,1060,985.4z M1060,985.4c-5.2,1-6.2,0-6.2,0
	l-11.3-5.1v-19.9"/>
<path class="st6" d="M45.4,344c-112,217.5,26.2,344.4,0,562.5c-8.1,67.4,67.4,232.9,45.5,313c-9,33.2-22.7,64.7-27,108
	c-7.1,71.9,18,124.8,27,183h121.5v-32c0,0-16.4-162.1,0-215.5c7.2-23.4,16.6-34.4,26-57c56.4-135.5,71.9-369,71.9-369l-16-267.5
	c0,0,0.7-23.2,0-32c-4.4-56.4-63.4-100-81.9-139s26.6-97.3,49.8-101.7c7.9-1.5,12.5-6.1,16-13.1c3.5-7-10.2-27.7-10.2-27.7
	s5.8-4.4,10.2-8.7c2.3-2.3-4.4-7.3-4.4-7.3s4.8-3,4.4-5.8c-1.5-8.7-13.1-14.1-4.4-20.4c8.7-6.2,25.6-8.4,20.4-17.5
	c-5.8-10.2-23.2-17.7-29.1-37.8c-3.9-13.1-5.7-25.6-5.8-39.3c0-4,0-8.7,0-10.2c-152.8,37.8-209.6,0-213.9,0s1.5,55.3,4.4,78.6
	s6.9,61.1,20,84.4C82.9,295.3,65.7,304.6,45.4,344z"/>
<rect x="102" y="1334" class="st0" width="100" height="100"/>
<path class="st0" d="M549.6,642.4c-39.8-5.8-175.6-24-214-33.3c-38.4-9.3-107.5-128.2-173-193.1c-29-28.7-76.2-29.9-104,0
	C27.3,449.5,83,507.6,83,507.6s98.8,149.9,199,184.3c41.4,14.2,94.9,19.2,110.5,23.1c59.1,14.8,85.9,7.7,154.1,19.1
	c-2.9-2.9-2.9-4.4-2.9-4.4c-1-6.8-2.9-25-2.9-43.7S546.6,649.2,549.6,642.4z"/>
<path class="st3" d="M546.6,734.1c-2.9-2.9-2.9-4.4-2.9-4.4c-1-6.8-2.9-25-2.9-43.7s5.8-36.9,8.7-43.7c-39.8-5.8-175.6-24-214-33.3
	c-38.4-9.3-107.5-128.2-173-193.1c-29-28.7-76.2-29.9-104,0C27.3,449.5,83,507.6,83,507.6s98.8,149.9,199,184.3
	c41.4,14.2,94.9,19.2,110.5,23.1C451.6,729.8,478.4,722.7,546.6,734.1z M546.6,734.1c4.4-2.9,4.4-4.4,4.4-4.4l3.5-26.3l-13.6-9.5"/>
<path d="M554.5,703l-13.5-8.5v6.5l1,10l1.5,18l1,3l2,1.5l2.5-0.5l1.5-2.5L554.5,703z"/>
<path class="st1" d="M555.5,703c0,0-2.1,9.5-3.5,14.8c-1.4,5.3-3.5,13.2-3.5,13.2 M548.5,730.5c0,0-0.2,2.1-1,2.5
	c-0.8,0.4-3.5-0.5-3.5-0.5"/>
<path class="st2" d="M103.5,107.5c0,4.7,2.9,9.2,8.3,13.4c5.4,4.2,13.3,8,23.1,11.2c19.6,6.4,46.6,10.4,76.6,10.4s57-4,76.6-10.4
	c9.8-3.2,17.7-7,23.1-11.2c5.4-4.2,8.3-8.7,8.3-13.4s-2.9-9.2-8.3-13.4c-5.4-4.2-13.3-8-23.1-11.2c-19.6-6.4-46.6-10.4-76.6-10.4
	s-57,4-76.6,10.4c-9.8,3.2-17.7,7-23.1,11.2C106.4,98.3,103.5,102.8,103.5,107.5z"/>
<path class="st0" d="M70.9,55.5c53.5-39.3,99.6-30.6,159.1-10.2c21.8,7.5,37.6,28.7,30.2,50.4c-8.5,24.8-70.2,35.3-109.2,35.3
	C39.9,131,45,109.5,45,109.5S57.2,65.6,70.9,55.5z"/>
</svg>
