<svg width="214" height="72" viewBox="0 0 214 72" fill="none" xmlns="http://www.w3.org/2000/svg">
<g clip-path="url(#clip0)">
<path d="M63.3464 31.4517H58.0728V22.0714C58.0728 21.4408 57.8986 21.1255 57.5502 21.1255C57.4552 21.1255 57.2176 21.1255 56.8692 21.1255L52.2925 21.7561C51.8015 21.8349 51.5481 21.961 51.5006 22.1818C51.469 22.3867 51.4531 22.5759 51.4531 22.702V30.3166V31.436H49.4102H48.1274C47.1931 31.436 46.8447 31.5463 47.0664 32.5553L47.8265 35.5192C47.8265 35.5192 48.0166 36.2444 48.7926 36.2444H51.4531V38.1047V39.9335V46.3499V47.8319C51.4531 49.5345 51.5165 50.9691 51.659 52.1358H45.9895V38.6722C45.9895 37.4268 45.9261 36.4493 45.7836 35.7241C45.5302 34.526 45.1026 33.5012 44.485 32.6657C43.8674 31.8301 43.1072 31.2626 42.252 30.963C41.381 30.6477 40.3833 30.5058 39.2431 30.5058C37.5327 30.5058 35.9808 30.8842 34.5555 31.6409C33.9537 31.972 32.8609 32.5868 31.7841 33.4539L31.309 32.1612C31.1189 31.6882 30.8972 31.436 30.4063 31.436H26.4471C25.6711 31.436 25.1168 32.1612 25.1168 32.1612L23.0423 35.1251C22.6305 35.7084 23.0106 36.2601 23.5015 36.2601H25.4177V44.1901H25.4019V52.1673H22.7572C22.7414 52.1673 22.7097 52.1831 22.6938 52.1831C22.6622 52.1831 22.6305 52.1673 22.5988 52.1673H20.16L20.1125 51.9624C19.8591 51.0322 19.9224 50.4331 19.8908 50.1809C19.8591 49.9286 19.8274 49.1404 19.8274 47.8319V38.8614C19.8274 36.6228 19.3682 34.8255 18.418 33.4697C17.0719 31.499 14.7439 30.5216 11.4499 30.5216C9.64449 30.5216 7.49071 31.0891 6.04958 31.5463C5.43195 31.7355 5.11522 32.0666 4.87767 32.5711C3.99082 34.3683 3.0723 36.4178 3.0723 36.4178C2.78724 37.0169 3.15148 37.3164 3.45238 37.2691C3.59491 37.2376 3.78495 37.2061 4.05417 37.1115C4.30756 37.0011 4.65596 36.875 5.06771 36.7489C5.87538 36.4336 6.58803 36.2129 7.25316 36.071C8.29838 35.8345 9.31192 35.7084 10.3255 35.7084C11.7824 35.7084 12.7485 36.1813 13.2394 37.1115C13.4928 37.5844 13.6036 38.4042 13.6036 39.5393V41.1474H12.8593C8.69429 41.1474 5.57448 41.7938 3.49989 43.0707C1.17191 44.4581 0 46.7441 0 49.8813C0 52.5772 0.823503 54.6267 2.45467 56.0456C3.84829 57.2595 5.63783 57.8586 7.83912 57.8586C8.97935 57.8586 10.0721 57.6536 11.1015 57.2595C12.1308 56.8654 13.2236 56.0929 14.3638 54.9578L14.5697 54.7528V55.0681C14.6805 55.683 14.8389 56.1559 15.0606 56.487C15.2823 56.8181 15.6149 56.9757 16.0741 56.9757H22.583C22.6305 56.9757 22.678 56.9757 22.7255 56.9757H22.7414H31.309C31.7049 56.9757 32.0216 56.6604 32.0216 56.2663L32.0058 46.2869V38.0732C32.56 37.5371 33.2569 37.0326 34.112 36.607C34.9831 36.1813 35.759 35.9606 36.4559 35.9606C37.0735 35.9606 37.5486 36.0552 37.8811 36.2759C38.2137 36.4809 38.5146 36.7962 38.7838 37.2061C39.0689 37.616 39.2273 38.0574 39.2748 38.5303C39.3381 39.0033 39.354 39.5866 39.354 40.3276V56.282C39.354 56.6762 39.6865 57.0072 40.0824 57.0072H57.281C57.2968 57.0072 57.3127 57.0072 57.3285 57.0072C57.4552 57.0072 57.5977 57.0072 57.7244 57.0072C58.057 57.0072 58.5479 56.8496 58.8646 56.4082C59.799 55.0996 61.5885 52.7033 61.9211 52.1831C62.2378 51.6943 61.7627 51.4579 61.5569 51.4579C61.4143 51.4579 61.256 51.5052 61.0659 51.584C60.8759 51.6786 60.6225 51.7574 60.2899 51.8205C59.9574 51.8835 59.6881 51.9151 59.4823 51.9151C58.7855 51.9151 58.342 51.5682 58.1362 50.8903C58.0728 50.6538 58.0253 49.9602 58.0253 48.8251V39.9808V36.2601H62.4279C62.9346 36.2601 63.2672 36.0237 63.4097 35.5349L64.1382 32.4765L64.2333 31.9562C64.2808 31.6252 63.964 31.4517 63.3464 31.4517ZM13.5878 51.0637C12.6851 51.9308 11.9408 52.4826 11.3707 52.6876C10.8006 52.9083 10.2304 53.0186 9.67616 53.0186C8.63095 53.0186 7.80744 52.6876 7.17398 52.0412C6.54052 51.379 6.23962 50.5435 6.23962 49.503C6.23962 48.7462 6.41382 48.0841 6.76223 47.5323C7.11063 46.9805 7.56989 46.5391 8.15585 46.208C8.7418 45.877 9.35943 45.6563 9.97706 45.5301C10.5947 45.404 11.6874 45.3567 13.2552 45.3567H13.572V51.0637H13.5878Z" fill="white"/>
<path d="M182.264 27.6997C183.42 27.6997 184.354 27.3213 185.099 26.5488C185.827 25.7763 186.207 24.8462 186.207 23.7268C186.207 22.6075 185.827 21.6773 185.083 20.9364C184.323 20.1796 183.388 19.8013 182.28 19.8013C181.155 19.8013 180.221 20.1796 179.445 20.9521C178.685 21.7246 178.289 22.639 178.289 23.7268C178.289 24.8462 178.669 25.7763 179.445 26.5488C180.205 27.3213 181.14 27.6997 182.264 27.6997Z" fill="white"/>
<path d="M213.523 51.442C213.381 51.442 213.223 51.4893 213.033 51.5682C212.843 51.6627 212.589 51.7416 212.257 51.8046C211.924 51.8677 211.655 51.8992 211.449 51.8992C210.752 51.8992 210.309 51.5524 210.103 50.8745C210.039 50.638 209.992 49.9443 209.992 48.8092V22.024C209.992 21.5353 209.739 21.2988 209.263 21.2988H204.433C203.657 21.2988 203.103 22.024 203.103 22.024L201.028 24.9879C200.601 25.5555 200.997 26.1072 201.472 26.1072H203.388V47.8633C203.388 49.566 203.467 51.0006 203.594 52.1672H198.019C197.909 52.0253 197.829 51.8519 197.766 51.647C197.703 51.4105 197.655 49.9443 197.655 48.7935V36.1182V22.024C197.655 21.5353 197.402 21.2988 196.927 21.2988H192.097C191.321 21.2988 190.766 22.024 190.766 22.024L188.692 24.9879C188.264 25.5555 188.66 26.1072 189.135 26.1072H191.051V35.6925V47.8633C191.051 49.566 191.115 51.0006 191.257 52.1672H185.54V46.3341V44.8837V36.2601V31.83V31.5305C185.54 31.0418 185.287 30.8053 184.812 30.8053H184.495H179.982H179.665C179.19 30.8053 178.936 31.0418 178.936 31.5305V32.1138V36.2601V44.8837V46.3341V52.1672H176.022H175.563H173.362V38.7037C173.362 36.465 173.029 34.7151 172.38 33.4696C171.335 31.499 169.419 30.5215 166.615 30.5215C165.396 30.5215 164.192 30.7422 163.005 31.1994C161.801 31.6408 160.613 32.3976 159.394 33.4696V22.0398C159.394 21.5511 159.141 21.3146 158.665 21.3146H153.835C153.059 21.3146 152.505 22.0398 152.505 22.0398L150.43 25.0037C150.003 25.5712 150.399 26.123 150.874 26.123H152.79V34.6362H152.774V52.183H150.811C150.32 52.183 150.082 52.4352 150.082 52.9082V56.2662C150.082 56.7549 150.335 56.9914 150.811 56.9914H158.65C158.966 56.9914 159.156 56.8968 159.251 56.818C159.331 56.7549 159.378 56.613 159.378 56.2662L159.394 52.1672V38.1361C160.012 37.5528 160.724 37.0326 161.516 36.6069C162.308 36.1812 163.068 35.9605 163.812 35.9605C164.478 35.9605 165.016 36.1182 165.475 36.4335C165.776 36.6384 166.045 36.938 166.283 37.3479C166.505 37.742 166.647 38.1519 166.695 38.5933C166.742 39.019 166.774 39.6023 166.774 40.3275V56.282C166.774 56.7707 167.011 57.0072 167.502 57.0072H175.563H176.038H196.768C196.8 57.0072 196.816 57.0072 196.832 57.0072C197.006 57.0072 197.18 57.0072 197.37 57.0072C197.402 57.0072 197.449 57.0072 197.497 57.0072H209.612C209.644 57.0072 209.675 57.0072 209.707 57.0072C210.039 57.0072 210.53 56.8495 210.847 56.4081C211.781 55.0996 213.571 52.7033 213.904 52.183C214.204 51.6627 213.729 51.442 213.523 51.442Z" fill="white"/>
<path d="M92.5938 36.5913V34.4314C92.5938 32.8864 92.4355 31.7986 92.1029 31.1523C91.4536 29.891 90.1392 29.2604 88.1754 29.2604C86.8135 29.2604 85.4357 29.4181 84.0421 29.7492C83.1552 29.9383 82.1733 30.2379 81.0965 30.6635C80.5422 30.8527 80.0829 31.0104 79.7345 31.1523C79.3861 31.2942 79.1169 31.3572 78.9268 31.3572C78.5943 31.3572 78.3567 31.1207 78.23 30.6635L76.8206 26.4069C76.678 25.9813 76.6147 25.729 76.6147 25.6344C76.6147 25.2718 76.7256 24.988 76.9631 24.7989C77.2007 24.6097 77.6124 24.4047 78.23 24.1682C79.3544 23.7426 80.7005 23.38 82.3 23.0489C84.8339 22.5287 87.3044 22.2764 89.7432 22.2764C94.1933 22.2764 97.329 23.6007 99.1502 26.265C100.417 28.078 101.051 30.5059 101.051 33.5328V45.6248C101.051 46.7757 101.066 47.627 101.082 48.1788V50.5278C101.082 50.5436 101.082 50.5436 101.082 50.5593C101.082 51.0796 101.51 51.4895 102.032 51.4895C102.064 51.4895 102.08 51.4895 102.112 51.4895H102.127H104.503H104.788H108.098V17.0739V16.9635H77.2007C77.1373 16.9635 76.9314 16.9635 76.7256 16.9478C73.2573 22.4656 71.2461 28.9924 71.2461 35.9922C71.2461 41.2736 72.4022 46.2712 74.4451 50.78C74.3184 49.7395 74.255 47.3905 74.4134 46.3658C74.9202 43.1654 76.3772 40.7533 78.9902 39.161C81.7933 37.4426 86.0058 36.5755 91.6278 36.5755H92.5938V36.5913Z" fill="white"/>
<path d="M107.406 0C98.0782 0 89.574 3.51566 83.1602 9.30151H115.958C116.623 9.30151 116.955 9.63258 116.955 10.279V14.4883V17.0738V26.2492C118.587 24.8145 120.218 23.774 121.833 23.175C123.448 22.5759 125.064 22.2606 126.711 22.2606C130.496 22.2606 133.093 23.5848 134.502 26.2492C135.389 27.9203 135.833 30.2851 135.833 33.312V51.4106H140.093C142.326 46.744 143.577 41.51 143.577 35.9921C143.577 16.1121 127.376 0 107.406 0Z" fill="white"/>
<path d="M130.288 57.9689H127.897C127.248 57.9689 126.915 57.6378 126.915 56.9915V35.4719C126.915 34.4944 126.884 33.7219 126.82 33.1386C126.741 32.5553 126.567 32.0035 126.25 31.4675C125.949 30.9315 125.585 30.5216 125.157 30.2378C124.556 29.8121 123.795 29.6072 122.909 29.6072C121.927 29.6072 120.897 29.9067 119.82 30.4743C118.744 31.0576 117.778 31.7355 116.938 32.5395V51.4736H120.517C121.167 51.4736 121.499 51.8047 121.499 52.4511V56.9915C121.499 57.4644 121.436 57.7324 121.325 57.827C121.214 57.9216 120.945 57.9689 120.517 57.9689H104.728H104.443H96.9207H96.7148C96.6832 57.9689 96.6515 57.9689 96.6357 57.9531C95.1312 57.9058 93.9276 56.6919 93.9276 55.1784C93.9276 55.0996 93.9276 55.0366 93.9434 54.9577L93.6584 55.2415C92.1064 56.7707 90.6336 57.8112 89.2558 58.3473C87.878 58.8833 86.4052 59.1513 84.8532 59.1513C84.3465 59.1513 81.9551 59.1198 81.48 59.0725C80.7674 58.9936 80.0864 58.9621 79.4846 58.8518C86.1202 66.8763 96.1764 72 107.42 72C119.076 72 129.449 66.4979 136.053 57.9689H132.743H130.288Z" fill="white"/>
<path d="M85.2964 43.4807C84.5046 43.9222 83.8711 44.5212 83.396 45.2622C82.9209 46.0032 82.6992 46.886 82.6992 47.9108C82.6992 49.3139 83.111 50.449 83.9503 51.3318C84.7896 52.2147 85.914 52.6561 87.3235 52.6561C88.0678 52.6561 88.828 52.4985 89.604 52.1989C90.38 51.8994 91.3618 51.1584 92.5813 49.9918V42.2983H92.1695C90.0632 42.2983 88.5904 42.3772 87.7511 42.5506C86.9118 42.724 86.0882 43.0393 85.2964 43.4807Z" fill="white"/>
<path d="M9.40604 68.0892C9.40604 68.2942 9.31102 68.2627 9.23184 68.2627H5.7953C5.73195 68.2627 5.62109 68.2942 5.62109 68.0892V67.6321C5.62109 67.4271 5.73195 67.4586 5.7953 67.4586H6.23872V63.2651H5.7953C5.73195 63.2651 5.62109 63.2966 5.62109 63.0917V62.6345C5.62109 62.4137 5.73195 62.461 5.7953 62.461H9.216C9.31102 62.461 9.39021 62.4453 9.39021 62.6029V63.8957C9.39021 64.0849 9.31102 64.0691 9.216 64.0691H8.66172C8.59838 64.0691 8.48752 64.1006 8.48752 63.8957V63.3754H7.39479V64.7785H8.85176C8.93094 64.7785 9.02596 64.747 9.02596 64.952V65.5195C9.02596 65.7402 8.91511 65.6929 8.85176 65.6929H7.39479V67.364H8.48752V66.765C8.48752 66.6546 8.45585 66.5916 8.66172 66.5916H9.23184C9.31102 66.5916 9.40604 66.56 9.40604 66.765V68.0892Z" fill="white"/>
<path d="M19.9512 68.2636C19.9037 68.437 19.8562 68.4054 19.7612 68.4054H18.7793C18.6843 68.4054 18.6368 68.437 18.5893 68.2636L17.2274 63.2502H16.8948C16.8156 63.2502 16.7523 63.2817 16.7523 63.1083V62.5881C16.7523 62.5092 16.7206 62.4462 16.8948 62.4462H18.1459C18.2251 62.4462 18.2726 62.4146 18.3042 62.5723L19.0644 65.9618C19.0961 66.1353 19.2228 66.8605 19.2703 67.2703H19.2861C19.3336 66.9708 19.4603 66.2929 19.5395 65.9618L20.3788 62.5723C20.4105 62.4304 20.4422 62.4462 20.5372 62.4462H21.6933C21.7725 62.4462 21.8358 62.4146 21.8358 62.5881V63.1083C21.8358 63.2817 21.7725 63.2502 21.6933 63.2502H21.3607L19.9512 68.2636Z" fill="white"/>
<path d="M32.8133 68.09C32.8133 68.2949 32.7182 68.2634 32.6391 68.2634H29.2025C29.1392 68.2634 29.0283 68.2949 29.0283 68.09V67.6328C29.0283 67.4278 29.1392 67.4594 29.2025 67.4594H29.6459V63.2658H29.2025C29.1392 63.2658 29.0283 63.2973 29.0283 63.0924V62.6352C29.0283 62.4145 29.1392 62.4618 29.2025 62.4618H32.6232C32.7182 62.4618 32.7974 62.446 32.7974 62.6037V63.8964C32.7974 64.0856 32.7182 64.0698 32.6232 64.0698H32.0531C31.9898 64.0698 31.8789 64.1014 31.8789 63.8964V63.3762H30.7862V64.7793H32.2431C32.3223 64.7793 32.4174 64.7477 32.4174 64.9527V65.5202C32.4174 65.741 32.3065 65.6937 32.2431 65.6937H30.7862V67.3648H31.8789V66.7657C31.8789 66.6553 31.8472 66.5923 32.0531 66.5923H32.6232C32.7024 66.5923 32.7974 66.5607 32.7974 66.7657V68.09H32.8133Z" fill="white"/>
<path d="M45.0697 68.09C45.0697 68.1688 45.1014 68.2634 44.8955 68.2634H44.3254C44.2937 68.2634 44.167 68.2634 44.1353 68.1373L42.5675 65.2365C42.33 64.795 42.2983 64.732 42.0607 64.0698H42.0449C42.0766 64.6847 42.0924 64.8266 42.0924 65V67.4278H42.52C42.5834 67.4278 42.6942 67.3963 42.6942 67.6013V68.0584C42.6942 68.2634 42.5834 68.2319 42.52 68.2319H40.6671C40.6038 68.2319 40.4929 68.2634 40.4929 68.0584V67.6328C40.4929 67.4278 40.6038 67.4594 40.6671 67.4594H41.1105V63.2658H40.6671C40.6038 63.2658 40.4929 63.2973 40.4929 63.0924V62.6352C40.4929 62.4145 40.6038 62.4618 40.6671 62.4618H41.9816C42.1558 62.4618 42.1399 62.5091 42.1716 62.5721L43.5969 65.2049C43.7553 65.5045 43.977 66.0247 44.1037 66.4346H44.1195C44.0878 65.7094 44.0878 65.5202 44.0878 65.3311V63.2658H43.6602C43.5969 63.2658 43.486 63.2973 43.486 63.0924V62.6352C43.486 62.4145 43.5969 62.4618 43.6602 62.4618H45.5131C45.5765 62.4618 45.6873 62.4302 45.6873 62.6352V63.0924C45.6873 63.2973 45.5765 63.2658 45.5131 63.2658H45.0697V68.09Z" fill="white"/>
<path d="M56.2496 68.0901C56.2496 68.295 56.1388 68.2635 56.0754 68.2635H53.795C53.7316 68.2635 53.6208 68.295 53.6208 68.0901V67.6329C53.6208 67.4279 53.7316 67.4594 53.795 67.4594H54.3651V63.3605H53.7475V64.1803C53.7475 64.3537 53.6524 64.3222 53.6049 64.3222H53.0982C52.9239 64.3222 52.9556 64.2591 52.9556 64.1803V62.588C52.9556 62.5092 52.9239 62.4461 53.0982 62.4461H56.8039C56.8514 62.4461 56.9464 62.4146 56.9464 62.588V64.1803C56.9464 64.3537 56.8514 64.3222 56.8039 64.3222H56.2971C56.1229 64.3222 56.1546 64.2591 56.1546 64.1803V63.3605H55.537V67.4594H56.1071C56.1705 67.4594 56.2813 67.4279 56.2813 67.6329V68.0901H56.2496Z" fill="white"/>
<path d="M158.888 68.0903C158.888 68.2952 158.777 68.2637 158.714 68.2637H156.94C156.877 68.2637 156.766 68.2952 156.766 68.0903V67.6331C156.766 67.4281 156.877 67.4596 156.94 67.4596H157.209L157.019 66.7187H155.547L155.357 67.4596H155.642C155.705 67.4596 155.816 67.4281 155.816 67.6331V68.0903C155.816 68.2952 155.705 68.2637 155.642 68.2637H153.947C153.884 68.2637 153.773 68.2952 153.773 68.0903V67.6331C153.773 67.4281 153.884 67.4596 153.947 67.4596H154.201L155.705 62.5882C155.737 62.5094 155.721 62.4463 155.895 62.4463H156.782C156.956 62.4463 156.94 62.4936 156.972 62.5882L158.429 67.4596H158.714C158.777 67.4596 158.888 67.4281 158.888 67.6331V68.0903ZM156.449 64.48C156.307 63.8967 156.307 63.676 156.275 63.408L156.259 63.2818H156.243C156.18 63.8652 156.117 64.1647 156.053 64.48L155.673 65.9462H156.798L156.449 64.48Z" fill="white"/>
<path d="M168.373 67.7434C168.373 67.9798 168.025 68.1217 167.756 68.2163C167.487 68.3109 167.106 68.4055 166.663 68.4055C165.697 68.4055 165.254 68.0271 165.016 67.7434C164.43 67.0497 164.367 66.1195 164.367 65.3786C164.367 64.5903 164.462 63.5498 165.111 62.8877C165.444 62.5566 165.95 62.2886 166.663 62.2886C167.154 62.2886 167.582 62.4147 167.772 62.4778C167.867 62.5093 168.247 62.6512 168.247 62.8719V63.9755C168.247 64.0543 168.278 64.1173 168.104 64.1173H167.471C167.296 64.1173 167.328 64.0543 167.328 63.9755V63.3291C167.043 63.2345 166.885 63.203 166.742 63.203C166.346 63.203 166.077 63.3764 165.919 63.6129C165.586 64.0858 165.586 64.9529 165.586 65.347C165.586 65.8673 165.618 66.5767 165.871 67.0182C166.093 67.3965 166.457 67.4753 166.726 67.4753C166.869 67.4753 167.106 67.4281 167.312 67.3492L167.36 67.3335V65.9934H166.711C166.647 65.9934 166.536 66.0249 166.536 65.82V65.3628C166.536 65.1579 166.647 65.1894 166.711 65.1894H168.801C168.864 65.1894 168.975 65.1579 168.975 65.3628V65.82C168.975 66.0249 168.864 65.9934 168.801 65.9934H168.389V67.7434H168.373Z" fill="white"/>
<path d="M178.558 68.0902C178.558 68.2952 178.463 68.2636 178.384 68.2636H174.947C174.884 68.2636 174.773 68.2952 174.773 68.0902V67.633C174.773 67.4281 174.884 67.4596 174.947 67.4596H175.391V63.2661H174.947C174.884 63.2661 174.773 63.2976 174.773 63.0926V62.6354C174.773 62.4147 174.884 62.462 174.947 62.462H178.368C178.463 62.462 178.542 62.4463 178.542 62.6039V63.8967C178.542 64.0858 178.463 64.0701 178.368 64.0701H177.798C177.735 64.0701 177.624 64.1016 177.624 63.8967V63.3764H176.531V64.7795H177.988C178.067 64.7795 178.162 64.748 178.162 64.9529V65.5205C178.162 65.7412 178.051 65.6939 177.988 65.6939H176.531V67.365H177.624V66.7659C177.624 66.6556 177.592 66.5925 177.798 66.5925H178.368C178.447 66.5925 178.542 66.561 178.542 66.7659V68.0902H178.558Z" fill="white"/>
<path d="M189.279 68.0902C189.279 68.169 189.311 68.2636 189.105 68.2636H188.535C188.503 68.2636 188.377 68.2636 188.345 68.1375L186.777 65.2367C186.54 64.7953 186.508 64.7322 186.27 64.0701H186.255C186.286 64.6849 186.302 64.8268 186.302 65.0002V67.4281H186.73C186.793 67.4281 186.904 67.3966 186.904 67.6015V68.0587C186.904 68.2636 186.793 68.2321 186.73 68.2321H184.877C184.813 68.2321 184.703 68.2636 184.703 68.0587V67.633C184.703 67.4281 184.813 67.4596 184.877 67.4596H185.304V63.2661H184.877C184.813 63.2661 184.703 63.2976 184.703 63.0926V62.6354C184.703 62.4147 184.813 62.462 184.877 62.462H186.191C186.365 62.462 186.35 62.5093 186.381 62.5724L187.807 65.2052C187.965 65.5047 188.187 66.025 188.313 66.4349H188.329C188.298 65.7097 188.298 65.5205 188.298 65.3313V63.2661H187.87C187.807 63.2661 187.696 63.2976 187.696 63.0926V62.6354C187.696 62.4147 187.807 62.462 187.87 62.462H189.723C189.786 62.462 189.897 62.4305 189.897 62.6354V63.0926C189.897 63.2976 189.786 63.2661 189.723 63.2661H189.279V68.0902Z" fill="white"/>
<path d="M199.558 67.9166C199.558 68.0743 199.368 68.1531 199.21 68.2162C198.877 68.3423 198.434 68.4211 198.054 68.4211C197.088 68.4211 196.629 68.0585 196.328 67.6959C195.821 67.0495 195.742 66.2455 195.742 65.4257C195.742 64.7321 195.805 63.8177 196.328 63.1082C196.787 62.4776 197.468 62.3042 198.038 62.3042C198.608 62.3042 199.479 62.5407 199.479 62.8718V64.0068C199.479 64.1803 199.368 64.1487 199.337 64.1487H198.703C198.529 64.1487 198.561 64.0857 198.561 64.0068V63.2974C198.355 63.2344 198.212 63.2186 198.101 63.2186C197.832 63.2186 197.563 63.2816 197.357 63.4866C196.993 63.8492 196.961 64.5586 196.961 65.2208C196.961 66.1194 197.04 66.8446 197.389 67.1914C197.579 67.3806 197.832 67.491 198.181 67.491C198.307 67.491 198.434 67.4752 198.64 67.4437V66.6869C198.64 66.6397 198.608 66.5451 198.782 66.5451H199.416C199.59 66.5451 199.558 66.6397 199.558 66.6869V67.9166Z" fill="white"/>
<path d="M208.871 68.0903C208.871 68.2952 208.76 68.2637 208.696 68.2637H206.384C206.321 68.2637 206.21 68.2952 206.21 68.0903V67.6331C206.21 67.4281 206.321 67.4596 206.384 67.4596H206.97V65.8831L205.608 63.2661H205.386C205.307 63.2661 205.244 63.2976 205.244 63.1242V62.5882C205.244 62.5094 205.212 62.4463 205.386 62.4463H206.368C206.511 62.4463 206.527 62.4936 206.558 62.5566L207.224 63.944C207.334 64.1489 207.477 64.5273 207.572 64.9214H207.588L207.635 64.7795C207.778 64.3066 207.825 64.1647 207.92 63.9598L208.585 62.5724C208.649 62.4305 208.68 62.4621 208.776 62.4621H209.71C209.789 62.4621 209.852 62.4305 209.852 62.6039V63.1242C209.852 63.2976 209.789 63.2661 209.71 63.2661H209.441L208.126 65.8831V67.4596H208.712C208.775 67.4596 208.886 67.4281 208.886 67.6331V68.0903H208.871Z" fill="white"/>
</g>
<defs>
<clipPath id="clip0">
<rect width="214" height="72" fill="white"/>
</clipPath>
</defs>
</svg>
