<svg width="24" height="25" viewBox="0 0 24 25" fill="none" xmlns="http://www.w3.org/2000/svg">
<path d="M18.8321 14.8071C19.1758 14.8071 19.504 14.8722 19.8165 15.0024C20.129 15.1326 20.4102 15.328 20.6602 15.5884L23.2383 18.2739C23.4805 18.5262 23.6641 18.8151 23.7891 19.1406C23.9141 19.4661 23.9805 19.812 23.9883 20.1782C23.9883 20.5363 23.9258 20.8781 23.8008 21.2036C23.6758 21.5291 23.4883 21.8221 23.2383 22.0825L23.0743 22.2534C22.6524 22.6929 22.2657 23.0835 21.9141 23.4253C21.5625 23.7671 21.1954 24.0519 20.8125 24.2798C20.4297 24.5077 20.004 24.6867 19.5352 24.8169C19.0665 24.9471 18.5079 25.0081 17.8594 25C16.8829 25 15.879 24.8413 14.8477 24.5239C13.8165 24.2065 12.793 23.7671 11.7774 23.2056C10.7618 22.644 9.76177 21.9767 8.77739 21.2036C7.79302 20.4305 6.86724 19.5882 6.00005 18.6768C5.13286 17.7653 4.32817 16.7969 3.58599 15.7715C2.8438 14.7461 2.21099 13.7044 1.68755 12.6465C1.16411 11.5885 0.750049 10.5265 0.445361 9.46045C0.140674 8.39437 -0.00776367 7.36898 4.88281e-05 6.38428C4.88281e-05 5.70882 0.0547363 5.13102 0.164111 4.65088C0.273486 4.17074 0.441455 3.73128 0.668018 3.33252C0.89458 2.93376 1.16802 2.55534 1.48833 2.19727C1.80864 1.83919 2.18364 1.43636 2.61333 0.98877L2.80083 0.793457C3.04302 0.541178 3.32036 0.345866 3.63286 0.20752C3.94536 0.0691732 4.27739 0 4.62895 0C4.9727 0 5.30083 0.0691732 5.61333 0.20752C5.92583 0.345866 6.20708 0.541178 6.45708 0.793457L9.0352 3.479C9.27739 3.73128 9.46099 4.02018 9.58599 4.3457C9.71099 4.67122 9.77739 5.01709 9.7852 5.3833C9.7852 5.74137 9.72661 6.05876 9.60942 6.33545C9.49224 6.61214 9.3477 6.86849 9.17583 7.10449C9.00395 7.34049 8.81645 7.54801 8.61333 7.72705C8.4102 7.90609 8.2188 8.08919 8.03911 8.27637C7.85942 8.46354 7.71489 8.64258 7.60552 8.81348C7.49614 8.98438 7.43755 9.18376 7.42974 9.41162C7.42974 9.72087 7.53521 9.98535 7.74614 10.2051L14.2032 16.9312C14.4141 17.1509 14.668 17.2607 14.9649 17.2607C15.168 17.2607 15.3555 17.1997 15.5274 17.0776C15.6993 16.9556 15.875 16.805 16.0547 16.626C16.2344 16.4469 16.4102 16.2516 16.5821 16.04C16.754 15.8285 16.9532 15.6291 17.1797 15.4419C17.4063 15.2547 17.6485 15.1042 17.9063 14.9902C18.1641 14.8763 18.4727 14.8153 18.8321 14.8071ZM17.8594 23.4375C18.4219 23.4375 18.8907 23.3846 19.2657 23.2788C19.6407 23.173 19.9844 23.0143 20.2969 22.8027C20.6094 22.5911 20.9063 22.3307 21.1875 22.0215C21.4688 21.7122 21.8008 21.3623 22.1836 20.9717C22.3946 20.752 22.5 20.4875 22.5 20.1782C22.5 20.0317 22.4454 19.8608 22.336 19.6655C22.2266 19.4702 22.0782 19.2586 21.8907 19.0308C21.7032 18.8029 21.504 18.5791 21.293 18.3594C21.0821 18.1396 20.8633 17.9199 20.6368 17.7002C20.4102 17.4805 20.211 17.2892 20.0391 17.1265C19.8672 16.9637 19.7227 16.8213 19.6055 16.6992C19.3946 16.4795 19.1368 16.3696 18.8321 16.3696C18.629 16.3696 18.4415 16.4307 18.2696 16.5527C18.0977 16.6748 17.9258 16.8254 17.754 17.0044C17.5821 17.1834 17.4063 17.3787 17.2266 17.5903C17.0469 17.8019 16.8438 18.0013 16.6172 18.1885C16.3907 18.3757 16.1485 18.5262 15.8907 18.6401C15.6329 18.7541 15.3243 18.8151 14.9649 18.8232C14.6211 18.8232 14.293 18.7581 13.9805 18.6279C13.668 18.4977 13.3868 18.3024 13.1368 18.042L6.67974 11.3159C6.43755 11.0636 6.25396 10.7747 6.12896 10.4492C6.00396 10.1237 5.93755 9.77783 5.92974 9.41162C5.92974 9.05355 5.98833 8.73617 6.10552 8.45947C6.22271 8.18278 6.36724 7.92643 6.53911 7.69043C6.71099 7.45443 6.89849 7.24691 7.10161 7.06787C7.30474 6.88883 7.49614 6.70166 7.67583 6.50635C7.85552 6.31104 8.00005 6.132 8.10942 5.96924C8.2188 5.80648 8.27739 5.61117 8.2852 5.3833C8.2852 5.06592 8.17974 4.79736 7.9688 4.57764C7.86724 4.47184 7.73442 4.32536 7.57036 4.13818C7.4063 3.95101 7.22271 3.74349 7.01958 3.51562C6.81646 3.28776 6.60552 3.0599 6.38677 2.83203C6.16802 2.60417 5.94927 2.39258 5.73052 2.19727C5.51177 2.00195 5.31255 1.8514 5.13286 1.74561C4.95317 1.63981 4.7852 1.57878 4.62895 1.5625C4.33208 1.5625 4.07817 1.67236 3.86724 1.89209L2.87114 2.92969C2.58208 3.23079 2.33208 3.54004 2.12114 3.85742C1.9102 4.1748 1.75396 4.52881 1.65239 4.91943C1.55083 5.31006 1.49614 5.79834 1.48833 6.38428C1.48833 7.29574 1.62896 8.23568 1.91021 9.2041C2.19145 10.1725 2.58599 11.141 3.0938 12.1094C3.60161 13.0778 4.19927 14.0299 4.88677 14.9658C5.57427 15.9017 6.32427 16.7928 7.13677 17.6392C7.94927 18.4855 8.80474 19.2586 9.70317 19.9585C10.6016 20.6584 11.5157 21.2687 12.4454 21.7896C13.375 22.3104 14.2969 22.7132 15.211 22.998C16.125 23.2829 17.0079 23.4294 17.8594 23.4375Z" fill="white"/>
<path d="M8.62895 5.5625C8.62895 7.77164 6.83809 9.5625 4.62895 9.5625C2.41982 9.5625 0.628955 7.77164 0.628955 5.5625C0.628955 3.35336 2.41982 1.5625 4.62895 1.5625C6.83809 1.5625 8.62895 3.35336 8.62895 5.5625Z" fill="white"/>
<path d="M22.8321 20.04C22.8321 22.2492 21.0412 24.04 18.8321 24.04C16.6229 24.04 14.8321 22.2492 14.8321 20.04C14.8321 17.8309 16.6229 16.04 18.8321 16.04C21.0412 16.04 22.8321 17.8309 22.8321 20.04Z" fill="white"/>
<path d="M16.9998 20C16.9998 21.1046 16.1043 22 14.9998 22C13.8952 22 12.9998 21.1046 12.9998 20C12.9998 18.8954 13.8952 18 14.9998 18C16.1043 18 16.9998 18.8954 16.9998 20Z" fill="white"/>
<path d="M17.9998 22C17.9998 23.1046 17.1043 24 15.9998 24C14.8952 24 13.9998 23.1046 13.9998 22C13.9998 20.8954 14.8952 20 15.9998 20C17.1043 20 17.9998 20.8954 17.9998 22Z" fill="white"/>
<path d="M14.9998 21C14.9998 22.1046 14.1043 23 12.9998 23C11.8952 23 10.9998 22.1046 10.9998 21C10.9998 19.8954 11.8952 19 12.9998 19C14.1043 19 14.9998 19.8954 14.9998 21Z" fill="white"/>
<path d="M13.9998 18C13.9998 19.1046 13.1043 20 11.9998 20C10.8952 20 9.99976 19.1046 9.99976 18C9.99976 16.8954 10.8952 16 11.9998 16C13.1043 16 13.9998 16.8954 13.9998 18Z" fill="white"/>
<path d="M11.9998 16C11.9998 17.1046 11.1043 18 9.99976 18C8.89519 18 7.99976 17.1046 7.99976 16C7.99976 14.8954 8.89519 14 9.99976 14C11.1043 14 11.9998 14.8954 11.9998 16Z" fill="white"/>
<path d="M9.99976 14C9.99976 15.1046 9.10433 16 7.99976 16C6.89519 16 5.99976 15.1046 5.99976 14C5.99976 12.8954 6.89519 12 7.99976 12C9.10433 12 9.99976 12.8954 9.99976 14Z" fill="white"/>
<path d="M7.99976 12C7.99976 13.1046 7.10433 14 5.99976 14C4.89519 14 3.99976 13.1046 3.99976 12C3.99976 10.8954 4.89519 10 5.99976 10C7.10433 10 7.99976 10.8954 7.99976 12Z" fill="white"/>
<path d="M6.99976 10C6.99976 11.1046 6.10433 12 4.99976 12C3.89519 12 2.99976 11.1046 2.99976 10C2.99976 8.89543 3.89519 8 4.99976 8C6.10433 8 6.99976 8.89543 6.99976 10Z" fill="white"/>
<path d="M4.99976 9C4.99976 10.1046 4.10433 11 2.99976 11C1.89519 11 0.999756 10.1046 0.999756 9C0.999756 7.89543 1.89519 7 2.99976 7C4.10433 7 4.99976 7.89543 4.99976 9Z" fill="white"/>
<path d="M5.99976 12C5.99976 13.1046 5.10433 14 3.99976 14C2.89519 14 1.99976 13.1046 1.99976 12C1.99976 10.8954 2.89519 10 3.99976 10C5.10433 10 5.99976 10.8954 5.99976 12Z" fill="white"/>
<path d="M7.99976 14C7.99976 15.1046 7.10433 16 5.99976 16C4.89519 16 3.99976 15.1046 3.99976 14C3.99976 12.8954 4.89519 12 5.99976 12C7.10433 12 7.99976 12.8954 7.99976 14Z" fill="white"/>
<path d="M8.99976 16C8.99976 17.1046 8.10433 18 6.99976 18C5.89519 18 4.99976 17.1046 4.99976 16C4.99976 14.8954 5.89519 14 6.99976 14C8.10433 14 8.99976 14.8954 8.99976 16Z" fill="white"/>
<path d="M9.99976 17C9.99976 18.1046 9.10433 19 7.99976 19C6.89519 19 5.99976 18.1046 5.99976 17C5.99976 15.8954 6.89519 15 7.99976 15C9.10433 15 9.99976 15.8954 9.99976 17Z" fill="white"/>
<path d="M11.9998 19C11.9998 20.1046 11.1043 21 9.99976 21C8.89519 21 7.99976 20.1046 7.99976 19C7.99976 17.8954 8.89519 17 9.99976 17C11.1043 17 11.9998 17.8954 11.9998 19Z" fill="white"/>
<path d="M12.9998 20C12.9998 21.1046 12.1043 22 10.9998 22C9.89519 22 8.99976 21.1046 8.99976 20C8.99976 18.8954 9.89519 18 10.9998 18C12.1043 18 12.9998 18.8954 12.9998 20Z" fill="white"/>
</svg>
