<svg width="52" height="53" viewBox="0 0 52 53" fill="none" xmlns="http://www.w3.org/2000/svg">
<path d="M40.8034 30.7988C41.5482 30.7988 42.2591 30.9342 42.9362 31.2051C43.6133 31.4759 44.2226 31.8822 44.7643 32.4238L50.3502 38.0098C50.875 38.5345 51.2728 39.1354 51.5436 39.8125C51.8144 40.4896 51.9583 41.209 51.9752 41.9707C51.9752 42.7155 51.8398 43.4264 51.569 44.1035C51.2982 44.7806 50.8919 45.39 50.3502 45.9316L49.9948 46.2871C49.0807 47.2012 48.2428 48.0137 47.4811 48.7246C46.7194 49.4355 45.9238 50.028 45.0944 50.502C44.265 50.9759 43.3424 51.3483 42.3268 51.6191C41.3112 51.89 40.1009 52.0169 38.6959 52C36.5801 52 34.4049 51.6699 32.1706 51.0098C29.9362 50.3496 27.7187 49.4355 25.5182 48.2676C23.3177 47.0996 21.151 45.7116 19.0182 44.1035C16.8854 42.4954 14.8795 40.7435 13.0006 38.8477C11.1217 36.9518 9.37824 34.9375 7.77017 32.8047C6.16209 30.6719 4.791 28.5052 3.65688 26.3047C2.52277 24.1042 1.62563 21.8952 0.965479 19.6777C0.305322 17.4603 -0.0162923 15.3275 0.000634766 13.2793C0.000634766 11.8743 0.119124 10.6725 0.356104 9.67383C0.593083 8.67513 0.957015 7.76107 1.4479 6.93164C1.93879 6.10221 2.53123 5.3151 3.22524 4.57031C3.91925 3.82552 4.73175 2.98763 5.66274 2.05664L6.06899 1.65039C6.59373 1.12565 7.19464 0.719401 7.87173 0.431641C8.54881 0.14388 9.26821 0 10.0299 0C10.7747 0 11.4857 0.14388 12.1627 0.431641C12.8398 0.719401 13.4492 1.12565 13.9909 1.65039L19.5768 7.23633C20.1015 7.76107 20.4993 8.36198 20.7702 9.03906C21.041 9.71615 21.1849 10.4355 21.2018 11.1973C21.2018 11.9421 21.0749 12.6022 20.8209 13.1777C20.567 13.7533 20.2539 14.2865 19.8815 14.7773C19.5091 15.2682 19.1028 15.6999 18.6627 16.0723C18.2226 16.4447 17.8079 16.8255 17.4186 17.2148C17.0293 17.6042 16.7161 17.9766 16.4792 18.332C16.2422 18.6875 16.1152 19.1022 16.0983 19.5762C16.0983 20.2194 16.3268 20.7695 16.7838 21.2266L30.7741 35.2168C31.2311 35.6738 31.7812 35.9023 32.4245 35.9023C32.8646 35.9023 33.2708 35.7754 33.6432 35.5215C34.0156 35.2676 34.3965 34.9544 34.7858 34.582C35.1751 34.2096 35.556 33.8034 35.9284 33.3633C36.3008 32.9232 36.7324 32.5085 37.2233 32.1191C37.7142 31.7298 38.2389 31.4167 38.7975 31.1797C39.3561 30.9427 40.0247 30.8158 40.8034 30.7988ZM38.6959 48.75C39.9147 48.75 40.9303 48.64 41.7428 48.4199C42.5553 48.1999 43.3001 47.8698 43.9772 47.4297C44.6543 46.9896 45.2975 46.4479 45.9069 45.8047C46.5163 45.1615 47.2357 44.4336 48.0651 43.6211C48.5221 43.1641 48.7506 42.6139 48.7506 41.9707C48.7506 41.666 48.6321 41.3105 48.3952 40.9043C48.1582 40.498 47.8366 40.0579 47.4303 39.584C47.0241 39.11 46.5924 38.6445 46.1354 38.1875C45.6784 37.7305 45.2044 37.2734 44.7135 36.8164C44.2226 36.3594 43.791 35.9616 43.4186 35.623C43.0462 35.2845 42.7331 34.9883 42.4792 34.7344C42.0221 34.2773 41.4635 34.0488 40.8034 34.0488C40.3633 34.0488 39.957 34.1758 39.5846 34.4297C39.2122 34.6836 38.8398 34.9967 38.4674 35.3691C38.095 35.7415 37.7142 36.1478 37.3249 36.5879C36.9355 37.028 36.4954 37.4427 36.0045 37.832C35.5137 38.2214 34.9889 38.5345 34.4303 38.7715C33.8717 39.0085 33.2031 39.1354 32.4245 39.1523C31.6797 39.1523 30.9687 39.0169 30.2917 38.7461C29.6146 38.4753 29.0052 38.069 28.4635 37.5273L14.4733 23.5371C13.9486 23.0124 13.5508 22.4115 13.2799 21.7344C13.0091 21.0573 12.8652 20.3379 12.8483 19.5762C12.8483 18.8314 12.9752 18.1712 13.2292 17.5957C13.4831 17.0202 13.7962 16.487 14.1686 15.9961C14.541 15.5052 14.9472 15.0736 15.3874 14.7012C15.8275 14.3288 16.2422 13.9395 16.6315 13.5332C17.0208 13.127 17.334 12.7546 17.5709 12.416C17.8079 12.0775 17.9349 11.6712 17.9518 11.1973C17.9518 10.5371 17.7233 9.97852 17.2663 9.52148C17.0462 9.30143 16.7584 8.99675 16.403 8.60742C16.0475 8.2181 15.6497 7.78646 15.2096 7.3125C14.7695 6.83854 14.3125 6.36458 13.8385 5.89062C13.3646 5.41667 12.8906 4.97656 12.4166 4.57031C11.9427 4.16406 11.5111 3.85091 11.1217 3.63086C10.7324 3.41081 10.3685 3.28385 10.0299 3.25C9.3867 3.25 8.83657 3.47852 8.37954 3.93555L6.22134 6.09375C5.59504 6.72005 5.05337 7.36328 4.59634 8.02344C4.13931 8.68359 3.80076 9.41992 3.58071 10.2324C3.36066 11.0449 3.24217 12.0605 3.22524 13.2793C3.22524 15.1751 3.52993 17.1302 4.13931 19.1445C4.74868 21.1589 5.6035 23.1732 6.70376 25.1875C7.80402 27.2018 9.09894 29.1823 10.5885 31.1289C12.0781 33.0755 13.7031 34.929 15.4635 36.6895C17.2239 38.4499 19.0775 40.0579 21.0241 41.5137C22.9707 42.9694 24.9512 44.2389 26.9655 45.3223C28.9798 46.4056 30.9772 47.2435 32.9577 47.8359C34.9381 48.4284 36.8509 48.7331 38.6959 48.75Z" fill="black"/>
</svg>
