<svg width="1870" height="109" viewBox="0 0 1870 109" fill="none" xmlns="http://www.w3.org/2000/svg">
<circle cx="1787.03" cy="21.0303" r="11.0303" transform="rotate(90 1787.03 21.0303)" fill="black"/>
<circle cx="1801.03" cy="97.0303" r="11.0303" transform="rotate(90 1801.03 97.0303)" fill="black"/>
<mask id="path-3-inside-1" fill="white">
<path d="M1794.51 93.4479C1792.08 97.758 1793.59 103.306 1798.24 104.98C1806.87 108.08 1816.2 108.91 1825.33 107.312C1837.42 105.196 1848.41 98.9528 1856.41 89.647C1864.41 80.3412 1868.94 68.5483 1869.23 56.2774C1869.51 44.0066 1865.53 32.0172 1857.96 22.352C1850.4 12.6868 1839.72 5.94388 1827.74 3.27213C1815.76 0.600376 1803.22 2.16511 1792.27 7.69971C1781.31 13.2343 1772.61 22.3964 1767.65 33.6247C1763.91 42.1033 1762.48 51.3639 1763.41 60.4823C1763.92 65.4058 1768.94 68.2019 1773.71 66.8748C1778.48 65.5478 1781.14 60.5754 1781.06 55.6265C1780.98 50.5823 1781.99 45.5434 1784.05 40.8642C1787.33 33.4293 1793.09 27.3626 1800.35 23.6979C1807.6 20.0331 1815.9 18.997 1823.83 20.7661C1831.77 22.5352 1838.84 27.0001 1843.85 33.3999C1848.86 39.7998 1851.5 47.7386 1851.31 55.8638C1851.12 63.9889 1848.12 71.7977 1842.82 77.9596C1837.52 84.1214 1830.25 88.2551 1822.24 89.6563C1817.21 90.5381 1812.07 90.3033 1807.2 89.0121C1802.41 87.7453 1796.94 89.1378 1794.51 93.4479Z"/>
</mask>
<path d="M1794.51 93.4479C1792.08 97.758 1793.59 103.306 1798.24 104.98C1806.87 108.08 1816.2 108.91 1825.33 107.312C1837.42 105.196 1848.41 98.9528 1856.41 89.647C1864.41 80.3412 1868.94 68.5483 1869.23 56.2774C1869.51 44.0066 1865.53 32.0172 1857.96 22.352C1850.4 12.6868 1839.72 5.94388 1827.74 3.27213C1815.76 0.600376 1803.22 2.16511 1792.27 7.69971C1781.31 13.2343 1772.61 22.3964 1767.65 33.6247C1763.91 42.1033 1762.48 51.3639 1763.41 60.4823C1763.92 65.4058 1768.94 68.2019 1773.71 66.8748C1778.48 65.5478 1781.14 60.5754 1781.06 55.6265C1780.98 50.5823 1781.99 45.5434 1784.05 40.8642C1787.33 33.4293 1793.09 27.3626 1800.35 23.6979C1807.6 20.0331 1815.9 18.997 1823.83 20.7661C1831.77 22.5352 1838.84 27.0001 1843.85 33.3999C1848.86 39.7998 1851.5 47.7386 1851.31 55.8638C1851.12 63.9889 1848.12 71.7977 1842.82 77.9596C1837.52 84.1214 1830.25 88.2551 1822.24 89.6563C1817.21 90.5381 1812.07 90.3033 1807.2 89.0121C1802.41 87.7453 1796.94 89.1378 1794.51 93.4479Z" fill="white" stroke="black" stroke-width="2" mask="url(#path-3-inside-1)"/>
<circle cx="1698.9" cy="21.0303" r="11.0303" transform="rotate(90 1698.9 21.0303)" fill="black"/>
<circle cx="1712.9" cy="97.0303" r="11.0303" transform="rotate(90 1712.9 97.0303)" fill="black"/>
<mask id="path-6-inside-2" fill="white">
<path d="M1706.38 93.4479C1703.94 97.758 1705.45 103.306 1710.11 104.98C1718.74 108.08 1728.07 108.91 1737.2 107.312C1749.29 105.196 1760.27 98.9528 1768.28 89.647C1776.28 80.3412 1780.81 68.5483 1781.09 56.2774C1781.38 44.0066 1777.39 32.0172 1769.83 22.352C1762.26 12.6868 1751.58 5.94388 1739.6 3.27213C1727.62 0.600376 1715.09 2.16511 1704.13 7.69971C1693.18 13.2343 1684.48 22.3964 1679.52 33.6247C1675.78 42.1033 1674.34 51.3639 1675.28 60.4823C1675.78 65.4058 1680.81 68.2019 1685.58 66.8748C1690.34 65.5478 1693.01 60.5754 1692.93 55.6265C1692.85 50.5823 1693.85 45.5434 1695.92 40.8642C1699.2 33.4293 1704.96 27.3626 1712.21 23.6979C1719.47 20.0331 1727.77 18.997 1735.7 20.7661C1743.63 22.5352 1750.71 27.0001 1755.72 33.3999C1760.72 39.7998 1763.36 47.7386 1763.17 55.8638C1762.99 63.9889 1759.99 71.7977 1754.69 77.9596C1749.39 84.1214 1742.12 88.2551 1734.11 89.6563C1729.07 90.5381 1723.94 90.3033 1719.06 89.0121C1714.28 87.7453 1708.81 89.1378 1706.38 93.4479Z"/>
</mask>
<path d="M1706.38 93.4479C1703.94 97.758 1705.45 103.306 1710.11 104.98C1718.74 108.08 1728.07 108.91 1737.2 107.312C1749.29 105.196 1760.27 98.9528 1768.28 89.647C1776.28 80.3412 1780.81 68.5483 1781.09 56.2774C1781.38 44.0066 1777.39 32.0172 1769.83 22.352C1762.26 12.6868 1751.58 5.94388 1739.6 3.27213C1727.62 0.600376 1715.09 2.16511 1704.13 7.69971C1693.18 13.2343 1684.48 22.3964 1679.52 33.6247C1675.78 42.1033 1674.34 51.3639 1675.28 60.4823C1675.78 65.4058 1680.81 68.2019 1685.58 66.8748C1690.34 65.5478 1693.01 60.5754 1692.93 55.6265C1692.85 50.5823 1693.85 45.5434 1695.92 40.8642C1699.2 33.4293 1704.96 27.3626 1712.21 23.6979C1719.47 20.0331 1727.77 18.997 1735.7 20.7661C1743.63 22.5352 1750.71 27.0001 1755.72 33.3999C1760.72 39.7998 1763.36 47.7386 1763.17 55.8638C1762.99 63.9889 1759.99 71.7977 1754.69 77.9596C1749.39 84.1214 1742.12 88.2551 1734.11 89.6563C1729.07 90.5381 1723.94 90.3033 1719.06 89.0121C1714.28 87.7453 1708.81 89.1378 1706.38 93.4479Z" fill="white" stroke="black" stroke-width="2" mask="url(#path-6-inside-2)"/>
<circle cx="1610.76" cy="21.0303" r="11.0303" transform="rotate(90 1610.76 21.0303)" fill="black"/>
<circle cx="1624.76" cy="97.0303" r="11.0303" transform="rotate(90 1624.76 97.0303)" fill="black"/>
<mask id="path-9-inside-3" fill="white">
<path d="M1618.24 93.4479C1615.81 97.758 1617.32 103.306 1621.97 104.98C1630.6 108.08 1639.94 108.91 1649.06 107.312C1661.16 105.196 1672.14 98.9528 1680.14 89.647C1688.14 80.3412 1692.67 68.5483 1692.96 56.2774C1693.24 44.0066 1689.26 32.0172 1681.69 22.352C1674.13 12.6868 1663.45 5.94388 1651.47 3.27213C1639.49 0.600376 1626.95 2.16511 1616 7.69971C1605.04 13.2343 1596.34 22.3964 1591.39 33.6247C1587.64 42.1033 1586.21 51.3639 1587.14 60.4823C1587.65 65.4058 1592.67 68.2019 1597.44 66.8748C1602.21 65.5478 1604.87 60.5754 1604.79 55.6265C1604.71 50.5823 1605.72 45.5434 1607.78 40.8642C1611.06 33.4293 1616.82 27.3626 1624.08 23.6979C1631.33 20.0331 1639.63 18.997 1647.57 20.7661C1655.5 22.5352 1662.57 27.0001 1667.58 33.3999C1672.59 39.7998 1675.23 47.7386 1675.04 55.8638C1674.85 63.9889 1671.85 71.7977 1666.55 77.9596C1661.25 84.1214 1653.98 88.2551 1645.97 89.6563C1640.94 90.5381 1635.8 90.3033 1630.93 89.0121C1626.14 87.7453 1620.68 89.1378 1618.24 93.4479Z"/>
</mask>
<path d="M1618.24 93.4479C1615.81 97.758 1617.32 103.306 1621.97 104.98C1630.6 108.08 1639.94 108.91 1649.06 107.312C1661.16 105.196 1672.14 98.9528 1680.14 89.647C1688.14 80.3412 1692.67 68.5483 1692.96 56.2774C1693.24 44.0066 1689.26 32.0172 1681.69 22.352C1674.13 12.6868 1663.45 5.94388 1651.47 3.27213C1639.49 0.600376 1626.95 2.16511 1616 7.69971C1605.04 13.2343 1596.34 22.3964 1591.39 33.6247C1587.64 42.1033 1586.21 51.3639 1587.14 60.4823C1587.65 65.4058 1592.67 68.2019 1597.44 66.8748C1602.21 65.5478 1604.87 60.5754 1604.79 55.6265C1604.71 50.5823 1605.72 45.5434 1607.78 40.8642C1611.06 33.4293 1616.82 27.3626 1624.08 23.6979C1631.33 20.0331 1639.63 18.997 1647.57 20.7661C1655.5 22.5352 1662.57 27.0001 1667.58 33.3999C1672.59 39.7998 1675.23 47.7386 1675.04 55.8638C1674.85 63.9889 1671.85 71.7977 1666.55 77.9596C1661.25 84.1214 1653.98 88.2551 1645.97 89.6563C1640.94 90.5381 1635.8 90.3033 1630.93 89.0121C1626.14 87.7453 1620.68 89.1378 1618.24 93.4479Z" fill="white" stroke="black" stroke-width="2" mask="url(#path-9-inside-3)"/>
<circle cx="1522.63" cy="21.0303" r="11.0303" transform="rotate(90 1522.63 21.0303)" fill="black"/>
<circle cx="1536.63" cy="97.0303" r="11.0303" transform="rotate(90 1536.63 97.0303)" fill="black"/>
<mask id="path-12-inside-4" fill="white">
<path d="M1530.11 93.4479C1527.67 97.758 1529.18 103.306 1533.84 104.98C1542.47 108.08 1551.8 108.91 1560.93 107.312C1573.02 105.196 1584 98.9528 1592.01 89.647C1600.01 80.3412 1604.54 68.5483 1604.82 56.2774C1605.11 44.0066 1601.13 32.0172 1593.56 22.352C1585.99 12.6868 1575.31 5.94388 1563.33 3.27213C1551.35 0.600376 1538.82 2.16511 1527.86 7.69971C1516.91 13.2343 1508.21 22.3964 1503.25 33.6247C1499.51 42.1033 1498.07 51.3639 1499.01 60.4823C1499.52 65.4058 1504.54 68.2019 1509.31 66.8748C1514.08 65.5478 1516.74 60.5754 1516.66 55.6265C1516.58 50.5823 1517.58 45.5434 1519.65 40.8642C1522.93 33.4293 1528.69 27.3626 1535.94 23.6979C1543.2 20.0331 1551.5 18.997 1559.43 20.7661C1567.36 22.5352 1574.44 27.0001 1579.45 33.3999C1584.46 39.7998 1587.09 47.7386 1586.9 55.8638C1586.72 63.9889 1583.72 71.7977 1578.42 77.9596C1573.12 84.1214 1565.85 88.2551 1557.84 89.6563C1552.8 90.5381 1547.67 90.3033 1542.79 89.0121C1538.01 87.7453 1532.54 89.1378 1530.11 93.4479Z"/>
</mask>
<path d="M1530.11 93.4479C1527.67 97.758 1529.18 103.306 1533.84 104.98C1542.47 108.08 1551.8 108.91 1560.93 107.312C1573.02 105.196 1584 98.9528 1592.01 89.647C1600.01 80.3412 1604.54 68.5483 1604.82 56.2774C1605.11 44.0066 1601.13 32.0172 1593.56 22.352C1585.99 12.6868 1575.31 5.94388 1563.33 3.27213C1551.35 0.600376 1538.82 2.16511 1527.86 7.69971C1516.91 13.2343 1508.21 22.3964 1503.25 33.6247C1499.51 42.1033 1498.07 51.3639 1499.01 60.4823C1499.52 65.4058 1504.54 68.2019 1509.31 66.8748C1514.08 65.5478 1516.74 60.5754 1516.66 55.6265C1516.58 50.5823 1517.58 45.5434 1519.65 40.8642C1522.93 33.4293 1528.69 27.3626 1535.94 23.6979C1543.2 20.0331 1551.5 18.997 1559.43 20.7661C1567.36 22.5352 1574.44 27.0001 1579.45 33.3999C1584.46 39.7998 1587.09 47.7386 1586.9 55.8638C1586.72 63.9889 1583.72 71.7977 1578.42 77.9596C1573.12 84.1214 1565.85 88.2551 1557.84 89.6563C1552.8 90.5381 1547.67 90.3033 1542.79 89.0121C1538.01 87.7453 1532.54 89.1378 1530.11 93.4479Z" fill="white" stroke="black" stroke-width="2" mask="url(#path-12-inside-4)"/>
<circle cx="1434.49" cy="21.0303" r="11.0303" transform="rotate(90 1434.49 21.0303)" fill="black"/>
<circle cx="1448.49" cy="97.0303" r="11.0303" transform="rotate(90 1448.49 97.0303)" fill="black"/>
<mask id="path-15-inside-5" fill="white">
<path d="M1441.97 93.4479C1439.54 97.758 1441.05 103.306 1445.71 104.98C1454.33 108.08 1463.67 108.91 1472.8 107.312C1484.89 105.196 1495.87 98.9528 1503.87 89.647C1511.88 80.3412 1516.4 68.5483 1516.69 56.2774C1516.97 44.0066 1512.99 32.0172 1505.43 22.352C1497.86 12.6868 1487.18 5.94388 1475.2 3.27213C1463.22 0.600376 1450.68 2.16511 1439.73 7.69971C1428.77 13.2343 1420.07 22.3964 1415.12 33.6247C1411.37 42.1033 1409.94 51.3639 1410.87 60.4823C1411.38 65.4058 1416.4 68.2019 1421.17 66.8748C1425.94 65.5478 1428.6 60.5754 1428.52 55.6265C1428.44 50.5823 1429.45 45.5434 1431.51 40.8642C1434.8 33.4293 1440.55 27.3626 1447.81 23.6979C1455.06 20.0331 1463.36 18.997 1471.3 20.7661C1479.23 22.5352 1486.3 27.0001 1491.31 33.3999C1496.32 39.7998 1498.96 47.7386 1498.77 55.8638C1498.58 63.9889 1495.58 71.7977 1490.28 77.9596C1484.98 84.1214 1477.71 88.2551 1469.71 89.6563C1464.67 90.5381 1459.53 90.3033 1454.66 89.0121C1449.87 87.7453 1444.41 89.1378 1441.97 93.4479Z"/>
</mask>
<path d="M1441.97 93.4479C1439.54 97.758 1441.05 103.306 1445.71 104.98C1454.33 108.08 1463.67 108.91 1472.8 107.312C1484.89 105.196 1495.87 98.9528 1503.87 89.647C1511.88 80.3412 1516.4 68.5483 1516.69 56.2774C1516.97 44.0066 1512.99 32.0172 1505.43 22.352C1497.86 12.6868 1487.18 5.94388 1475.2 3.27213C1463.22 0.600376 1450.68 2.16511 1439.73 7.69971C1428.77 13.2343 1420.07 22.3964 1415.12 33.6247C1411.37 42.1033 1409.94 51.3639 1410.87 60.4823C1411.38 65.4058 1416.4 68.2019 1421.17 66.8748C1425.94 65.5478 1428.6 60.5754 1428.52 55.6265C1428.44 50.5823 1429.45 45.5434 1431.51 40.8642C1434.8 33.4293 1440.55 27.3626 1447.81 23.6979C1455.06 20.0331 1463.36 18.997 1471.3 20.7661C1479.23 22.5352 1486.3 27.0001 1491.31 33.3999C1496.32 39.7998 1498.96 47.7386 1498.77 55.8638C1498.58 63.9889 1495.58 71.7977 1490.28 77.9596C1484.98 84.1214 1477.71 88.2551 1469.71 89.6563C1464.67 90.5381 1459.53 90.3033 1454.66 89.0121C1449.87 87.7453 1444.41 89.1378 1441.97 93.4479Z" fill="white" stroke="black" stroke-width="2" mask="url(#path-15-inside-5)"/>
<circle cx="1346.36" cy="21.0303" r="11.0303" transform="rotate(90 1346.36 21.0303)" fill="black"/>
<circle cx="1360.36" cy="97.0303" r="11.0303" transform="rotate(90 1360.36 97.0303)" fill="black"/>
<mask id="path-18-inside-6" fill="white">
<path d="M1353.84 93.4479C1351.4 97.758 1352.91 103.306 1357.57 104.98C1366.2 108.08 1375.53 108.91 1384.66 107.312C1396.75 105.196 1407.73 98.9528 1415.74 89.647C1423.74 80.3412 1428.27 68.5483 1428.55 56.2774C1428.84 44.0066 1424.86 32.0172 1417.29 22.352C1409.72 12.6868 1399.04 5.94388 1387.06 3.27213C1375.08 0.600376 1362.55 2.16511 1351.59 7.69971C1340.64 13.2343 1331.94 22.3964 1326.98 33.6247C1323.24 42.1033 1321.8 51.3639 1322.74 60.4823C1323.25 65.4058 1328.27 68.2019 1333.04 66.8748C1337.81 65.5478 1340.47 60.5754 1340.39 55.6265C1340.31 50.5823 1341.31 45.5434 1343.38 40.8642C1346.66 33.4293 1352.42 27.3626 1359.67 23.6979C1366.93 20.0331 1375.23 18.997 1383.16 20.7661C1391.09 22.5352 1398.17 27.0001 1403.18 33.3999C1408.19 39.7998 1410.82 47.7386 1410.63 55.8638C1410.45 63.9889 1407.45 71.7977 1402.15 77.9596C1396.85 84.1214 1389.58 88.2551 1381.57 89.6563C1376.53 90.5381 1371.4 90.3033 1366.52 89.0121C1361.74 87.7453 1356.27 89.1378 1353.84 93.4479Z"/>
</mask>
<path d="M1353.84 93.4479C1351.4 97.758 1352.91 103.306 1357.57 104.98C1366.2 108.08 1375.53 108.91 1384.66 107.312C1396.75 105.196 1407.73 98.9528 1415.74 89.647C1423.74 80.3412 1428.27 68.5483 1428.55 56.2774C1428.84 44.0066 1424.86 32.0172 1417.29 22.352C1409.72 12.6868 1399.04 5.94388 1387.06 3.27213C1375.08 0.600376 1362.55 2.16511 1351.59 7.69971C1340.64 13.2343 1331.94 22.3964 1326.98 33.6247C1323.24 42.1033 1321.8 51.3639 1322.74 60.4823C1323.25 65.4058 1328.27 68.2019 1333.04 66.8748C1337.81 65.5478 1340.47 60.5754 1340.39 55.6265C1340.31 50.5823 1341.31 45.5434 1343.38 40.8642C1346.66 33.4293 1352.42 27.3626 1359.67 23.6979C1366.93 20.0331 1375.23 18.997 1383.16 20.7661C1391.09 22.5352 1398.17 27.0001 1403.18 33.3999C1408.19 39.7998 1410.82 47.7386 1410.63 55.8638C1410.45 63.9889 1407.45 71.7977 1402.15 77.9596C1396.85 84.1214 1389.58 88.2551 1381.57 89.6563C1376.53 90.5381 1371.4 90.3033 1366.52 89.0121C1361.74 87.7453 1356.27 89.1378 1353.84 93.4479Z" fill="white" stroke="black" stroke-width="2" mask="url(#path-18-inside-6)"/>
<circle cx="1258.22" cy="21.0303" r="11.0303" transform="rotate(90 1258.22 21.0303)" fill="black"/>
<circle cx="1272.22" cy="97.0303" r="11.0303" transform="rotate(90 1272.22 97.0303)" fill="black"/>
<mask id="path-21-inside-7" fill="white">
<path d="M1265.7 93.4479C1263.27 97.758 1264.78 103.306 1269.44 104.98C1278.06 108.08 1287.4 108.91 1296.53 107.312C1308.62 105.196 1319.6 98.9528 1327.6 89.647C1335.61 80.3412 1340.13 68.5483 1340.42 56.2774C1340.7 44.0066 1336.72 32.0172 1329.16 22.352C1321.59 12.6868 1310.91 5.94388 1298.93 3.27213C1286.95 0.600376 1274.41 2.16511 1263.46 7.69971C1252.5 13.2343 1243.8 22.3964 1238.85 33.6247C1235.1 42.1033 1233.67 51.3639 1234.6 60.4823C1235.11 65.4058 1240.13 68.2019 1244.9 66.8748C1249.67 65.5478 1252.34 60.5754 1252.25 55.6265C1252.17 50.5823 1253.18 45.5434 1255.24 40.8642C1258.53 33.4293 1264.28 27.3626 1271.54 23.6979C1278.79 20.0331 1287.09 18.997 1295.03 20.7661C1302.96 22.5352 1310.03 27.0001 1315.04 33.3999C1320.05 39.7998 1322.69 47.7386 1322.5 55.8638C1322.31 63.9889 1319.31 71.7977 1314.01 77.9596C1308.71 84.1214 1301.44 88.2551 1293.44 89.6563C1288.4 90.5381 1283.26 90.3033 1278.39 89.0121C1273.6 87.7453 1268.14 89.1378 1265.7 93.4479Z"/>
</mask>
<path d="M1265.7 93.4479C1263.27 97.758 1264.78 103.306 1269.44 104.98C1278.06 108.08 1287.4 108.91 1296.53 107.312C1308.62 105.196 1319.6 98.9528 1327.6 89.647C1335.61 80.3412 1340.13 68.5483 1340.42 56.2774C1340.7 44.0066 1336.72 32.0172 1329.16 22.352C1321.59 12.6868 1310.91 5.94388 1298.93 3.27213C1286.95 0.600376 1274.41 2.16511 1263.46 7.69971C1252.5 13.2343 1243.8 22.3964 1238.85 33.6247C1235.1 42.1033 1233.67 51.3639 1234.6 60.4823C1235.11 65.4058 1240.13 68.2019 1244.9 66.8748C1249.67 65.5478 1252.34 60.5754 1252.25 55.6265C1252.17 50.5823 1253.18 45.5434 1255.24 40.8642C1258.53 33.4293 1264.28 27.3626 1271.54 23.6979C1278.79 20.0331 1287.09 18.997 1295.03 20.7661C1302.96 22.5352 1310.03 27.0001 1315.04 33.3999C1320.05 39.7998 1322.69 47.7386 1322.5 55.8638C1322.31 63.9889 1319.31 71.7977 1314.01 77.9596C1308.71 84.1214 1301.44 88.2551 1293.44 89.6563C1288.4 90.5381 1283.26 90.3033 1278.39 89.0121C1273.6 87.7453 1268.14 89.1378 1265.7 93.4479Z" fill="white" stroke="black" stroke-width="2" mask="url(#path-21-inside-7)"/>
<circle cx="1170.09" cy="21.0303" r="11.0303" transform="rotate(90 1170.09 21.0303)" fill="black"/>
<circle cx="1184.09" cy="97.0303" r="11.0303" transform="rotate(90 1184.09 97.0303)" fill="black"/>
<mask id="path-24-inside-8" fill="white">
<path d="M1177.57 93.4479C1175.13 97.758 1176.64 103.306 1181.3 104.98C1189.93 108.08 1199.26 108.91 1208.39 107.312C1220.48 105.196 1231.46 98.9528 1239.47 89.647C1247.47 80.3412 1252 68.5483 1252.28 56.2774C1252.57 44.0066 1248.59 32.0172 1241.02 22.352C1233.46 12.6868 1222.77 5.94388 1210.79 3.27213C1198.81 0.600376 1186.28 2.16511 1175.32 7.69971C1164.37 13.2343 1155.67 22.3964 1150.71 33.6247C1146.97 42.1033 1145.53 51.3639 1146.47 60.4823C1146.98 65.4058 1152 68.2019 1156.77 66.8748C1161.54 65.5478 1164.2 60.5754 1164.12 55.6265C1164.04 50.5823 1165.04 45.5434 1167.11 40.8642C1170.39 33.4293 1176.15 27.3626 1183.4 23.6979C1190.66 20.0331 1198.96 18.997 1206.89 20.7661C1214.82 22.5352 1221.9 27.0001 1226.91 33.3999C1231.92 39.7998 1234.55 47.7386 1234.36 55.8638C1234.18 63.9889 1231.18 71.7977 1225.88 77.9596C1220.58 84.1214 1213.31 88.2551 1205.3 89.6563C1200.26 90.5381 1195.13 90.3033 1190.25 89.0121C1185.47 87.7453 1180 89.1378 1177.57 93.4479Z"/>
</mask>
<path d="M1177.57 93.4479C1175.13 97.758 1176.64 103.306 1181.3 104.98C1189.93 108.08 1199.26 108.91 1208.39 107.312C1220.48 105.196 1231.46 98.9528 1239.47 89.647C1247.47 80.3412 1252 68.5483 1252.28 56.2774C1252.57 44.0066 1248.59 32.0172 1241.02 22.352C1233.46 12.6868 1222.77 5.94388 1210.79 3.27213C1198.81 0.600376 1186.28 2.16511 1175.32 7.69971C1164.37 13.2343 1155.67 22.3964 1150.71 33.6247C1146.97 42.1033 1145.53 51.3639 1146.47 60.4823C1146.98 65.4058 1152 68.2019 1156.77 66.8748C1161.54 65.5478 1164.2 60.5754 1164.12 55.6265C1164.04 50.5823 1165.04 45.5434 1167.11 40.8642C1170.39 33.4293 1176.15 27.3626 1183.4 23.6979C1190.66 20.0331 1198.96 18.997 1206.89 20.7661C1214.82 22.5352 1221.9 27.0001 1226.91 33.3999C1231.92 39.7998 1234.55 47.7386 1234.36 55.8638C1234.18 63.9889 1231.18 71.7977 1225.88 77.9596C1220.58 84.1214 1213.31 88.2551 1205.3 89.6563C1200.26 90.5381 1195.13 90.3033 1190.25 89.0121C1185.47 87.7453 1180 89.1378 1177.57 93.4479Z" fill="white" stroke="black" stroke-width="2" mask="url(#path-24-inside-8)"/>
<circle cx="1081.95" cy="21.0303" r="11.0303" transform="rotate(90 1081.95 21.0303)" fill="black"/>
<circle cx="1095.95" cy="97.0303" r="11.0303" transform="rotate(90 1095.95 97.0303)" fill="black"/>
<mask id="path-27-inside-9" fill="white">
<path d="M1089.43 93.4479C1087 97.758 1088.51 103.306 1093.17 104.98C1101.79 108.08 1111.13 108.91 1120.26 107.312C1132.35 105.196 1143.33 98.9528 1151.33 89.647C1159.34 80.3412 1163.87 68.5483 1164.15 56.2774C1164.43 44.0066 1160.45 32.0172 1152.89 22.352C1145.32 12.6868 1134.64 5.94388 1122.66 3.27213C1110.68 0.600376 1098.14 2.16511 1087.19 7.69971C1076.23 13.2343 1067.53 22.3964 1062.58 33.6247C1058.83 42.1033 1057.4 51.3639 1058.33 60.4823C1058.84 65.4058 1063.86 68.2019 1068.63 66.8748C1073.4 65.5478 1076.07 60.5754 1075.98 55.6265C1075.9 50.5823 1076.91 45.5434 1078.97 40.8642C1082.26 33.4293 1088.02 27.3626 1095.27 23.6979C1102.52 20.0331 1110.82 18.997 1118.76 20.7661C1126.69 22.5352 1133.76 27.0001 1138.77 33.3999C1143.78 39.7998 1146.42 47.7386 1146.23 55.8638C1146.04 63.9889 1143.04 71.7977 1137.74 77.9596C1132.44 84.1214 1125.17 88.2551 1117.17 89.6563C1112.13 90.5381 1106.99 90.3033 1102.12 89.0121C1097.33 87.7453 1091.87 89.1378 1089.43 93.4479Z"/>
</mask>
<path d="M1089.43 93.4479C1087 97.758 1088.51 103.306 1093.17 104.98C1101.79 108.08 1111.13 108.91 1120.26 107.312C1132.35 105.196 1143.33 98.9528 1151.33 89.647C1159.34 80.3412 1163.87 68.5483 1164.15 56.2774C1164.43 44.0066 1160.45 32.0172 1152.89 22.352C1145.32 12.6868 1134.64 5.94388 1122.66 3.27213C1110.68 0.600376 1098.14 2.16511 1087.19 7.69971C1076.23 13.2343 1067.53 22.3964 1062.58 33.6247C1058.83 42.1033 1057.4 51.3639 1058.33 60.4823C1058.84 65.4058 1063.86 68.2019 1068.63 66.8748C1073.4 65.5478 1076.07 60.5754 1075.98 55.6265C1075.9 50.5823 1076.91 45.5434 1078.97 40.8642C1082.26 33.4293 1088.02 27.3626 1095.27 23.6979C1102.52 20.0331 1110.82 18.997 1118.76 20.7661C1126.69 22.5352 1133.76 27.0001 1138.77 33.3999C1143.78 39.7998 1146.42 47.7386 1146.23 55.8638C1146.04 63.9889 1143.04 71.7977 1137.74 77.9596C1132.44 84.1214 1125.17 88.2551 1117.17 89.6563C1112.13 90.5381 1106.99 90.3033 1102.12 89.0121C1097.33 87.7453 1091.87 89.1378 1089.43 93.4479Z" fill="white" stroke="black" stroke-width="2" mask="url(#path-27-inside-9)"/>
<circle cx="993.82" cy="21.0303" r="11.0303" transform="rotate(90 993.82 21.0303)" fill="black"/>
<circle cx="1007.82" cy="97.0303" r="11.0303" transform="rotate(90 1007.82 97.0303)" fill="black"/>
<mask id="path-30-inside-10" fill="white">
<path d="M1001.3 93.4479C998.865 97.758 1000.37 103.306 1005.03 104.98C1013.66 108.08 1022.99 108.91 1032.12 107.312C1044.21 105.196 1055.19 98.9528 1063.2 89.647C1071.2 80.3412 1075.73 68.5483 1076.01 56.2774C1076.3 44.0066 1072.32 32.0172 1064.75 22.352C1057.19 12.6868 1046.5 5.94388 1034.52 3.27213C1022.54 0.600376 1010.01 2.16511 999.052 7.69971C988.097 13.2343 979.399 22.3964 974.442 33.6247C970.698 42.1033 969.262 51.3639 970.2 60.4823C970.707 65.4058 975.73 68.2019 980.498 66.8748C985.266 65.5478 987.931 60.5754 987.85 55.6265C987.768 50.5823 988.773 45.5434 990.839 40.8642C994.121 33.4293 999.88 27.3626 1007.13 23.6979C1014.39 20.0331 1022.69 18.997 1030.62 20.7661C1038.55 22.5352 1045.63 27.0001 1050.64 33.3999C1055.65 39.7998 1058.28 47.7386 1058.09 55.8638C1057.91 63.9889 1054.91 71.7977 1049.61 77.9596C1044.31 84.1214 1037.04 88.2551 1029.03 89.6563C1023.99 90.5381 1018.86 90.3033 1013.98 89.0121C1009.2 87.7453 1003.73 89.1378 1001.3 93.4479Z"/>
</mask>
<path d="M1001.3 93.4479C998.865 97.758 1000.37 103.306 1005.03 104.98C1013.66 108.08 1022.99 108.91 1032.12 107.312C1044.21 105.196 1055.19 98.9528 1063.2 89.647C1071.2 80.3412 1075.73 68.5483 1076.01 56.2774C1076.3 44.0066 1072.32 32.0172 1064.75 22.352C1057.19 12.6868 1046.5 5.94388 1034.52 3.27213C1022.54 0.600376 1010.01 2.16511 999.052 7.69971C988.097 13.2343 979.399 22.3964 974.442 33.6247C970.698 42.1033 969.262 51.3639 970.2 60.4823C970.707 65.4058 975.73 68.2019 980.498 66.8748C985.266 65.5478 987.931 60.5754 987.85 55.6265C987.768 50.5823 988.773 45.5434 990.839 40.8642C994.121 33.4293 999.88 27.3626 1007.13 23.6979C1014.39 20.0331 1022.69 18.997 1030.62 20.7661C1038.55 22.5352 1045.63 27.0001 1050.64 33.3999C1055.65 39.7998 1058.28 47.7386 1058.09 55.8638C1057.91 63.9889 1054.91 71.7977 1049.61 77.9596C1044.31 84.1214 1037.04 88.2551 1029.03 89.6563C1023.99 90.5381 1018.86 90.3033 1013.98 89.0121C1009.2 87.7453 1003.73 89.1378 1001.3 93.4479Z" fill="white" stroke="black" stroke-width="2" mask="url(#path-30-inside-10)"/>
<circle cx="905.685" cy="21.0303" r="11.0303" transform="rotate(90 905.685 21.0303)" fill="black"/>
<circle cx="919.683" cy="97.0303" r="11.0303" transform="rotate(90 919.683 97.0303)" fill="black"/>
<mask id="path-33-inside-11" fill="white">
<path d="M913.164 93.4479C910.73 97.758 912.238 103.306 916.896 104.98C925.523 108.08 934.857 108.91 943.987 107.312C956.077 105.196 967.059 98.9528 975.063 89.647C983.066 80.3412 987.596 68.5483 987.879 56.2774C988.162 44.0066 984.182 32.0172 976.616 22.352C969.051 12.6868 958.368 5.94388 946.388 3.27213C934.409 0.600376 921.873 2.16511 910.918 7.69971C899.962 13.2343 891.265 22.3964 886.307 33.6247C882.564 42.1033 881.127 51.3639 882.065 60.4823C882.572 65.4058 887.595 68.2019 892.363 66.8748C897.132 65.5478 899.796 60.5754 899.715 55.6265C899.633 50.5823 900.638 45.5434 902.704 40.8642C905.986 33.4293 911.745 27.3626 919 23.6979C926.254 20.0331 934.554 18.997 942.487 20.7661C950.419 22.5352 957.493 27.0001 962.502 33.3999C967.512 39.7998 970.147 47.7386 969.96 55.8638C969.772 63.9889 966.773 71.7977 961.474 77.9596C956.174 84.1214 948.902 88.2551 940.896 89.6563C935.858 90.5381 930.725 90.3033 925.848 89.0121C921.064 87.7453 915.597 89.1378 913.164 93.4479Z"/>
</mask>
<path d="M913.164 93.4479C910.73 97.758 912.238 103.306 916.896 104.98C925.523 108.08 934.857 108.91 943.987 107.312C956.077 105.196 967.059 98.9528 975.063 89.647C983.066 80.3412 987.596 68.5483 987.879 56.2774C988.162 44.0066 984.182 32.0172 976.616 22.352C969.051 12.6868 958.368 5.94388 946.388 3.27213C934.409 0.600376 921.873 2.16511 910.918 7.69971C899.962 13.2343 891.265 22.3964 886.307 33.6247C882.564 42.1033 881.127 51.3639 882.065 60.4823C882.572 65.4058 887.595 68.2019 892.363 66.8748C897.132 65.5478 899.796 60.5754 899.715 55.6265C899.633 50.5823 900.638 45.5434 902.704 40.8642C905.986 33.4293 911.745 27.3626 919 23.6979C926.254 20.0331 934.554 18.997 942.487 20.7661C950.419 22.5352 957.493 27.0001 962.502 33.3999C967.512 39.7998 970.147 47.7386 969.96 55.8638C969.772 63.9889 966.773 71.7977 961.474 77.9596C956.174 84.1214 948.902 88.2551 940.896 89.6563C935.858 90.5381 930.725 90.3033 925.848 89.0121C921.064 87.7453 915.597 89.1378 913.164 93.4479Z" fill="white" stroke="black" stroke-width="2" mask="url(#path-33-inside-11)"/>
<circle cx="817.55" cy="21.0303" r="11.0303" transform="rotate(90 817.55 21.0303)" fill="black"/>
<circle cx="831.548" cy="97.0303" r="11.0303" transform="rotate(90 831.548 97.0303)" fill="black"/>
<mask id="path-36-inside-12" fill="white">
<path d="M825.029 93.4479C822.596 97.758 824.104 103.306 828.762 104.98C837.388 108.08 846.722 108.91 855.852 107.312C867.942 105.196 878.925 98.9528 886.928 89.647C894.932 80.3412 899.461 68.5483 899.744 56.2774C900.027 44.0066 896.047 32.0172 888.482 22.352C880.916 12.6868 870.233 5.94388 858.254 3.27213C846.274 0.600376 833.738 2.16511 822.783 7.69971C811.827 13.2343 803.13 22.3964 798.172 33.6247C794.429 42.1033 792.993 51.3639 793.931 60.4823C794.437 65.4058 799.46 68.2019 804.229 66.8748C808.997 65.5478 811.661 60.5754 811.581 55.6265C811.498 50.5823 812.503 45.5434 814.569 40.8642C817.852 33.4293 823.611 27.3626 830.865 23.6979C838.119 20.0331 846.42 18.997 854.352 20.7661C862.284 22.5352 869.358 27.0001 874.368 33.3999C879.377 39.7998 882.013 47.7386 881.825 55.8638C881.638 63.9889 878.639 71.7977 873.339 77.9596C868.039 84.1214 860.767 88.2551 852.762 89.6563C847.723 90.5381 842.591 90.3033 837.714 89.0121C832.929 87.7453 827.462 89.1378 825.029 93.4479Z"/>
</mask>
<path d="M825.029 93.4479C822.596 97.758 824.104 103.306 828.762 104.98C837.388 108.08 846.722 108.91 855.852 107.312C867.942 105.196 878.925 98.9528 886.928 89.647C894.932 80.3412 899.461 68.5483 899.744 56.2774C900.027 44.0066 896.047 32.0172 888.482 22.352C880.916 12.6868 870.233 5.94388 858.254 3.27213C846.274 0.600376 833.738 2.16511 822.783 7.69971C811.827 13.2343 803.13 22.3964 798.172 33.6247C794.429 42.1033 792.993 51.3639 793.931 60.4823C794.437 65.4058 799.46 68.2019 804.229 66.8748C808.997 65.5478 811.661 60.5754 811.581 55.6265C811.498 50.5823 812.503 45.5434 814.569 40.8642C817.852 33.4293 823.611 27.3626 830.865 23.6979C838.119 20.0331 846.42 18.997 854.352 20.7661C862.284 22.5352 869.358 27.0001 874.368 33.3999C879.377 39.7998 882.013 47.7386 881.825 55.8638C881.638 63.9889 878.639 71.7977 873.339 77.9596C868.039 84.1214 860.767 88.2551 852.762 89.6563C847.723 90.5381 842.591 90.3033 837.714 89.0121C832.929 87.7453 827.462 89.1378 825.029 93.4479Z" fill="white" stroke="black" stroke-width="2" mask="url(#path-36-inside-12)"/>
<circle cx="729.416" cy="21.0303" r="11.0303" transform="rotate(90 729.416 21.0303)" fill="black"/>
<circle cx="743.414" cy="97.0303" r="11.0303" transform="rotate(90 743.414 97.0303)" fill="black"/>
<mask id="path-39-inside-13" fill="white">
<path d="M736.894 93.4479C734.461 97.758 735.969 103.306 740.627 104.98C749.253 108.08 758.588 108.91 767.717 107.312C779.807 105.196 790.79 98.9528 798.793 89.647C806.797 80.3412 811.326 68.5483 811.609 56.2774C811.893 44.0066 807.912 32.0172 800.347 22.352C792.781 12.6868 782.099 5.94388 770.119 3.27213C758.139 0.600376 745.603 2.16511 734.648 7.69971C723.693 13.2343 714.995 22.3964 710.038 33.6247C706.294 42.1033 704.858 51.3639 705.796 60.4823C706.302 65.4058 711.325 68.2019 716.094 66.8748C720.862 65.5478 723.527 60.5754 723.446 55.6265C723.364 50.5823 724.368 45.5434 726.434 40.8642C729.717 33.4293 735.476 27.3626 742.73 23.6979C749.984 20.0331 758.285 18.997 766.217 20.7661C774.15 22.5352 781.223 27.0001 786.233 33.3999C791.242 39.7998 793.878 47.7386 793.69 55.8638C793.503 63.9889 790.504 71.7977 785.204 77.9596C779.905 84.1214 772.633 88.2551 764.627 89.6563C759.589 90.5381 754.456 90.3033 749.579 89.0121C744.794 87.7453 739.328 89.1378 736.894 93.4479Z"/>
</mask>
<path d="M736.894 93.4479C734.461 97.758 735.969 103.306 740.627 104.98C749.253 108.08 758.588 108.91 767.717 107.312C779.807 105.196 790.79 98.9528 798.793 89.647C806.797 80.3412 811.326 68.5483 811.609 56.2774C811.893 44.0066 807.912 32.0172 800.347 22.352C792.781 12.6868 782.099 5.94388 770.119 3.27213C758.139 0.600376 745.603 2.16511 734.648 7.69971C723.693 13.2343 714.995 22.3964 710.038 33.6247C706.294 42.1033 704.858 51.3639 705.796 60.4823C706.302 65.4058 711.325 68.2019 716.094 66.8748C720.862 65.5478 723.527 60.5754 723.446 55.6265C723.364 50.5823 724.368 45.5434 726.434 40.8642C729.717 33.4293 735.476 27.3626 742.73 23.6979C749.984 20.0331 758.285 18.997 766.217 20.7661C774.15 22.5352 781.223 27.0001 786.233 33.3999C791.242 39.7998 793.878 47.7386 793.69 55.8638C793.503 63.9889 790.504 71.7977 785.204 77.9596C779.905 84.1214 772.633 88.2551 764.627 89.6563C759.589 90.5381 754.456 90.3033 749.579 89.0121C744.794 87.7453 739.328 89.1378 736.894 93.4479Z" fill="white" stroke="black" stroke-width="2" mask="url(#path-39-inside-13)"/>
<circle cx="641.281" cy="21.0303" r="11.0303" transform="rotate(90 641.281 21.0303)" fill="black"/>
<circle cx="655.279" cy="97.0303" r="11.0303" transform="rotate(90 655.279 97.0303)" fill="black"/>
<mask id="path-42-inside-14" fill="white">
<path d="M648.759 93.4479C646.326 97.758 647.834 103.306 652.492 104.98C661.118 108.08 670.453 108.91 679.582 107.312C691.673 105.196 702.655 98.9528 710.659 89.647C718.662 80.3412 723.191 68.5483 723.475 56.2774C723.758 44.0066 719.778 32.0172 712.212 22.352C704.647 12.6868 693.964 5.94388 681.984 3.27213C670.004 0.600376 657.469 2.16511 646.513 7.69971C635.558 13.2343 626.86 22.3964 621.903 33.6247C618.159 42.1033 616.723 51.3639 617.661 60.4823C618.168 65.4058 623.191 68.2019 627.959 66.8748C632.727 65.5478 635.392 60.5754 635.311 55.6265C635.229 50.5823 636.234 45.5434 638.299 40.8642C641.582 33.4293 647.341 27.3626 654.595 23.6979C661.85 20.0331 670.15 18.997 678.082 20.7661C686.015 22.5352 693.089 27.0001 698.098 33.3999C703.108 39.7998 705.743 47.7386 705.556 55.8638C705.368 63.9889 702.369 71.7977 697.069 77.9596C691.77 84.1214 684.498 88.2551 676.492 89.6563C671.454 90.5381 666.321 90.3033 661.444 89.0121C656.66 87.7453 651.193 89.1378 648.759 93.4479Z"/>
</mask>
<path d="M648.759 93.4479C646.326 97.758 647.834 103.306 652.492 104.98C661.118 108.08 670.453 108.91 679.582 107.312C691.673 105.196 702.655 98.9528 710.659 89.647C718.662 80.3412 723.191 68.5483 723.475 56.2774C723.758 44.0066 719.778 32.0172 712.212 22.352C704.647 12.6868 693.964 5.94388 681.984 3.27213C670.004 0.600376 657.469 2.16511 646.513 7.69971C635.558 13.2343 626.86 22.3964 621.903 33.6247C618.159 42.1033 616.723 51.3639 617.661 60.4823C618.168 65.4058 623.191 68.2019 627.959 66.8748C632.727 65.5478 635.392 60.5754 635.311 55.6265C635.229 50.5823 636.234 45.5434 638.299 40.8642C641.582 33.4293 647.341 27.3626 654.595 23.6979C661.85 20.0331 670.15 18.997 678.082 20.7661C686.015 22.5352 693.089 27.0001 698.098 33.3999C703.108 39.7998 705.743 47.7386 705.556 55.8638C705.368 63.9889 702.369 71.7977 697.069 77.9596C691.77 84.1214 684.498 88.2551 676.492 89.6563C671.454 90.5381 666.321 90.3033 661.444 89.0121C656.66 87.7453 651.193 89.1378 648.759 93.4479Z" fill="white" stroke="black" stroke-width="2" mask="url(#path-42-inside-14)"/>
<circle cx="553.146" cy="21.0303" r="11.0303" transform="rotate(90 553.146 21.0303)" fill="black"/>
<circle cx="567.144" cy="97.0303" r="11.0303" transform="rotate(90 567.144 97.0303)" fill="black"/>
<mask id="path-45-inside-15" fill="white">
<path d="M560.625 93.4479C558.191 97.758 559.699 103.306 564.357 104.98C572.984 108.08 582.318 108.91 591.447 107.312C603.538 105.196 614.52 98.9528 622.524 89.647C630.527 80.3412 635.057 68.5483 635.34 56.2774C635.623 44.0066 631.643 32.0172 624.077 22.352C616.512 12.6868 605.829 5.94388 593.849 3.27213C581.869 0.600376 569.334 2.16511 558.378 7.69971C547.423 13.2343 538.726 22.3964 533.768 33.6247C530.025 42.1033 528.588 51.3639 529.526 60.4823C530.033 65.4058 535.056 68.2019 539.824 66.8748C544.593 65.5478 547.257 60.5754 547.176 55.6265C547.094 50.5823 548.099 45.5434 550.165 40.8642C553.447 33.4293 559.206 27.3626 566.461 23.6979C573.715 20.0331 582.015 18.997 589.948 20.7661C597.88 22.5352 604.954 27.0001 609.963 33.3999C614.973 39.7998 617.608 47.7386 617.421 55.8638C617.233 63.9889 614.234 71.7977 608.935 77.9596C603.635 84.1214 596.363 88.2551 588.357 89.6563C583.319 90.5381 578.186 90.3033 573.309 89.0121C568.525 87.7453 563.058 89.1378 560.625 93.4479Z"/>
</mask>
<path d="M560.625 93.4479C558.191 97.758 559.699 103.306 564.357 104.98C572.984 108.08 582.318 108.91 591.447 107.312C603.538 105.196 614.52 98.9528 622.524 89.647C630.527 80.3412 635.057 68.5483 635.34 56.2774C635.623 44.0066 631.643 32.0172 624.077 22.352C616.512 12.6868 605.829 5.94388 593.849 3.27213C581.869 0.600376 569.334 2.16511 558.378 7.69971C547.423 13.2343 538.726 22.3964 533.768 33.6247C530.025 42.1033 528.588 51.3639 529.526 60.4823C530.033 65.4058 535.056 68.2019 539.824 66.8748C544.593 65.5478 547.257 60.5754 547.176 55.6265C547.094 50.5823 548.099 45.5434 550.165 40.8642C553.447 33.4293 559.206 27.3626 566.461 23.6979C573.715 20.0331 582.015 18.997 589.948 20.7661C597.88 22.5352 604.954 27.0001 609.963 33.3999C614.973 39.7998 617.608 47.7386 617.421 55.8638C617.233 63.9889 614.234 71.7977 608.935 77.9596C603.635 84.1214 596.363 88.2551 588.357 89.6563C583.319 90.5381 578.186 90.3033 573.309 89.0121C568.525 87.7453 563.058 89.1378 560.625 93.4479Z" fill="white" stroke="black" stroke-width="2" mask="url(#path-45-inside-15)"/>
<circle cx="465.013" cy="21.0303" r="11.0303" transform="rotate(90 465.013 21.0303)" fill="black"/>
<circle cx="479.011" cy="97.0303" r="11.0303" transform="rotate(90 479.011 97.0303)" fill="black"/>
<mask id="path-48-inside-16" fill="white">
<path d="M472.492 93.4479C470.059 97.758 471.567 103.306 476.224 104.98C484.851 108.08 494.185 108.91 503.315 107.312C515.405 105.196 526.388 98.9528 534.391 89.647C542.395 80.3412 546.924 68.5483 547.207 56.2774C547.49 44.0066 543.51 32.0172 535.945 22.352C528.379 12.6868 517.696 5.94388 505.716 3.27213C493.737 0.600376 481.201 2.16511 470.246 7.69971C459.29 13.2343 450.593 22.3964 445.635 33.6247C441.892 42.1033 440.456 51.3639 441.394 60.4823C441.9 65.4058 446.923 68.2019 451.691 66.8748C456.46 65.5478 459.124 60.5754 459.044 55.6265C458.961 50.5823 459.966 45.5434 462.032 40.8642C465.315 33.4293 471.074 27.3626 478.328 23.6979C485.582 20.0331 493.882 18.997 501.815 20.7661C509.747 22.5352 516.821 27.0001 521.831 33.3999C526.84 39.7998 529.476 47.7386 529.288 55.8638C529.1 63.9889 526.101 71.7977 520.802 77.9596C515.502 84.1214 508.23 88.2551 500.225 89.6563C495.186 90.5381 490.053 90.3033 485.177 89.0121C480.392 87.7453 474.925 89.1378 472.492 93.4479Z"/>
</mask>
<path d="M472.492 93.4479C470.059 97.758 471.567 103.306 476.224 104.98C484.851 108.08 494.185 108.91 503.315 107.312C515.405 105.196 526.388 98.9528 534.391 89.647C542.395 80.3412 546.924 68.5483 547.207 56.2774C547.49 44.0066 543.51 32.0172 535.945 22.352C528.379 12.6868 517.696 5.94388 505.716 3.27213C493.737 0.600376 481.201 2.16511 470.246 7.69971C459.29 13.2343 450.593 22.3964 445.635 33.6247C441.892 42.1033 440.456 51.3639 441.394 60.4823C441.9 65.4058 446.923 68.2019 451.691 66.8748C456.46 65.5478 459.124 60.5754 459.044 55.6265C458.961 50.5823 459.966 45.5434 462.032 40.8642C465.315 33.4293 471.074 27.3626 478.328 23.6979C485.582 20.0331 493.882 18.997 501.815 20.7661C509.747 22.5352 516.821 27.0001 521.831 33.3999C526.84 39.7998 529.476 47.7386 529.288 55.8638C529.1 63.9889 526.101 71.7977 520.802 77.9596C515.502 84.1214 508.23 88.2551 500.225 89.6563C495.186 90.5381 490.053 90.3033 485.177 89.0121C480.392 87.7453 474.925 89.1378 472.492 93.4479Z" fill="white" stroke="black" stroke-width="2" mask="url(#path-48-inside-16)"/>
<circle cx="376.88" cy="21.0303" r="11.0303" transform="rotate(90 376.88 21.0303)" fill="black"/>
<circle cx="390.878" cy="97.0303" r="11.0303" transform="rotate(90 390.878 97.0303)" fill="black"/>
<mask id="path-51-inside-17" fill="white">
<path d="M384.359 93.4479C381.926 97.758 383.434 103.306 388.092 104.98C396.718 108.08 406.052 108.91 415.182 107.312C427.272 105.196 438.255 98.9528 446.258 89.647C454.262 80.3412 458.791 68.5483 459.074 56.2774C459.358 44.0066 455.377 32.0172 447.812 22.352C440.246 12.6868 429.563 5.94388 417.584 3.27213C405.604 0.600376 393.068 2.16511 382.113 7.69971C371.157 13.2343 362.46 22.3964 357.502 33.6247C353.759 42.1033 352.323 51.3639 353.261 60.4823C353.767 65.4058 358.79 68.2019 363.559 66.8748C368.327 65.5478 370.991 60.5754 370.911 55.6265C370.828 50.5823 371.833 45.5434 373.899 40.8642C377.182 33.4293 382.941 27.3626 390.195 23.6979C397.449 20.0331 405.75 18.997 413.682 20.7661C421.615 22.5352 428.688 27.0001 433.698 33.3999C438.707 39.7998 441.343 47.7386 441.155 55.8638C440.968 63.9889 437.969 71.7977 432.669 77.9596C427.37 84.1214 420.097 88.2551 412.092 89.6563C407.053 90.5381 401.921 90.3033 397.044 89.0121C392.259 87.7453 386.792 89.1378 384.359 93.4479Z"/>
</mask>
<path d="M384.359 93.4479C381.926 97.758 383.434 103.306 388.092 104.98C396.718 108.08 406.052 108.91 415.182 107.312C427.272 105.196 438.255 98.9528 446.258 89.647C454.262 80.3412 458.791 68.5483 459.074 56.2774C459.358 44.0066 455.377 32.0172 447.812 22.352C440.246 12.6868 429.563 5.94388 417.584 3.27213C405.604 0.600376 393.068 2.16511 382.113 7.69971C371.157 13.2343 362.46 22.3964 357.502 33.6247C353.759 42.1033 352.323 51.3639 353.261 60.4823C353.767 65.4058 358.79 68.2019 363.559 66.8748C368.327 65.5478 370.991 60.5754 370.911 55.6265C370.828 50.5823 371.833 45.5434 373.899 40.8642C377.182 33.4293 382.941 27.3626 390.195 23.6979C397.449 20.0331 405.75 18.997 413.682 20.7661C421.615 22.5352 428.688 27.0001 433.698 33.3999C438.707 39.7998 441.343 47.7386 441.155 55.8638C440.968 63.9889 437.969 71.7977 432.669 77.9596C427.37 84.1214 420.097 88.2551 412.092 89.6563C407.053 90.5381 401.921 90.3033 397.044 89.0121C392.259 87.7453 386.792 89.1378 384.359 93.4479Z" fill="white" stroke="black" stroke-width="2" mask="url(#path-51-inside-17)"/>
<circle cx="288.748" cy="21.0303" r="11.0303" transform="rotate(90 288.748 21.0303)" fill="black"/>
<circle cx="302.746" cy="97.0303" r="11.0303" transform="rotate(90 302.746 97.0303)" fill="black"/>
<mask id="path-54-inside-18" fill="white">
<path d="M296.226 93.4479C293.793 97.758 295.301 103.306 299.959 104.98C308.585 108.08 317.92 108.91 327.049 107.312C339.139 105.196 350.122 98.9528 358.125 89.647C366.129 80.3412 370.658 68.5483 370.941 56.2774C371.225 44.0066 367.244 32.0172 359.679 22.352C352.113 12.6868 341.431 5.94388 329.451 3.27213C317.471 0.600376 304.935 2.16511 293.98 7.69971C283.025 13.2343 274.327 22.3964 269.37 33.6247C265.626 42.1033 264.19 51.3639 265.128 60.4823C265.634 65.4058 270.658 68.2019 275.426 66.8748C280.194 65.5478 282.859 60.5754 282.778 55.6265C282.696 50.5823 283.7 45.5434 285.766 40.8642C289.049 33.4293 294.808 27.3626 302.062 23.6979C309.316 20.0331 317.617 18.997 325.549 20.7661C333.482 22.5352 340.555 27.0001 345.565 33.3999C350.574 39.7998 353.21 47.7386 353.022 55.8638C352.835 63.9889 349.836 71.7977 344.536 77.9596C339.237 84.1214 331.965 88.2551 323.959 89.6563C318.921 90.5381 313.788 90.3033 308.911 89.0121C304.126 87.7453 298.66 89.1378 296.226 93.4479Z"/>
</mask>
<path d="M296.226 93.4479C293.793 97.758 295.301 103.306 299.959 104.98C308.585 108.08 317.92 108.91 327.049 107.312C339.139 105.196 350.122 98.9528 358.125 89.647C366.129 80.3412 370.658 68.5483 370.941 56.2774C371.225 44.0066 367.244 32.0172 359.679 22.352C352.113 12.6868 341.431 5.94388 329.451 3.27213C317.471 0.600376 304.935 2.16511 293.98 7.69971C283.025 13.2343 274.327 22.3964 269.37 33.6247C265.626 42.1033 264.19 51.3639 265.128 60.4823C265.634 65.4058 270.658 68.2019 275.426 66.8748C280.194 65.5478 282.859 60.5754 282.778 55.6265C282.696 50.5823 283.7 45.5434 285.766 40.8642C289.049 33.4293 294.808 27.3626 302.062 23.6979C309.316 20.0331 317.617 18.997 325.549 20.7661C333.482 22.5352 340.555 27.0001 345.565 33.3999C350.574 39.7998 353.21 47.7386 353.022 55.8638C352.835 63.9889 349.836 71.7977 344.536 77.9596C339.237 84.1214 331.965 88.2551 323.959 89.6563C318.921 90.5381 313.788 90.3033 308.911 89.0121C304.126 87.7453 298.66 89.1378 296.226 93.4479Z" fill="white" stroke="black" stroke-width="2" mask="url(#path-54-inside-18)"/>
<circle cx="200.615" cy="21.0303" r="11.0303" transform="rotate(90 200.615 21.0303)" fill="black"/>
<circle cx="214.613" cy="97.0303" r="11.0303" transform="rotate(90 214.613 97.0303)" fill="black"/>
<mask id="path-57-inside-19" fill="white">
<path d="M208.093 93.4479C205.66 97.758 207.168 103.306 211.826 104.98C220.452 108.08 229.787 108.91 238.916 107.312C251.007 105.196 261.989 98.9528 269.993 89.647C277.996 80.3412 282.525 68.5483 282.809 56.2774C283.092 44.0066 279.112 32.0172 271.546 22.352C263.981 12.6868 253.298 5.94388 241.318 3.27213C229.338 0.600376 216.803 2.16511 205.847 7.69971C194.892 13.2343 186.194 22.3964 181.237 33.6247C177.493 42.1033 176.057 51.3639 176.995 60.4823C177.502 65.4058 182.525 68.2019 187.293 66.8748C192.061 65.5478 194.726 60.5754 194.645 55.6265C194.563 50.5823 195.567 45.5434 197.633 40.8642C200.916 33.4293 206.675 27.3626 213.929 23.6979C221.184 20.0331 229.484 18.997 237.416 20.7661C245.349 22.5352 252.423 27.0001 257.432 33.3999C262.442 39.7998 265.077 47.7386 264.89 55.8638C264.702 63.9889 261.703 71.7977 256.403 77.9596C251.104 84.1214 243.832 88.2551 235.826 89.6563C230.788 90.5381 225.655 90.3033 220.778 89.0121C215.993 87.7453 210.527 89.1378 208.093 93.4479Z"/>
</mask>
<path d="M208.093 93.4479C205.66 97.758 207.168 103.306 211.826 104.98C220.452 108.08 229.787 108.91 238.916 107.312C251.007 105.196 261.989 98.9528 269.993 89.647C277.996 80.3412 282.525 68.5483 282.809 56.2774C283.092 44.0066 279.112 32.0172 271.546 22.352C263.981 12.6868 253.298 5.94388 241.318 3.27213C229.338 0.600376 216.803 2.16511 205.847 7.69971C194.892 13.2343 186.194 22.3964 181.237 33.6247C177.493 42.1033 176.057 51.3639 176.995 60.4823C177.502 65.4058 182.525 68.2019 187.293 66.8748C192.061 65.5478 194.726 60.5754 194.645 55.6265C194.563 50.5823 195.567 45.5434 197.633 40.8642C200.916 33.4293 206.675 27.3626 213.929 23.6979C221.184 20.0331 229.484 18.997 237.416 20.7661C245.349 22.5352 252.423 27.0001 257.432 33.3999C262.442 39.7998 265.077 47.7386 264.89 55.8638C264.702 63.9889 261.703 71.7977 256.403 77.9596C251.104 84.1214 243.832 88.2551 235.826 89.6563C230.788 90.5381 225.655 90.3033 220.778 89.0121C215.993 87.7453 210.527 89.1378 208.093 93.4479Z" fill="white" stroke="black" stroke-width="2" mask="url(#path-57-inside-19)"/>
<circle cx="112.482" cy="21.0303" r="11.0303" transform="rotate(90 112.482 21.0303)" fill="black"/>
<circle cx="126.48" cy="97.0303" r="11.0303" transform="rotate(90 126.48 97.0303)" fill="black"/>
<mask id="path-60-inside-20" fill="white">
<path d="M119.961 93.4479C117.527 97.758 119.035 103.306 123.693 104.98C132.319 108.08 141.654 108.91 150.783 107.312C162.874 105.196 173.856 98.9528 181.86 89.647C189.863 80.3412 194.393 68.5483 194.676 56.2774C194.959 44.0066 190.979 32.0172 183.413 22.352C175.848 12.6868 165.165 5.94388 153.185 3.27213C141.205 0.600376 128.67 2.16511 117.714 7.69971C106.759 13.2343 98.0615 22.3964 93.1039 33.6247C89.3605 42.1033 87.9243 51.3639 88.8623 60.4823C89.3688 65.4058 94.3919 68.2019 99.1602 66.8748C103.928 65.5478 106.593 60.5754 106.512 55.6265C106.43 50.5823 107.435 45.5434 109.501 40.8642C112.783 33.4293 118.542 27.3626 125.797 23.6979C133.051 20.0331 141.351 18.997 149.284 20.7661C157.216 22.5352 164.29 27.0001 169.299 33.3999C174.309 39.7998 176.944 47.7386 176.757 55.8638C176.569 63.9889 173.57 71.7977 168.271 77.9596C162.971 84.1214 155.699 88.2551 147.693 89.6563C142.655 90.5381 137.522 90.3033 132.645 89.0121C127.861 87.7453 122.394 89.1378 119.961 93.4479Z"/>
</mask>
<path d="M119.961 93.4479C117.527 97.758 119.035 103.306 123.693 104.98C132.319 108.08 141.654 108.91 150.783 107.312C162.874 105.196 173.856 98.9528 181.86 89.647C189.863 80.3412 194.393 68.5483 194.676 56.2774C194.959 44.0066 190.979 32.0172 183.413 22.352C175.848 12.6868 165.165 5.94388 153.185 3.27213C141.205 0.600376 128.67 2.16511 117.714 7.69971C106.759 13.2343 98.0615 22.3964 93.1039 33.6247C89.3605 42.1033 87.9243 51.3639 88.8623 60.4823C89.3688 65.4058 94.3919 68.2019 99.1602 66.8748C103.928 65.5478 106.593 60.5754 106.512 55.6265C106.43 50.5823 107.435 45.5434 109.501 40.8642C112.783 33.4293 118.542 27.3626 125.797 23.6979C133.051 20.0331 141.351 18.997 149.284 20.7661C157.216 22.5352 164.29 27.0001 169.299 33.3999C174.309 39.7998 176.944 47.7386 176.757 55.8638C176.569 63.9889 173.57 71.7977 168.271 77.9596C162.971 84.1214 155.699 88.2551 147.693 89.6563C142.655 90.5381 137.522 90.3033 132.645 89.0121C127.861 87.7453 122.394 89.1378 119.961 93.4479Z" fill="white" stroke="black" stroke-width="2" mask="url(#path-60-inside-20)"/>
<circle cx="24.3491" cy="19.0303" r="11.0303" transform="rotate(90 24.3491 19.0303)" fill="black"/>
<circle cx="38.3471" cy="95.0303" r="11.0303" transform="rotate(90 38.3471 95.0303)" fill="black"/>
<mask id="path-63-inside-21" fill="white">
<path d="M31.8278 91.4479C29.3945 95.758 30.9025 101.306 35.5604 102.98C44.1866 106.08 53.5212 106.91 62.6506 105.312C74.7409 103.196 85.7235 96.9528 93.727 87.647C101.73 78.3412 106.26 66.5483 106.543 54.2774C106.826 42.0066 102.846 30.0172 95.2805 20.352C87.7149 10.6868 77.0321 3.94388 65.0524 1.27213C53.0726 -1.39962 40.537 0.165109 29.5816 5.69971C18.6261 11.2343 9.92866 20.3964 4.97111 31.6247C1.22765 40.1033 -0.208491 49.3639 0.729513 58.4823C1.236 63.4058 6.25908 66.2019 11.0274 64.8748C15.7957 63.5478 18.4602 58.5754 18.3795 53.6265C18.2972 48.5823 19.3019 43.5434 21.3678 38.8642C24.6505 31.4293 30.4095 25.3626 37.6637 21.6979C44.9179 18.0331 53.2184 16.997 61.1508 18.7661C69.0833 20.5352 76.1569 25.0001 81.1665 31.3999C86.176 37.7998 88.8116 45.7386 88.624 53.8638C88.4364 61.9889 85.4374 69.7977 80.1378 75.9596C74.8383 82.1214 67.5661 86.2551 59.5605 87.6563C54.5221 88.5381 49.3894 88.3033 44.5125 87.0121C39.7279 85.7453 34.2611 87.1378 31.8278 91.4479Z"/>
</mask>
<path d="M31.8278 91.4479C29.3945 95.758 30.9025 101.306 35.5604 102.98C44.1866 106.08 53.5212 106.91 62.6506 105.312C74.7409 103.196 85.7235 96.9528 93.727 87.647C101.73 78.3412 106.26 66.5483 106.543 54.2774C106.826 42.0066 102.846 30.0172 95.2805 20.352C87.7149 10.6868 77.0321 3.94388 65.0524 1.27213C53.0726 -1.39962 40.537 0.165109 29.5816 5.69971C18.6261 11.2343 9.92866 20.3964 4.97111 31.6247C1.22765 40.1033 -0.208491 49.3639 0.729513 58.4823C1.236 63.4058 6.25908 66.2019 11.0274 64.8748C15.7957 63.5478 18.4602 58.5754 18.3795 53.6265C18.2972 48.5823 19.3019 43.5434 21.3678 38.8642C24.6505 31.4293 30.4095 25.3626 37.6637 21.6979C44.9179 18.0331 53.2184 16.997 61.1508 18.7661C69.0833 20.5352 76.1569 25.0001 81.1665 31.3999C86.176 37.7998 88.8116 45.7386 88.624 53.8638C88.4364 61.9889 85.4374 69.7977 80.1378 75.9596C74.8383 82.1214 67.5661 86.2551 59.5605 87.6563C54.5221 88.5381 49.3894 88.3033 44.5125 87.0121C39.7279 85.7453 34.2611 87.1378 31.8278 91.4479Z" fill="white" stroke="black" stroke-width="2" mask="url(#path-63-inside-21)"/>
<rect x="2" y="56" width="15" height="14" fill="white"/>
</svg>
