<svg width="1920" height="1059" viewBox="0 0 1920 1059" fill="none" xmlns="http://www.w3.org/2000/svg">
<rect x="178.802" y="18.4683" width="1" height="18" rx="0.5" transform="rotate(-9.5 178.802 18.4683)" fill="white"/>
<rect x="178.787" y="151.387" width="1" height="18" rx="0.5" transform="rotate(-9.5 178.787 151.387)" fill="white"/>
<rect x="178.787" y="284.305" width="1" height="18" rx="0.5" transform="rotate(-9.5 178.787 284.305)" fill="white"/>
<rect x="178.787" y="417.223" width="1" height="18" rx="0.5" transform="rotate(-9.5 178.787 417.223)" fill="white"/>
<rect x="178.787" y="550.141" width="1" height="18" rx="0.5" transform="rotate(-9.5 178.787 550.141)" fill="white"/>
<rect x="178.783" y="683.059" width="1" height="18" rx="0.5" transform="rotate(-9.5 178.783 683.059)" fill="white"/>
<rect x="178.787" y="815.977" width="1" height="18" rx="0.5" transform="rotate(-9.5 178.787 815.977)" fill="white"/>
<rect x="303.802" y="91.4683" width="1" height="18" rx="0.5" transform="rotate(-9.5 303.802 91.4683)" fill="white"/>
<rect x="303.787" y="224.387" width="1" height="18" rx="0.5" transform="rotate(-9.5 303.787 224.387)" fill="white"/>
<rect x="303.787" y="357.305" width="1" height="18" rx="0.5" transform="rotate(-9.5 303.787 357.305)" fill="white"/>
<rect x="303.787" y="490.223" width="1" height="18" rx="0.5" transform="rotate(-9.5 303.787 490.223)" fill="white"/>
<rect x="303.787" y="623.141" width="1" height="18" rx="0.5" transform="rotate(-9.5 303.787 623.141)" fill="white"/>
<rect x="303.783" y="756.059" width="1" height="18" rx="0.5" transform="rotate(-9.5 303.783 756.059)" fill="white"/>
<rect x="303.787" y="888.977" width="1" height="18" rx="0.5" transform="rotate(-9.5 303.787 888.977)" fill="white"/>
<rect x="437.802" y="0.468262" width="1" height="18" rx="0.5" transform="rotate(-9.5 437.802 0.468262)" fill="white"/>
<rect x="437.787" y="133.387" width="1" height="18" rx="0.5" transform="rotate(-9.5 437.787 133.387)" fill="white"/>
<rect x="437.787" y="266.305" width="1" height="18" rx="0.5" transform="rotate(-9.5 437.787 266.305)" fill="white"/>
<rect x="437.787" y="399.223" width="1" height="18" rx="0.5" transform="rotate(-9.5 437.787 399.223)" fill="white"/>
<rect x="437.787" y="532.141" width="1" height="18" rx="0.5" transform="rotate(-9.5 437.787 532.141)" fill="white"/>
<rect x="437.783" y="665.059" width="1" height="18" rx="0.5" transform="rotate(-9.5 437.783 665.059)" fill="white"/>
<rect x="437.787" y="797.977" width="1" height="18" rx="0.5" transform="rotate(-9.5 437.787 797.977)" fill="white"/>
<rect x="529.802" y="200.468" width="1" height="18" rx="0.5" transform="rotate(-9.5 529.802 200.468)" fill="white"/>
<rect x="529.787" y="333.387" width="1" height="18" rx="0.5" transform="rotate(-9.5 529.787 333.387)" fill="white"/>
<rect x="529.787" y="466.305" width="1" height="18" rx="0.5" transform="rotate(-9.5 529.787 466.305)" fill="white"/>
<rect x="529.787" y="599.223" width="1" height="18" rx="0.5" transform="rotate(-9.5 529.787 599.223)" fill="white"/>
<rect x="529.787" y="732.141" width="1" height="18" rx="0.5" transform="rotate(-9.5 529.787 732.141)" fill="white"/>
<rect x="529.783" y="865.059" width="1" height="18" rx="0.5" transform="rotate(-9.5 529.783 865.059)" fill="white"/>
<rect x="529.787" y="997.977" width="1" height="18" rx="0.5" transform="rotate(-9.5 529.787 997.977)" fill="white"/>
<rect x="659.802" y="111.468" width="1" height="18" rx="0.5" transform="rotate(-9.5 659.802 111.468)" fill="white"/>
<rect x="659.787" y="244.387" width="1" height="18" rx="0.5" transform="rotate(-9.5 659.787 244.387)" fill="white"/>
<rect x="659.787" y="377.305" width="1" height="18" rx="0.5" transform="rotate(-9.5 659.787 377.305)" fill="white"/>
<rect x="659.787" y="510.223" width="1" height="18" rx="0.5" transform="rotate(-9.5 659.787 510.223)" fill="white"/>
<rect x="659.787" y="643.141" width="1" height="18" rx="0.5" transform="rotate(-9.5 659.787 643.141)" fill="white"/>
<rect x="659.783" y="776.059" width="1" height="18" rx="0.5" transform="rotate(-9.5 659.783 776.059)" fill="white"/>
<rect x="659.787" y="908.977" width="1" height="18" rx="0.5" transform="rotate(-9.5 659.787 908.977)" fill="white"/>
<rect x="755.802" y="156.468" width="1" height="18" rx="0.5" transform="rotate(-9.5 755.802 156.468)" fill="white"/>
<rect x="755.787" y="289.387" width="1" height="18" rx="0.5" transform="rotate(-9.5 755.787 289.387)" fill="white"/>
<rect x="755.787" y="422.305" width="1" height="18" rx="0.5" transform="rotate(-9.5 755.787 422.305)" fill="white"/>
<rect x="755.787" y="555.223" width="1" height="18" rx="0.5" transform="rotate(-9.5 755.787 555.223)" fill="white"/>
<rect x="755.787" y="688.141" width="1" height="18" rx="0.5" transform="rotate(-9.5 755.787 688.141)" fill="white"/>
<rect x="755.783" y="821.059" width="1" height="18" rx="0.5" transform="rotate(-9.5 755.783 821.059)" fill="white"/>
<rect x="755.787" y="953.977" width="1" height="18" rx="0.5" transform="rotate(-9.5 755.787 953.977)" fill="white"/>
<rect x="861.802" y="242.468" width="1" height="18" rx="0.5" transform="rotate(-9.5 861.802 242.468)" fill="white"/>
<rect x="861.787" y="375.387" width="1" height="18" rx="0.5" transform="rotate(-9.5 861.787 375.387)" fill="white"/>
<rect x="861.787" y="508.305" width="1" height="18" rx="0.5" transform="rotate(-9.5 861.787 508.305)" fill="white"/>
<rect x="861.787" y="641.223" width="1" height="18" rx="0.5" transform="rotate(-9.5 861.787 641.223)" fill="white"/>
<rect x="861.787" y="774.141" width="1" height="18" rx="0.5" transform="rotate(-9.5 861.787 774.141)" fill="white"/>
<rect x="861.783" y="907.059" width="1" height="18" rx="0.5" transform="rotate(-9.5 861.783 907.059)" fill="white"/>
<rect x="861.787" y="1039.98" width="1" height="18" rx="0.5" transform="rotate(-9.5 861.787 1039.98)" fill="white"/>
<rect x="991.802" y="160.468" width="1" height="18" rx="0.5" transform="rotate(-9.5 991.802 160.468)" fill="white"/>
<rect x="991.787" y="293.387" width="1" height="18" rx="0.5" transform="rotate(-9.5 991.787 293.387)" fill="white"/>
<rect x="991.787" y="426.305" width="1" height="18" rx="0.5" transform="rotate(-9.5 991.787 426.305)" fill="white"/>
<rect x="991.787" y="559.223" width="1" height="18" rx="0.5" transform="rotate(-9.5 991.787 559.223)" fill="white"/>
<rect x="991.787" y="692.141" width="1" height="18" rx="0.5" transform="rotate(-9.5 991.787 692.141)" fill="white"/>
<rect x="991.783" y="825.059" width="1" height="18" rx="0.5" transform="rotate(-9.5 991.783 825.059)" fill="white"/>
<rect x="991.787" y="957.977" width="1" height="18" rx="0.5" transform="rotate(-9.5 991.787 957.977)" fill="white"/>
<rect x="1130.8" y="213.468" width="1" height="18" rx="0.5" transform="rotate(-9.5 1130.8 213.468)" fill="white"/>
<rect x="1130.79" y="346.387" width="1" height="18" rx="0.5" transform="rotate(-9.5 1130.79 346.387)" fill="white"/>
<rect x="1130.79" y="479.305" width="1" height="18" rx="0.5" transform="rotate(-9.5 1130.79 479.305)" fill="white"/>
<rect x="1130.79" y="612.223" width="1" height="18" rx="0.5" transform="rotate(-9.5 1130.79 612.223)" fill="white"/>
<rect x="1130.79" y="745.141" width="1" height="18" rx="0.5" transform="rotate(-9.5 1130.79 745.141)" fill="white"/>
<rect x="1130.78" y="878.059" width="1" height="18" rx="0.5" transform="rotate(-9.5 1130.78 878.059)" fill="white"/>
<rect x="1130.79" y="1010.98" width="1" height="18" rx="0.5" transform="rotate(-9.5 1130.79 1010.98)" fill="white"/>
<rect x="1261.8" y="150.468" width="1" height="18" rx="0.5" transform="rotate(-9.5 1261.8 150.468)" fill="white"/>
<rect x="1261.79" y="283.387" width="1" height="18" rx="0.5" transform="rotate(-9.5 1261.79 283.387)" fill="white"/>
<rect x="1261.79" y="416.305" width="1" height="18" rx="0.5" transform="rotate(-9.5 1261.79 416.305)" fill="white"/>
<rect x="1261.79" y="549.223" width="1" height="18" rx="0.5" transform="rotate(-9.5 1261.79 549.223)" fill="white"/>
<rect x="1261.79" y="682.141" width="1" height="18" rx="0.5" transform="rotate(-9.5 1261.79 682.141)" fill="white"/>
<rect x="1261.78" y="815.059" width="1" height="18" rx="0.5" transform="rotate(-9.5 1261.78 815.059)" fill="white"/>
<rect x="1261.79" y="947.977" width="1" height="18" rx="0.5" transform="rotate(-9.5 1261.79 947.977)" fill="white"/>
<rect x="1381.8" y="228.468" width="1" height="18" rx="0.5" transform="rotate(-9.5 1381.8 228.468)" fill="white"/>
<rect x="1381.79" y="361.387" width="1" height="18" rx="0.5" transform="rotate(-9.5 1381.79 361.387)" fill="white"/>
<rect x="1381.79" y="494.305" width="1" height="18" rx="0.5" transform="rotate(-9.5 1381.79 494.305)" fill="white"/>
<rect x="1381.79" y="627.223" width="1" height="18" rx="0.5" transform="rotate(-9.5 1381.79 627.223)" fill="white"/>
<rect x="1381.79" y="760.141" width="1" height="18" rx="0.5" transform="rotate(-9.5 1381.79 760.141)" fill="white"/>
<rect x="1381.78" y="893.059" width="1" height="18" rx="0.5" transform="rotate(-9.5 1381.78 893.059)" fill="white"/>
<rect x="1381.79" y="1025.98" width="1" height="18" rx="0.5" transform="rotate(-9.5 1381.79 1025.98)" fill="white"/>
<rect x="1493.8" y="167.468" width="1" height="18" rx="0.5" transform="rotate(-9.5 1493.8 167.468)" fill="white"/>
<rect x="1493.79" y="300.387" width="1" height="18" rx="0.5" transform="rotate(-9.5 1493.79 300.387)" fill="white"/>
<rect x="1493.79" y="433.305" width="1" height="18" rx="0.5" transform="rotate(-9.5 1493.79 433.305)" fill="white"/>
<rect x="1493.79" y="566.223" width="1" height="18" rx="0.5" transform="rotate(-9.5 1493.79 566.223)" fill="white"/>
<rect x="1493.79" y="699.141" width="1" height="18" rx="0.5" transform="rotate(-9.5 1493.79 699.141)" fill="white"/>
<rect x="1493.78" y="832.059" width="1" height="18" rx="0.5" transform="rotate(-9.5 1493.78 832.059)" fill="white"/>
<rect x="1493.79" y="964.977" width="1" height="18" rx="0.5" transform="rotate(-9.5 1493.79 964.977)" fill="white"/>
<rect x="1598.8" y="223.468" width="1" height="18" rx="0.5" transform="rotate(-9.5 1598.8 223.468)" fill="white"/>
<rect x="1598.79" y="356.387" width="1" height="18" rx="0.5" transform="rotate(-9.5 1598.79 356.387)" fill="white"/>
<rect x="1598.79" y="489.305" width="1" height="18" rx="0.5" transform="rotate(-9.5 1598.79 489.305)" fill="white"/>
<rect x="1598.79" y="622.223" width="1" height="18" rx="0.5" transform="rotate(-9.5 1598.79 622.223)" fill="white"/>
<rect x="1598.79" y="755.141" width="1" height="18" rx="0.5" transform="rotate(-9.5 1598.79 755.141)" fill="white"/>
<rect x="1598.78" y="888.059" width="1" height="18" rx="0.5" transform="rotate(-9.5 1598.78 888.059)" fill="white"/>
<rect x="1598.79" y="1020.98" width="1" height="18" rx="0.5" transform="rotate(-9.5 1598.79 1020.98)" fill="white"/>
<rect x="1713.8" y="149.468" width="1" height="18" rx="0.5" transform="rotate(-9.5 1713.8 149.468)" fill="white"/>
<rect x="1713.79" y="282.387" width="1" height="18" rx="0.5" transform="rotate(-9.5 1713.79 282.387)" fill="white"/>
<rect x="1713.79" y="415.305" width="1" height="18" rx="0.5" transform="rotate(-9.5 1713.79 415.305)" fill="white"/>
<rect x="1713.79" y="548.223" width="1" height="18" rx="0.5" transform="rotate(-9.5 1713.79 548.223)" fill="white"/>
<rect x="1713.79" y="681.141" width="1" height="18" rx="0.5" transform="rotate(-9.5 1713.79 681.141)" fill="white"/>
<rect x="1713.78" y="814.059" width="1" height="18" rx="0.5" transform="rotate(-9.5 1713.78 814.059)" fill="white"/>
<rect x="1713.79" y="946.977" width="1" height="18" rx="0.5" transform="rotate(-9.5 1713.79 946.977)" fill="white"/>
<rect x="1819.8" y="217.468" width="1" height="18" rx="0.5" transform="rotate(-9.5 1819.8 217.468)" fill="white"/>
<rect x="1819.79" y="350.387" width="1" height="18" rx="0.5" transform="rotate(-9.5 1819.79 350.387)" fill="white"/>
<rect x="1819.79" y="483.305" width="1" height="18" rx="0.5" transform="rotate(-9.5 1819.79 483.305)" fill="white"/>
<rect x="1819.79" y="616.223" width="1" height="18" rx="0.5" transform="rotate(-9.5 1819.79 616.223)" fill="white"/>
<rect x="1819.79" y="749.141" width="1" height="18" rx="0.5" transform="rotate(-9.5 1819.79 749.141)" fill="white"/>
<rect x="1819.78" y="882.059" width="1" height="18" rx="0.5" transform="rotate(-9.5 1819.78 882.059)" fill="white"/>
<rect x="1819.79" y="1014.98" width="1" height="18" rx="0.5" transform="rotate(-9.5 1819.79 1014.98)" fill="white"/>
</svg>
