<svg width="414" height="908" viewBox="0 0 414 908" fill="none" xmlns="http://www.w3.org/2000/svg">
<path d="M365.531 819.074L123.178 880.179L37.5 568C37.5 568 31 568 138.141 524.503C245.281 481.006 381.749 424.608 367.646 344.918C356.107 279.718 300.218 250.758 216.249 265.618C135.176 279.966 71.5831 325.589 16.7829 404.024L-142.307 281.257C-74.7492 173.667 26.8911 89.9309 184.694 62.0037C393.167 25.109 554.019 107.219 588.636 302.82C621.201 486.83 507.135 584.719 354.974 644.522L365.531 819.074Z" fill="white"/>
<path d="M130.305 402.986L137.371 394.461C140.983 396.836 144.601 397.538 148.223 396.567C150.658 395.915 152.56 394.64 153.927 392.742C155.31 390.818 156.038 388.585 156.112 386.042L141.955 389.835L139.69 381.383L153.726 377.622C152.368 375.614 150.633 374.17 148.521 373.291C146.43 372.406 144.216 372.277 141.882 372.902C138.159 373.9 135.406 376.18 133.621 379.742L123.679 374.997C126.661 368.418 131.724 364.171 138.868 362.257C142.088 361.394 145.273 361.166 148.423 361.573C151.573 361.98 154.414 362.923 156.945 364.401C159.491 365.854 161.71 367.816 163.601 370.285C165.507 372.729 166.878 375.511 167.714 378.63C168.857 382.896 168.896 387.027 167.831 391.022C166.761 394.997 164.784 398.406 161.901 401.249C159.012 404.072 155.526 406.031 151.441 407.126C147.114 408.285 143.249 408.469 139.844 407.677C136.46 406.88 133.281 405.316 130.305 402.986ZM170.132 375.459L167.6 366.011L198.902 357.624L201.434 367.072L191.654 369.692L198.084 393.689L186.342 396.836L179.912 372.838L170.132 375.459ZM205.806 373.729C205.175 371.375 205.036 369.007 205.391 366.626C205.759 364.219 206.538 362.016 207.728 360.015C208.932 357.988 210.567 356.202 212.633 354.656C214.694 353.09 217.042 351.954 219.678 351.248C223.16 350.315 226.519 350.256 229.757 351.071C233.015 351.88 235.788 353.413 238.074 355.668C240.361 357.924 241.931 360.642 242.783 363.821C243.413 366.176 243.544 368.556 243.176 370.963C242.821 373.344 242.052 375.545 240.869 377.566C239.679 379.567 238.054 381.351 235.993 382.917C233.927 384.463 231.576 385.589 228.94 386.295C226.324 386.996 223.735 387.194 221.172 386.888C218.63 386.577 216.344 385.852 214.314 384.714C212.283 383.576 210.517 382.054 209.014 380.149C207.511 378.244 206.442 376.104 205.806 373.729ZM217.246 370.664C217.801 372.737 218.953 374.337 220.7 375.465C222.462 376.567 224.359 376.846 226.392 376.301C228.464 375.746 229.95 374.571 230.85 372.777C231.75 370.983 231.914 369.02 231.342 366.887C230.787 364.814 229.638 363.224 227.896 362.116C226.149 360.988 224.259 360.697 222.227 361.241C220.154 361.797 218.661 362.984 217.746 364.804C216.846 366.598 216.68 368.551 217.246 370.664Z" fill="white"/>
<path d="M365.531 819.074L123.178 880.179L37.5 568C37.5 568 31 567.999 138.141 524.503C245.281 481.006 381.749 424.607 367.646 344.918C356.107 279.717 300.218 250.757 216.249 265.618C135.176 279.966 71.5831 325.589 16.7829 404.024L-142.307 281.256C-74.7492 173.667 26.8911 89.9304 184.694 62.0032C393.167 25.1085 554.019 107.218 588.636 302.819C621.201 486.83 507.135 584.719 354.974 644.522L365.531 819.074Z" fill="white"/>
<path d="M18.1723 707.536L13.8497 669.434L231.561 630.372L252.45 676.27L18.1723 707.536Z" fill="black" stroke="white"/>
<path d="M42.9613 688.18C46.4995 687.752 48.5658 684.601 48.1268 680.973C47.6877 677.346 44.9694 674.81 41.4312 675.238C38.1253 675.638 36.1072 678.439 36.2171 681.744L33.6796 682.051L33.0048 676.476L31.5931 676.646L33.1071 689.155L34.5188 688.984L33.8353 683.337L36.3728 683.03C37.0274 686.342 39.6197 688.584 42.9613 688.18ZM42.8413 686.889C40.2323 687.205 38.0814 685.163 37.7288 682.25C37.372 679.301 38.9422 676.845 41.5512 676.529C44.1601 676.213 46.329 678.253 46.6815 681.166C47.0384 684.115 45.4503 686.573 42.8413 686.889ZM51.8666 686.885L57.1203 686.249C59.908 685.911 61.5749 684.404 61.2786 681.956C60.9737 679.436 58.7467 678.564 56.0841 678.886L52.3851 679.334L51.9201 675.492L59.479 674.577L59.3232 673.29L50.3527 674.376L51.8666 686.885ZM53.1226 685.427L52.5365 680.585L56.1998 680.141C58.2726 679.89 59.668 680.483 59.8583 682.055C60.0767 683.86 58.8766 684.731 56.8574 684.975L53.1226 685.427ZM64.5184 685.353L65.8944 685.187L72.0895 673.903L73.346 684.285L74.7399 684.116L73.2259 671.608L71.8857 671.77L65.6728 683.056L64.4162 672.674L63.0045 672.845L64.5184 685.353ZM78.0547 683.86C79.9846 683.627 81.6223 682.177 80.5604 673.403L80.396 672.045L85.7211 671.401L87.0794 682.623L88.4911 682.452L86.9771 669.943L78.8822 670.923L79.1569 673.192C80.1885 681.716 78.6338 682.503 77.6688 682.62C77.2757 682.667 76.7466 682.64 76.5393 682.575L76.3918 683.753C76.7285 683.839 77.5007 683.927 78.0547 683.86ZM92.0209 682.025L101.152 680.92L100.997 679.633L93.2768 680.567L92.747 676.189L99.5732 675.363L99.4174 674.076L92.5912 674.903L92.0743 670.632L99.7047 669.708L99.5489 668.422L90.5069 669.516L92.0209 682.025ZM103.992 680.576L105.368 680.409L111.563 669.125L112.82 679.507L114.214 679.339L112.7 666.83L111.359 666.992L105.146 678.279L103.89 667.896L102.478 668.067L103.992 680.576ZM123.101 678.263L124.512 678.092L124.106 674.733L126.442 671.712L131.982 677.188L133.751 676.974L127.306 670.61L132.005 664.493L130.182 664.714L123.902 673.053L122.998 665.584L121.587 665.754L123.101 678.263ZM141.778 676.22C145.584 675.759 147.81 672.426 147.392 668.977C146.971 665.493 144.054 662.818 140.248 663.278C136.442 663.739 134.216 667.072 134.634 670.521C135.055 674.006 137.972 676.681 141.778 676.22ZM141.656 674.911C138.797 675.257 136.443 673.185 136.099 670.344C135.751 667.467 137.511 664.933 140.37 664.587C143.229 664.241 145.583 666.313 145.927 669.154C146.275 672.031 144.515 674.565 141.656 674.911ZM151.127 674.871L152.503 674.705L151.278 664.59L156.644 670.722L156.716 670.713L160.461 663.461L161.688 673.593L163.099 673.422L161.585 660.913L160.156 661.086L156.425 668.464L151.042 662.189L149.613 662.362L151.127 674.871ZM166.64 672.993L168.052 672.823L166.694 661.6L173.734 660.748L175.093 671.97L176.504 671.8L174.99 659.291L165.126 660.485L166.64 672.993ZM178.97 671.501L180.418 671.326L181.501 667.841L188.309 667.017L190.175 670.145L191.694 669.961L184.468 658.053L183.146 658.213L178.97 671.501ZM181.901 666.505L183.988 659.779L187.602 665.815L181.901 666.505ZM194.16 669.663L195.572 669.492L194.891 663.863L202.11 662.989L202.791 668.618L204.203 668.447L202.689 655.939L201.277 656.109L201.95 661.667L194.731 662.541L194.058 656.983L192.646 657.154L194.16 669.663ZM207.737 668.02L209.113 667.853L215.308 656.569L216.565 666.951L217.958 666.782L216.444 654.274L215.104 654.436L208.891 665.722L207.635 655.34L206.223 655.511L207.737 668.02ZM221.488 666.355L222.864 666.189L229.059 654.905L230.316 665.287L231.71 665.118L230.196 652.609L228.855 652.772L222.643 664.058L221.386 653.676L219.974 653.846L221.488 666.355ZM225.049 652.181C226.407 652.016 227.277 650.968 227.338 649.673L226.349 649.594C226.228 650.388 225.786 650.931 224.91 651.037C224.035 651.143 223.476 650.721 223.169 649.979L222.227 650.292C222.595 651.535 223.691 652.345 225.049 652.181Z" fill="white"/>
<path d="M50.787 774.131L29.7129 725.612L192.693 698.283L207.314 732.731L50.787 774.131Z" fill="black" stroke="white"/>
<path d="M57.2428 754.361L58.6517 754.063L56.3125 743.004L60.4509 742.129L60.1828 740.861L50.497 742.909L50.7652 744.177L54.9037 743.302L57.2428 754.361ZM65.4042 752.635L66.7602 752.348L71.9396 740.563L74.1037 750.795L75.4773 750.504L72.8699 738.177L71.5492 738.457L66.3521 750.245L64.188 740.013L62.7968 740.308L65.4042 752.635ZM78.9559 749.769L80.3119 749.482L78.2037 739.514L84.0874 745.151L84.1578 745.136L87.2517 737.582L89.3636 747.567L90.7549 747.273L88.1475 734.946L86.7387 735.244L83.6709 742.921L77.7574 737.143L76.3485 737.441L78.9559 749.769ZM94.2446 746.535L99.4221 745.44C102.169 744.859 103.697 743.211 103.187 740.798C102.662 738.315 100.367 737.642 97.7428 738.197L94.0975 738.968L93.2967 735.181L100.746 733.606L100.478 732.338L91.6372 734.208L94.2446 746.535ZM95.3676 744.973L94.3582 740.2L97.9684 739.437C100.011 739.005 101.453 739.472 101.781 741.022C102.157 742.801 101.038 743.773 99.0482 744.194L95.3676 744.973ZM106.713 743.898L108.069 743.611L113.248 731.826L115.412 742.058L116.786 741.767L114.179 729.44L112.858 729.719L107.661 741.508L105.497 731.276L104.106 731.57L106.713 743.898ZM120.066 741.221C121.967 740.818 123.471 739.231 121.643 730.584L121.359 729.246L126.607 728.136L128.947 739.195L130.338 738.901L127.73 726.574L119.753 728.261L120.226 730.497C122.003 738.898 120.523 739.818 119.572 740.019C119.185 740.101 118.655 740.121 118.443 740.074L118.4 741.26C118.743 741.316 119.52 741.336 120.066 741.221ZM132.83 741.244L134.01 740.994L133.676 738.195L143.678 736.079L144.259 738.826L145.422 738.581L144.784 734.521L143.181 734.86L140.842 723.8L132.776 725.506L133.231 727.655C134.076 731.652 134.03 734.827 133.249 736.96L131.981 737.229L132.83 741.244ZM134.816 736.629C135.48 734.722 135.396 731.281 134.722 728.094L134.383 726.491L139.719 725.362L141.79 735.154L134.816 736.629ZM147.093 735.357L148.449 735.07L153.628 723.285L155.793 733.517L157.166 733.226L154.559 720.899L153.238 721.178L148.041 732.967L145.877 722.735L144.486 723.03L147.093 735.357ZM160.645 732.491L162.036 732.196L160.863 726.649L167.977 725.144L169.151 730.691L170.542 730.397L167.934 718.07L166.543 718.364L167.702 723.841L160.587 725.346L159.429 719.869L158.037 720.163L160.645 732.491ZM174.024 729.661L175.416 729.366L173.077 718.307L179.557 716.936L179.289 715.668L171.417 717.333L174.024 729.661Z" fill="white"/>
<path d="M41.6119 793.123L211.422 747.623L225.412 823.072L55.583 845.264L41.6119 793.123Z" fill="black" stroke="white"/>
<path d="M62.64 813.541L64.0312 813.247L62.8579 807.7L69.9725 806.195L71.1458 811.742L72.537 811.448L69.9297 799.121L68.5385 799.415L69.6969 804.892L62.5823 806.397L61.4239 800.92L60.0326 801.214L62.64 813.541ZM82.7564 809.507C86.5074 808.714 88.4315 805.198 87.7126 801.799C86.9862 798.365 83.8459 795.957 80.0949 796.75C76.3439 797.543 74.4199 801.06 75.1387 804.458C75.8651 807.892 79.0054 810.301 82.7564 809.507ZM82.5197 808.214C79.7021 808.81 77.175 806.953 76.5828 804.153C75.9831 801.318 77.5139 798.639 80.3316 798.043C83.1492 797.447 85.6763 799.304 86.2685 802.104C86.8682 804.94 85.3374 807.618 82.5197 808.214ZM92.9189 807.137L98.3957 805.979C101.09 805.409 102.604 803.782 102.157 801.669C101.792 799.943 100.434 799.347 98.8788 799.216C99.758 798.589 100.569 797.553 100.23 795.95C100.055 795.122 99.6355 794.53 99.013 794.11C98.1772 793.551 96.9682 793.402 95.5594 793.7L90.3115 794.81L92.9189 807.137ZM94.028 805.596L93.108 801.246L96.9999 800.423C99.1484 799.969 100.439 800.505 100.722 801.844C101.02 803.253 100.033 804.326 98.1665 804.721L94.028 805.596ZM92.8473 800.014L91.9496 795.77L95.7006 794.976C97.4616 794.604 98.5978 795.191 98.8548 796.407C99.1677 797.886 98.1656 798.889 96.4926 799.243L92.8473 800.014ZM112.365 803.245C116.116 802.452 118.04 798.935 117.321 795.536C116.594 792.102 113.454 789.694 109.703 790.488C105.952 791.281 104.028 794.797 104.747 798.196C105.473 801.63 108.614 804.038 112.365 803.245ZM112.128 801.952C109.31 802.548 106.783 800.691 106.191 797.891C105.591 795.055 107.122 792.377 109.94 791.781C112.757 791.185 115.284 793.042 115.877 795.842C116.476 798.677 114.946 801.356 112.128 801.952ZM122.527 800.875L123.918 800.58L121.579 789.521L128.06 788.15L127.792 786.882L119.92 788.547L122.527 800.875ZM139.634 797.477C143.385 796.684 145.309 793.168 144.59 789.769C143.864 786.335 140.723 783.926 136.972 784.72C133.221 785.513 131.297 789.029 132.016 792.428C132.743 795.862 135.883 798.271 139.634 797.477ZM139.397 796.184C136.58 796.78 134.052 794.923 133.46 792.123C132.861 789.288 134.391 786.609 137.209 786.013C140.027 785.417 142.554 787.274 143.146 790.074C143.746 792.909 142.215 795.588 139.397 796.184ZM148.81 798.186L149.99 797.936L149.655 795.137L159.658 793.021L160.239 795.768L161.401 795.522L160.764 791.463L159.161 791.801L156.822 780.742L148.756 782.448L149.211 784.597C150.056 788.594 150.01 791.768 149.229 793.902L147.961 794.17L148.81 798.186ZM150.796 793.571C151.46 791.664 151.376 788.223 150.702 785.036L150.363 783.433L155.699 782.304L157.77 792.096L150.796 793.571ZM164.041 792.094L165.433 791.8L164.259 786.252L171.374 784.748L172.547 790.295L173.938 790.001L171.331 777.673L169.94 777.968L171.098 783.444L163.984 784.949L162.825 779.472L161.434 779.767L164.041 792.094ZM178.39 789.059L179.746 788.772L184.925 776.987L187.089 787.219L188.463 786.928L185.856 774.601L184.535 774.881L179.338 786.669L177.174 776.438L175.782 776.732L178.39 789.059ZM192.91 785.988L201.909 784.084L201.641 782.816L194.033 784.426L193.121 780.111L199.848 778.688L199.58 777.42L192.852 778.843L191.962 774.634L199.482 773.044L199.214 771.776L190.303 773.661L192.91 785.988ZM66.1579 830.174L67.5139 829.887L65.4056 819.919L71.2894 825.556L71.3598 825.541L74.4537 817.987L76.5656 827.972L77.9568 827.678L75.3495 815.351L73.9406 815.649L70.8729 823.326L64.9593 817.548L63.5505 817.846L66.1579 830.174ZM81.4466 826.94L90.4455 825.036L90.1773 823.768L82.5696 825.378L81.657 821.063L88.3842 819.64L88.116 818.372L81.3889 819.795L80.4986 815.586L88.0183 813.996L87.7501 812.728L78.8392 814.612L81.4466 826.94ZM93.2442 824.444L94.6354 824.15L93.7154 819.8L96.7091 819.167C99.3331 818.612 101.261 816.769 100.699 814.11C100.178 811.645 98.0332 810.553 95.2507 811.141L90.6368 812.117L93.2442 824.444ZM93.4472 818.532L92.2999 813.108L95.417 812.449C97.407 812.028 98.9214 812.665 99.2939 814.426C99.644 816.081 98.5366 817.456 96.4938 817.888L93.4472 818.532ZM110.775 820.957C114.526 820.164 116.45 816.648 115.732 813.249C115.005 809.815 111.865 807.406 108.114 808.2C104.363 808.993 102.439 812.509 103.158 815.908C103.884 819.342 107.024 821.751 110.775 820.957ZM110.539 819.664C107.721 820.26 105.194 818.403 104.602 815.603C104.002 812.768 105.533 810.089 108.351 809.493C111.168 808.897 113.695 810.754 114.288 813.554C114.887 816.389 113.356 819.068 110.539 819.664ZM119.969 818.792L121.361 818.498L119.021 807.438L125.96 805.971L128.299 817.03L129.69 816.736L127.083 804.408L117.362 806.464L119.969 818.792ZM133.177 815.998L134.568 815.704L133.648 811.354L136.642 810.721C139.266 810.166 141.194 808.323 140.632 805.664C140.11 803.198 137.966 802.106 135.184 802.695L130.57 803.671L133.177 815.998ZM133.38 810.086L132.233 804.662L135.35 804.003C137.34 803.582 138.854 804.218 139.227 805.979C139.577 807.635 138.47 809.01 136.427 809.442L133.38 810.086ZM144.94 813.51L146.296 813.223L151.476 801.438L153.64 811.67L155.013 811.38L152.406 799.052L151.085 799.332L145.888 811.12L143.724 800.889L142.333 801.183L144.94 813.51ZM157.488 810.856L159.179 810.498L161.844 805.004L165.383 804.255L166.381 808.975L167.773 808.681L165.165 796.354L159.9 797.467C158.315 797.802 157.169 798.56 156.572 799.477C156.082 800.207 155.959 801.189 156.16 802.14C156.596 804.201 158.251 805.157 160.298 805.092L157.488 810.856ZM161.347 803.876C159.463 804.275 157.912 803.554 157.573 801.952C157.242 800.384 158.227 799.127 160.252 798.699L164.039 797.898L165.134 803.076L161.347 803.876ZM174.511 807.256L175.919 806.958L173.58 795.898L177.719 795.023L177.451 793.755L167.765 795.804L168.033 797.072L172.171 796.196L174.511 807.256ZM182.672 805.529L184.028 805.243L189.207 793.458L191.371 803.689L192.745 803.399L190.138 791.072L188.817 791.351L183.62 803.14L181.456 792.908L180.065 793.202L182.672 805.529ZM195.22 802.875L196.91 802.518L199.575 797.023L203.115 796.275L204.113 800.994L205.504 800.7L202.897 788.373L197.631 789.487C196.047 789.822 194.901 790.579 194.303 791.497C193.814 792.226 193.69 793.209 193.892 794.16C194.327 796.22 195.983 797.176 198.03 797.111L195.22 802.875ZM199.079 795.896C197.195 796.294 195.644 795.574 195.305 793.971C194.974 792.404 195.959 791.147 197.984 790.718L201.77 789.917L202.865 795.095L199.079 795.896Z" fill="white"/>
</svg>
