<?xml version="1.0" encoding="utf-8"?>
<!-- Generator: Adobe Illustrator 22.0.1, SVG Export Plug-In . SVG Version: 6.00 Build 0)  -->
<svg version="1.1" id="Слой_1" xmlns="http://www.w3.org/2000/svg" xmlns:xlink="http://www.w3.org/1999/xlink" x="0px" y="0px"
	 viewBox="0 0 958 1152" style="enable-background:new 0 0 958 1152;" xml:space="preserve">
	 <script xlink:href="../js/svg.js" />

<style type="text/css">
  @font-face {
  	font-family: 'Gotham Pro';
  	src: url('../fonts/GothamPro.eot');
  	src: local('Gotham Pro'), local('GothamPro'),
  		url('../fonts/GothamPro.eot?#iefix') format('embedded-opentype'),
  		url('../fonts/GothamPro.woff') format('woff'),
  		url('../fonts/GothamPro.ttf') format('truetype');
  	font-weight: normal;
  	font-style: normal;}
	.st0{fill:#FFFFFF;}
	.st1{stroke:#FFFFFF;}
	.st2{font-family: 'Gotham Pro';}
	.st3{font-size:36.0199px;}
	.st4{letter-spacing:1;}
</style>
<path class="st0" d="M602,1129.5l-306.4,22l-61.4-570.7c0,0-7.9-1.4,131.1-31.1c139-29.7,316.2-68.7,316.2-168.2
	c0-81.4-61.4-128.4-166.2-128.4c-101.2,0-187.9,41.6-271,124.8L78,195.3C182.8,79.6,323.7,0,520.7,0C780.9,0,958,133.8,958,378
	c0,229.7-159,323.7-356,363.5V1129.5z"/>
<path class="st0" d="M23.5,261.4l19.6,3.7c-0.5,8.6,1.7,15.5,6.5,20.7c3.2,3.5,6.9,5.5,11.1,6c4.2,0.5,8.4-0.5,12.4-2.9l-18.6-20.5
	l11.1-12.3L84,276.4c1.9-4.3,2.6-8.7,2.1-13.2c-0.5-4.5-2.3-8.4-5.4-11.8c-4.9-5.4-10.9-7.9-18.1-7.4l-1.5-21.8
	c12.9-1.4,24.1,3.1,33.5,13.4c4.2,4.7,7.5,9.9,9.7,15.7c2.2,5.8,3.3,11.6,3.3,17.4c0,5.8-1,11.6-3.2,17.3
	c-2.1,5.7-5.2,10.8-9.3,15.3c-5.6,6.2-12,10.4-19.2,12.5c-7.1,2.1-14.2,2.1-21.2,0c-7-2.2-13.2-6.2-18.5-12.1
	c-5.7-6.3-9.5-12.7-11.3-19.4C23,275.8,22.5,268.8,23.5,261.4z"/>
<path class="st0" d="M102.1,302.5l12.4-13.7l41.2,45.4l-12.4,13.7l-12.9-14.2l-31.6,34.8l-15.4-17l31.6-34.8L102.1,302.5z"/>
<path class="st0" d="M136.9,362c3.1-3.4,6.7-6,10.7-7.8c4.1-1.8,8.2-2.6,12.4-2.5c4.2,0.1,8.5,1.1,12.7,3.1c4.3,2,8.2,4.9,11.6,8.7
	c4.6,5.1,7.7,10.8,9.3,17.1c1.7,6.4,1.8,12.7,0.3,18.8c-1.5,6.2-4.3,11.5-8.5,16.2c-3.1,3.4-6.7,6-10.8,7.8c-4,1.8-8.1,2.6-12.4,2.6
	c-4.2-0.1-8.4-1.1-12.7-3.1c-4.3-2-8.1-4.9-11.6-8.8c-3.4-3.8-6.1-8-7.9-12.7c-1.8-4.7-2.7-9.3-2.8-13.9c-0.1-4.6,0.7-9.2,2.3-13.6
	C131.4,369.4,133.8,365.4,136.9,362z M151.9,378.6c-2.7,3-4.2,6.6-4.4,10.7c-0.1,4.1,1.1,7.7,3.8,10.6c2.7,3,5.9,4.4,9.5,4.2
	c3.6-0.2,6.8-1.9,9.6-5c2.7-3,4.2-6.6,4.3-10.6c0.2-4.1-1.1-7.7-3.7-10.6c-2.7-3-5.9-4.4-9.6-4.2
	C157.9,373.9,154.7,375.5,151.9,378.6z"/>
<path class="st1" onclick="thisIsClick()" d="M16.5,856L40,750.1l406,14.8l35.9,76.9L16.5,856z"/>
<path class="st1" onclick="thisIsClick()" d="M467.6,891.5l9.8,91.5L12.5,999.5l3.4-121L467.6,891.5z"/>
<path class="st1" onclick="thisIsClick()" d="M462,1101.5l15.4-94L6.5,1037.4l2.8,56.5L462,1101.5z"/>
<text transform="matrix(1 0 0 1 83.9998 810)" class="st0 st2 st3">Юбилеи компаний</text>
<text transform="matrix(1 0 0 1 98.9711 932.0005)"><tspan x="0" y="0" class="st0 st2 st3 st4">Новогодние</tspan><tspan x="0" y="34" class="st0 st2 st3">Мероприятия</tspan></text>
<text transform="matrix(1 0 0 1 122.0711 1071.0001)" class="st0 st2 st3">Тимбилдинги</text>
</svg>
