<svg viewBox="0 0 958 1152" fill="none" xmlns="http://www.w3.org/2000/svg">
<path d="M602.025 1129.5L295.631 1151.54L234.194 580.843C234.194 580.843 226.327 579.451 365.31 549.757C504.293 520.064 681.532 481.038 681.532 381.575C681.532 300.196 620.094 253.178 515.29 253.178C414.099 253.178 327.363 294.771 244.242 377.958L78 195.309C182.805 79.5702 323.749 0 520.71 0C780.916 0 958 133.822 958 377.958C958 607.626 798.986 701.664 602.025 741.449V1129.5Z" fill="white"/>
<path d="M23.4949 261.371L43.113 265.05C42.6629 273.607 44.8207 280.514 49.5862 285.771C52.7897 289.305 56.483 291.306 60.6661 291.773C64.9021 292.24 69.0322 291.277 73.0565 288.882L54.4312 268.336L65.5507 256.07L84.0172 276.44C85.9234 272.118 86.6118 267.708 86.0823 263.21C85.5792 258.742 83.7922 254.814 80.721 251.426C75.8231 246.023 69.8 243.556 62.6517 244.023L61.1029 222.25C74.0228 220.849 85.1821 225.332 94.5808 235.699C98.8168 240.372 102.034 245.614 104.231 251.426C106.428 257.238 107.514 263.05 107.487 268.862C107.514 274.673 106.455 280.427 104.31 286.122C102.219 291.817 99.1213 296.928 95.0176 301.454C89.4049 307.646 83.0111 311.808 75.8364 313.94C68.688 316.042 61.6059 316.028 54.59 313.896C47.6006 311.735 41.4186 307.69 36.0441 301.761C30.352 295.482 26.5925 289.028 24.7657 282.398C22.9654 275.798 22.5418 268.789 23.4949 261.371Z" fill="white"/>
<path d="M102.126 302.462L114.556 288.75L155.739 334.179L143.308 347.89L130.441 333.697L98.8698 368.524L83.4215 351.483L114.993 316.656L102.126 302.462Z" fill="white"/>
<path d="M136.875 361.996C139.973 358.579 143.533 355.995 147.558 354.243C151.635 352.49 155.765 351.643 159.948 351.702C164.184 351.76 168.433 352.797 172.696 354.812C176.985 356.798 180.863 359.704 184.332 363.53C188.912 368.582 192.023 374.292 193.664 380.658C195.332 387.054 195.438 393.333 193.982 399.496C192.526 405.658 189.706 411.046 185.523 415.661C182.426 419.078 178.838 421.662 174.761 423.415C170.737 425.167 166.62 426.028 162.41 425.999C158.227 425.941 153.991 424.919 149.702 422.933C145.44 420.918 141.574 417.997 138.106 414.171C134.664 410.375 132.03 406.125 130.203 401.423C128.403 396.75 127.476 392.107 127.423 387.492C127.37 382.878 128.151 378.337 129.766 373.868C131.381 369.4 133.751 365.443 136.875 361.996ZM151.926 378.6C149.199 381.608 147.743 385.171 147.558 389.289C147.425 393.406 148.696 396.94 151.37 399.89C154.097 402.898 157.261 404.285 160.861 404.052C164.462 403.818 167.666 402.153 170.472 399.058C173.199 396.05 174.642 392.501 174.801 388.412C174.986 384.295 173.742 380.761 171.068 377.811C168.341 374.803 165.15 373.416 161.497 373.649C157.896 373.883 154.706 375.533 151.926 378.6Z" fill="white"/>
<path d="M16.5261 856.012L39.9562 750.134L445.931 764.931L481.791 841.821L16.5261 856.012Z" fill="black" stroke="white"/>
<path d="M467.618 891.487L477.446 983.019L12.5149 999.481L15.9416 878.514L467.618 891.487Z" fill="black" stroke="white"/>
<path d="M102.564 932H105.408V920.66H119.952V932H122.796V906.8H119.952V917.996H105.408V906.8H102.564V932ZM139.924 932.432C145.54 932.432 149.68 927.968 149.68 922.712C149.68 917.384 145.576 912.992 139.996 912.992C134.38 912.992 130.276 917.456 130.276 922.712C130.276 928.04 134.344 932.432 139.924 932.432ZM139.996 929.948C136.072 929.948 133.12 926.708 133.12 922.712C133.12 918.716 135.892 915.44 139.924 915.44C143.848 915.44 146.836 918.716 146.836 922.712C146.836 926.708 144.028 929.948 139.996 929.948ZM156.681 932H166.005C170.109 932 172.773 930.056 172.773 926.924C172.773 924.296 170.901 922.928 168.669 922.316C170.217 921.668 171.765 920.48 171.765 918.032C171.765 915.224 169.389 913.388 165.681 913.388H156.681V932ZM159.453 929.624V923.612H165.285C168.309 923.612 169.929 924.692 169.929 926.492C169.929 928.436 168.309 929.624 165.645 929.624H159.453ZM159.453 921.38V915.764H165.249C167.661 915.764 168.957 916.844 168.957 918.392C168.957 920.336 167.409 921.38 165.177 921.38H159.453ZM188.251 932.432C193.867 932.432 198.007 927.968 198.007 922.712C198.007 917.384 193.903 912.992 188.323 912.992C182.707 912.992 178.603 917.456 178.603 922.712C178.603 928.04 182.671 932.432 188.251 932.432ZM188.323 929.948C184.399 929.948 181.447 926.708 181.447 922.712C181.447 918.716 184.219 915.44 188.251 915.44C192.175 915.44 195.163 918.716 195.163 922.712C195.163 926.708 192.355 929.948 188.323 929.948ZM205.008 932H207.78V915.836H217.644V913.388H205.008V932ZM232.148 932.432C237.764 932.432 241.904 927.968 241.904 922.712C241.904 917.384 237.8 912.992 232.22 912.992C226.604 912.992 222.5 917.456 222.5 922.712C222.5 928.04 226.568 932.432 232.148 932.432ZM232.22 929.948C228.296 929.948 225.344 926.708 225.344 922.712C225.344 918.716 228.116 915.44 232.148 915.44C236.072 915.44 239.06 918.716 239.06 922.712C239.06 926.708 236.252 929.948 232.22 929.948ZM246.17 936.644H248.438L248.942 932H263.99V936.644H266.294L266.726 929.552H263.918V913.388H250.67V916.628C250.67 922.892 249.698 926.78 248.186 929.552H246.17V936.644ZM251.138 929.552C252.434 927.14 253.334 923.036 253.334 918.428V915.836H261.146V929.552H251.138ZM272.507 932H275.279V923.864H286.007V932H288.779V913.388H286.007V921.416H275.279V913.388H272.507V932ZM296.952 932H299.616L310.704 917.276V932H313.476V913.388H310.776L299.724 928.112V913.388H296.952V932ZM329.779 932.432C333.307 932.432 335.575 931.028 337.447 928.94L335.719 927.392C334.207 928.976 332.407 930.02 329.851 930.02C326.575 930.02 323.695 927.752 323.299 923.828H338.059C338.095 923.396 338.095 923.108 338.095 922.856C338.095 917.384 334.927 912.992 329.419 912.992C324.271 912.992 320.491 917.312 320.491 922.712C320.491 928.508 324.667 932.432 329.779 932.432ZM323.299 921.596C323.695 917.996 326.143 915.332 329.347 915.332C333.019 915.332 334.963 918.212 335.287 921.596H323.299ZM102.564 966H105.336V945.624L114.516 959.088H114.66L123.84 945.588V966H126.684V940.8H123.804L114.624 954.552L105.444 940.8H102.564V966ZM141.486 966.432C145.014 966.432 147.282 965.028 149.154 962.94L147.426 961.392C145.914 962.976 144.114 964.02 141.558 964.02C138.282 964.02 135.402 961.752 135.006 957.828H149.766C149.802 957.396 149.802 957.108 149.802 956.856C149.802 951.384 146.634 946.992 141.126 946.992C135.978 946.992 132.198 951.312 132.198 956.712C132.198 962.508 136.374 966.432 141.486 966.432ZM135.006 955.596C135.402 951.996 137.85 949.332 141.054 949.332C144.726 949.332 146.67 952.212 146.994 955.596H135.006ZM154.655 971.76H157.427V962.436C158.867 964.524 161.099 966.396 164.555 966.396C169.055 966.396 173.447 962.796 173.447 956.712C173.447 950.52 169.019 946.992 164.555 946.992C161.135 946.992 158.939 948.9 157.427 951.132V947.388H154.655V971.76ZM164.051 963.912C160.595 963.912 157.319 961.032 157.319 956.712C157.319 952.392 160.595 949.476 164.051 949.476C167.579 949.476 170.603 952.284 170.603 956.676C170.603 961.248 167.651 963.912 164.051 963.912ZM187.057 966.432C192.673 966.432 196.813 961.968 196.813 956.712C196.813 951.384 192.709 946.992 187.129 946.992C181.513 946.992 177.409 951.456 177.409 956.712C177.409 962.04 181.477 966.432 187.057 966.432ZM187.129 963.948C183.205 963.948 180.253 960.708 180.253 956.712C180.253 952.716 183.025 949.44 187.057 949.44C190.981 949.44 193.969 952.716 193.969 956.712C193.969 960.708 191.161 963.948 187.129 963.948ZM201.834 966H204.606V949.836H215.19V966H217.962V947.388H201.834V966ZM224.159 971.76H226.931V962.436C228.371 964.524 230.603 966.396 234.059 966.396C238.559 966.396 242.951 962.796 242.951 956.712C242.951 950.52 238.523 946.992 234.059 946.992C230.639 946.992 228.443 948.9 226.931 951.132V947.388H224.159V971.76ZM233.555 963.912C230.099 963.912 226.823 961.032 226.823 956.712C226.823 952.392 230.099 949.476 233.555 949.476C237.083 949.476 240.107 952.284 240.107 956.676C240.107 961.248 237.155 963.912 233.555 963.912ZM248.065 966H250.729L261.817 951.276V966H264.589V947.388H261.889L250.837 962.112V947.388H248.065V966ZM269.12 966H272.54C274.268 963.768 275.96 961.5 277.688 959.232H282.836V966H285.608V947.388H276.86C272.432 947.388 269.84 949.764 269.84 953.184C269.84 956.208 272.036 958.152 274.808 958.8L269.12 966ZM277.076 956.892C274.484 956.892 272.612 955.56 272.612 953.292C272.612 951.168 274.232 949.836 277.004 949.836H282.836V956.892H277.076ZM296.299 966H299.107V949.836H305.767V947.388H289.639V949.836H296.299V966ZM309.799 966H312.463L323.551 951.276V966H326.323V947.388H323.623L312.571 962.112V947.388H309.799V966ZM330.854 966H334.274C336.002 963.768 337.694 961.5 339.422 959.232H344.57V966H347.342V947.388H338.594C334.166 947.388 331.574 949.764 331.574 953.184C331.574 956.208 333.77 958.152 336.542 958.8L330.854 966ZM338.81 956.892C336.218 956.892 334.346 955.56 334.346 953.292C334.346 951.168 335.966 949.836 338.738 949.836H344.57V956.892H338.81Z" fill="white"/>
<path d="M107.479 810.432C114.607 810.432 119.467 804.672 119.467 797.364C119.467 790.056 114.679 784.368 107.551 784.368C100.891 784.368 96.2112 789.444 95.6352 796.032H90.5232V784.8H87.6792V810H90.5232V798.624H95.6352C96.1392 805.356 100.747 810.432 107.479 810.432ZM107.551 807.84C102.295 807.84 98.5152 803.268 98.5152 797.4C98.5152 791.46 102.223 786.96 107.479 786.96C112.735 786.96 116.551 791.532 116.551 797.4C116.551 803.34 112.807 807.84 107.551 807.84ZM133.752 810.432C139.26 810.432 143.292 806.04 143.292 800.856C143.292 795.744 139.224 791.604 134.364 791.604C130.404 791.604 127.956 793.44 126.66 795.636C126.948 792.072 128.244 789.984 132.096 789.012L142.176 786.528L141.636 784.188L131.268 786.636C124.788 788.184 124.32 793.944 124.32 799.956C124.32 806.436 128.1 810.432 133.752 810.432ZM133.824 807.948C130.08 807.948 127.164 804.816 127.164 800.928C127.164 797.04 129.9 793.908 133.752 793.908C137.496 793.908 140.412 797.04 140.412 800.928C140.412 804.816 137.676 807.948 133.824 807.948ZM148.313 810H150.977L162.065 795.276V810H164.837V791.388H162.137L151.085 806.112V791.388H148.313V810ZM170.124 810.288C173.652 810.288 176.28 808.776 176.28 794.268V793.836H184.056V810H186.828V791.388H173.652V792.936C173.652 806.904 171.78 807.876 169.548 807.876C169.224 807.876 168.576 807.732 168.216 807.624L167.892 810C168.468 810.144 169.512 810.288 170.124 810.288ZM201.168 810.432C204.696 810.432 206.964 809.028 208.836 806.94L207.108 805.392C205.596 806.976 203.796 808.02 201.24 808.02C197.964 808.02 195.084 805.752 194.688 801.828H209.448C209.484 801.396 209.484 801.108 209.484 800.856C209.484 795.384 206.316 790.992 200.808 790.992C195.66 790.992 191.88 795.312 191.88 800.712C191.88 806.508 196.056 810.432 201.168 810.432ZM194.688 799.596C195.084 795.996 197.532 793.332 200.736 793.332C204.408 793.332 206.352 796.212 206.676 799.596H194.688ZM214.336 810H217L228.088 795.276V810H230.86V791.388H228.16L217.108 806.112V791.388H214.336V810ZM247.84 810H250.612V805.5L254.536 801.468L261.16 810H264.436L256.444 799.452L264.22 791.388H260.8L250.612 802.116V791.388H247.84V810ZM276.762 810.432C282.378 810.432 286.518 805.968 286.518 800.712C286.518 795.384 282.414 790.992 276.834 790.992C271.218 790.992 267.114 795.456 267.114 800.712C267.114 806.04 271.182 810.432 276.762 810.432ZM276.834 807.948C272.91 807.948 269.958 804.708 269.958 800.712C269.958 796.716 272.73 793.44 276.762 793.44C280.686 793.44 283.674 796.716 283.674 800.712C283.674 804.708 280.866 807.948 276.834 807.948ZM291.539 810H294.239V795.816L301.043 805.248L307.919 795.816V810H310.727V791.388H308.063L301.115 801.18L294.167 791.388H291.539V810ZM316.922 810H319.694V793.836H330.278V810H333.05V791.388H316.922V810ZM344.79 810.396C348.066 810.396 350.19 808.884 351.486 807.228V810H354.222V798.624C354.222 796.248 353.574 794.448 352.278 793.152C350.946 791.82 348.894 791.1 346.266 791.1C343.53 791.1 341.55 791.748 339.498 792.684L340.326 794.952C342.054 794.16 343.782 793.62 345.978 793.62C349.47 793.62 351.486 795.348 351.486 798.66V799.236C349.83 798.768 348.174 798.444 345.798 798.444C341.082 798.444 337.842 800.532 337.842 804.528C337.842 808.416 341.298 810.396 344.79 810.396ZM345.33 808.164C342.81 808.164 340.65 806.796 340.65 804.456C340.65 802.152 342.63 800.64 346.086 800.64C348.354 800.64 350.154 801.036 351.522 801.432V803.16C351.522 806.112 348.75 808.164 345.33 808.164ZM360.094 810H362.866V801.864H373.594V810H376.366V791.388H373.594V799.416H362.866V791.388H360.094V810ZM382.559 810H385.223L396.311 795.276V810H399.083V791.388H396.383L385.331 806.112V791.388H382.559V810ZM405.27 810H407.934L419.022 795.276V810H421.794V791.388H419.094L408.042 806.112V791.388H405.27V810ZM413.442 788.724C416.142 788.724 418.086 786.888 418.518 784.332L416.61 783.936C416.178 785.484 415.206 786.456 413.442 786.456C411.678 786.456 410.706 785.484 410.274 783.936L408.366 784.332C408.798 786.888 410.742 788.724 413.442 788.724Z" fill="white"/>
<path d="M461.992 1101.49L477.405 1007.54L6.5234 1037.41L9.2756 1093.89L461.992 1101.49Z" fill="black" stroke="white"/>
<path d="M132.406 1071H135.286V1048.39H143.746V1045.8H123.946V1048.39H132.406V1071ZM148.621 1071H151.285L162.373 1056.28V1071H165.145V1052.39H162.445L151.393 1067.11V1052.39H148.621V1071ZM171.332 1071H174.032V1056.82L180.836 1066.25L187.712 1056.82V1071H190.52V1052.39H187.856L180.908 1062.18L173.96 1052.39H171.332V1071ZM205.463 1071.43C210.971 1071.43 215.003 1067.04 215.003 1061.86C215.003 1056.74 210.935 1052.6 206.075 1052.6C202.115 1052.6 199.667 1054.44 198.371 1056.64C198.659 1053.07 199.955 1050.98 203.807 1050.01L213.887 1047.53L213.347 1045.19L202.979 1047.64C196.499 1049.18 196.031 1054.94 196.031 1060.96C196.031 1067.44 199.811 1071.43 205.463 1071.43ZM205.535 1068.95C201.791 1068.95 198.875 1065.82 198.875 1061.93C198.875 1058.04 201.611 1054.91 205.463 1054.91C209.207 1054.91 212.123 1058.04 212.123 1061.93C212.123 1065.82 209.387 1068.95 205.535 1068.95ZM220.024 1071H222.688L233.776 1056.28V1071H236.548V1052.39H233.848L222.796 1067.11V1052.39H220.024V1071ZM241.835 1071.29C245.363 1071.29 247.991 1069.78 247.991 1055.27V1054.84H255.767V1071H258.539V1052.39H245.363V1053.94C245.363 1067.9 243.491 1068.88 241.259 1068.88C240.935 1068.88 240.287 1068.73 239.927 1068.62L239.603 1071C240.179 1071.14 241.223 1071.29 241.835 1071.29ZM262.006 1075.64H264.274L264.778 1071H279.826V1075.64H282.13L282.562 1068.55H279.754V1052.39H266.506V1055.63C266.506 1061.89 265.534 1065.78 264.022 1068.55H262.006V1075.64ZM266.974 1068.55C268.27 1066.14 269.17 1062.04 269.17 1057.43V1054.84H276.982V1068.55H266.974ZM286.364 1071H289.028L300.116 1056.28V1071H302.888V1052.39H300.188L289.136 1067.11V1052.39H286.364V1071ZM309.075 1071H311.847V1062.86H322.575V1071H325.347V1052.39H322.575V1060.42H311.847V1052.39H309.075V1071ZM331.539 1071H334.311V1054.84H344.175V1052.39H331.539V1071ZM348.203 1071H350.867L361.955 1056.28V1071H364.727V1052.39H362.027L350.975 1067.11V1052.39H348.203V1071Z" fill="white"/>
</svg>
